<svg xmlns="http://www.w3.org/2000/svg" viewBox="0 0 373.12 370"><defs><style>.cls-1,.cls-17,.cls-2,.cls-20,.cls-22,.cls-24,.cls-26,.cls-27,.cls-9{fill:none;stroke-miterlimit:10;}.cls-1{stroke:#bbe5ff;}.cls-1,.cls-9{stroke-linecap:round;}.cls-1,.cls-17,.cls-2,.cls-20,.cls-22,.cls-24,.cls-26,.cls-9{stroke-width:1px;}.cls-2,.cls-9{stroke:#8ab7ce;}.cls-3{fill:#d7e8f2;}.cls-4{fill:#a3caef;}.cls-5{fill:#4e6d84;}.cls-6{fill:#66e29e;}.cls-7{fill:#80aeff;}.cls-8{fill:#b3d6ff;}.cls-10{fill:#6e89a0;}.cls-11{fill:#85aed6;}.cls-12{fill:#96c1ea;}.cls-13{opacity:0.85;}.cls-14{fill:#96a8ea;}.cls-15{fill:#c0e0fc;}.cls-16{fill:#958ed6;}.cls-17{stroke:#958ed6;}.cls-18{fill:#e1f4ff;}.cls-19{fill:#679af4;}.cls-20{stroke:#80aeff;}.cls-21{fill:#f79b48;}.cls-22{stroke:#f79b48;}.cls-23{fill:#f78c57;}.cls-24{stroke:#f78c57;}.cls-25{fill:#f9bf3e;}.cls-26{stroke:#f9bf3e;}.cls-27{stroke:#96c1ea;stroke-width:1.33px;}</style></defs><g id="OBJECTS"><line class="cls-1" x1="131.13" y1="316.31" x2="131.13" y2="5.78"/><line class="cls-1" x1="53.6" y1="235.44" x2="53.6" y2="69.31"/><line class="cls-1" x1="148.54" y1="274.81" x2="148.54" y2="28.34"/><line class="cls-1" x1="222.62" y1="274.81" x2="222.62" y2="30.98"/><line class="cls-1" x1="294.67" y1="322.08" x2="294.67" y2="36.75"/><path class="cls-1" d="M113.28,131.2a2.64,2.64,0,1,1-2.64-2.64A2.64,2.64,0,0,1,113.28,131.2Z" transform="translate(-57.03 -64.53)"/><path class="cls-1" d="M190.8,67.67A2.64,2.64,0,1,1,188.16,65,2.64,2.64,0,0,1,190.8,67.67Z" transform="translate(-57.03 -64.53)"/><path class="cls-1" d="M208.22,90.23a2.64,2.64,0,1,1-2.64-2.64A2.64,2.64,0,0,1,208.22,90.23Z" transform="translate(-57.03 -64.53)"/><path class="cls-1" d="M354.35,98.15a2.64,2.64,0,1,1-2.64-2.64A2.64,2.64,0,0,1,354.35,98.15Z" transform="translate(-57.03 -64.53)"/><line class="cls-1" x1="328.69" y1="163.21" x2="328.69" y2="55.81"/><path class="cls-1" d="M388.36,117.3a2.64,2.64,0,1,1-2.64-2.64A2.64,2.64,0,0,1,388.36,117.3Z" transform="translate(-57.03 -64.53)"/><line class="cls-1" x1="369.98" y1="274.71" x2="369.98" y2="125.61"/><path class="cls-1" d="M429.65,187.09a2.64,2.64,0,1,1-2.64-2.64A2.64,2.64,0,0,1,429.65,187.09Z" transform="translate(-57.03 -64.53)"/><line class="cls-1" x1="15.42" y1="267.63" x2="15.42" y2="118.53"/><path class="cls-1" d="M75.09,180a2.64,2.64,0,1,1-2.64-2.64A2.64,2.64,0,0,1,75.09,180Z" transform="translate(-57.03 -64.53)"/><path class="cls-1" d="M282.3,92.87a2.64,2.64,0,1,1-2.64-2.64A2.64,2.64,0,0,1,282.3,92.87Z" transform="translate(-57.03 -64.53)"/><path class="cls-2" d="M411.25,237.59V207.15a5.22,5.22,0,0,0-4.87-5.2l-13.49-.88a80.36,80.36,0,0,0-7.88-19l8.93-10.17a5.21,5.21,0,0,0-.24-7.12l-21.52-21.53a5.21,5.21,0,0,0-7.12-.23L354.89,152a80.44,80.44,0,0,0-19-7.88L335,130.59a5.21,5.21,0,0,0-5.19-4.87H299.37a5.2,5.2,0,0,0-5.19,4.87l-.89,13.49a80.54,80.54,0,0,0-19,7.88L264.13,143a5.21,5.21,0,0,0-7.12.23l-21.52,21.53a5.2,5.2,0,0,0-.24,7.12l8.93,10.17a80.36,80.36,0,0,0-7.88,19l-13.49.88a5.22,5.22,0,0,0-4.87,5.2v30.44a5.21,5.21,0,0,0,4.87,5.2l13.49.88a80.44,80.44,0,0,0,7.88,19l-8.93,10.17a5.2,5.2,0,0,0,.24,7.12L257,301.48a5.21,5.21,0,0,0,7.12.23l10.17-8.92a81,81,0,0,0,19,7.88l.89,13.49a5.2,5.2,0,0,0,5.19,4.87h30.45a5.21,5.21,0,0,0,5.19-4.87l.88-13.49a80.86,80.86,0,0,0,19-7.88l10.17,8.92a5.21,5.21,0,0,0,7.12-.23L393.7,280a5.21,5.21,0,0,0,.24-7.12L385,262.67a80.44,80.44,0,0,0,7.88-19l13.49-.88A5.21,5.21,0,0,0,411.25,237.59Zm-91.76,32.54a48,48,0,1,1,42.86-42.86A48,48,0,0,1,319.49,270.13Z" transform="translate(-57.03 -64.53)"/><path class="cls-2" d="M214.24,275.6V254.81a3.55,3.55,0,0,0-3.32-3.55l-9.22-.6a54.69,54.69,0,0,0-5.38-13l6.1-6.94a3.56,3.56,0,0,0-.16-4.86l-14.7-14.71a3.56,3.56,0,0,0-4.86-.15l-6.95,6.09a55.28,55.28,0,0,0-13-5.38l-.6-9.21a3.57,3.57,0,0,0-3.55-3.33H137.84a3.55,3.55,0,0,0-3.55,3.33l-.61,9.21a55.46,55.46,0,0,0-13,5.38L113.77,211a3.57,3.57,0,0,0-4.87.15L94.2,225.88a3.57,3.57,0,0,0-.16,4.86l6.1,6.94a55.11,55.11,0,0,0-5.38,13l-9.22.6a3.55,3.55,0,0,0-3.32,3.55V275.6a3.56,3.56,0,0,0,3.32,3.55l9.22.6a54.86,54.86,0,0,0,5.38,13L94,299.67a3.57,3.57,0,0,0,.16,4.86l14.7,14.7a3.56,3.56,0,0,0,4.87.16l6.94-6.09a55.46,55.46,0,0,0,13,5.38l.61,9.21a3.56,3.56,0,0,0,3.55,3.33h20.79a3.57,3.57,0,0,0,3.55-3.33l.6-9.21a55.28,55.28,0,0,0,13-5.38l6.95,6.09a3.55,3.55,0,0,0,4.86-.16l14.7-14.7a3.56,3.56,0,0,0,.16-4.86l-6.1-6.95a54.45,54.45,0,0,0,5.38-13l9.22-.6A3.56,3.56,0,0,0,214.24,275.6Zm-62.66,22.22a32.79,32.79,0,1,1,29.27-29.27A32.79,32.79,0,0,1,151.58,297.82Z" transform="translate(-57.03 -64.53)"/><polygon class="cls-3" points="360.66 370 15.42 370 82.65 317.64 293.43 317.64 360.66 370"/><rect class="cls-4" x="82.65" y="163.21" width="210.78" height="122.48"/><rect class="cls-5" x="88.86" y="166.82" width="198.36" height="115.26"/><path class="cls-6" d="M202.62,256.42H158.14a1.66,1.66,0,0,1-1.66-1.65h0a1.67,1.67,0,0,1,1.66-1.66h44.48a1.67,1.67,0,0,1,1.66,1.66h0A1.66,1.66,0,0,1,202.62,256.42Z" transform="translate(-57.03 -64.53)"/><path class="cls-6" d="M255,256.42H210.47a1.65,1.65,0,0,1-1.65-1.65h0a1.66,1.66,0,0,1,1.65-1.66H255a1.66,1.66,0,0,1,1.65,1.66h0A1.65,1.65,0,0,1,255,256.42Z" transform="translate(-57.03 -64.53)"/><path class="cls-7" d="M276,256.42H263.8a1.65,1.65,0,0,1-1.65-1.65h0a1.66,1.66,0,0,1,1.65-1.66H276a1.66,1.66,0,0,1,1.65,1.66h0A1.65,1.65,0,0,1,276,256.42Z" transform="translate(-57.03 -64.53)"/><path class="cls-6" d="M216.91,287.73H158.14a1.67,1.67,0,0,1-1.66-1.66h0a1.66,1.66,0,0,1,1.66-1.65h58.77a1.65,1.65,0,0,1,1.65,1.65h0A1.66,1.66,0,0,1,216.91,287.73Z" transform="translate(-57.03 -64.53)"/><path class="cls-7" d="M261,287.73h-35a1.66,1.66,0,0,1-1.65-1.66h0a1.65,1.65,0,0,1,1.65-1.65h35a1.65,1.65,0,0,1,1.65,1.65h0A1.66,1.66,0,0,1,261,287.73Z" transform="translate(-57.03 -64.53)"/><path class="cls-7" d="M179.63,266.86H158.14a1.67,1.67,0,0,1-1.66-1.66h0a1.66,1.66,0,0,1,1.66-1.65h21.49a1.66,1.66,0,0,1,1.66,1.65h0A1.67,1.67,0,0,1,179.63,266.86Z" transform="translate(-57.03 -64.53)"/><path class="cls-6" d="M223.67,266.86h-38A1.67,1.67,0,0,1,184,265.2h0a1.66,1.66,0,0,1,1.66-1.65h38a1.66,1.66,0,0,1,1.66,1.65h0A1.67,1.67,0,0,1,223.67,266.86Z" transform="translate(-57.03 -64.53)"/><path class="cls-6" d="M197.32,246H158.14a1.67,1.67,0,0,1-1.66-1.66h0a1.66,1.66,0,0,1,1.66-1.65h39.18a1.66,1.66,0,0,1,1.66,1.65h0A1.67,1.67,0,0,1,197.32,246Z" transform="translate(-57.03 -64.53)"/><path class="cls-7" d="M296.89,246H205.57a1.67,1.67,0,0,1-1.66-1.66h0a1.66,1.66,0,0,1,1.66-1.65h91.32a1.66,1.66,0,0,1,1.66,1.65h0A1.67,1.67,0,0,1,296.89,246Z" transform="translate(-57.03 -64.53)"/><path class="cls-7" d="M276,277.29H256.52a1.65,1.65,0,0,1-1.65-1.65h0a1.66,1.66,0,0,1,1.65-1.66H276a1.66,1.66,0,0,1,1.65,1.66h0A1.65,1.65,0,0,1,276,277.29Z" transform="translate(-57.03 -64.53)"/><path class="cls-6" d="M249.46,277.29H158.14a1.66,1.66,0,0,1-1.66-1.65h0a1.67,1.67,0,0,1,1.66-1.66h91.32a1.67,1.67,0,0,1,1.66,1.66h0A1.66,1.66,0,0,1,249.46,277.29Z" transform="translate(-57.03 -64.53)"/><path class="cls-6" d="M202.62,308.59H158.14a1.66,1.66,0,0,1-1.66-1.65h0a1.66,1.66,0,0,1,1.66-1.65h44.48a1.66,1.66,0,0,1,1.66,1.65h0A1.66,1.66,0,0,1,202.62,308.59Z" transform="translate(-57.03 -64.53)"/><path class="cls-6" d="M255,308.59H210.47a1.65,1.65,0,0,1-1.65-1.65h0a1.65,1.65,0,0,1,1.65-1.65H255a1.65,1.65,0,0,1,1.65,1.65h0A1.65,1.65,0,0,1,255,308.59Z" transform="translate(-57.03 -64.53)"/><path class="cls-7" d="M276,308.59H263.8a1.65,1.65,0,0,1-1.65-1.65h0a1.65,1.65,0,0,1,1.65-1.65H276a1.65,1.65,0,0,1,1.65,1.65h0A1.65,1.65,0,0,1,276,308.59Z" transform="translate(-57.03 -64.53)"/><path class="cls-6" d="M216.91,339.9H158.14a1.67,1.67,0,0,1-1.66-1.66h0a1.66,1.66,0,0,1,1.66-1.65h58.77a1.65,1.65,0,0,1,1.65,1.65h0A1.66,1.66,0,0,1,216.91,339.9Z" transform="translate(-57.03 -64.53)"/><path class="cls-7" d="M261,339.9h-35a1.66,1.66,0,0,1-1.65-1.66h0a1.65,1.65,0,0,1,1.65-1.65h35a1.65,1.65,0,0,1,1.65,1.65h0A1.66,1.66,0,0,1,261,339.9Z" transform="translate(-57.03 -64.53)"/><path class="cls-7" d="M179.63,319H158.14a1.67,1.67,0,0,1-1.66-1.66h0a1.66,1.66,0,0,1,1.66-1.65h21.49a1.66,1.66,0,0,1,1.66,1.65h0A1.67,1.67,0,0,1,179.63,319Z" transform="translate(-57.03 -64.53)"/><path class="cls-6" d="M223.67,319h-38a1.67,1.67,0,0,1-1.66-1.66h0a1.66,1.66,0,0,1,1.66-1.65h38a1.66,1.66,0,0,1,1.66,1.65h0A1.67,1.67,0,0,1,223.67,319Z" transform="translate(-57.03 -64.53)"/><path class="cls-6" d="M197.32,298.16H158.14a1.66,1.66,0,0,1-1.66-1.65h0a1.67,1.67,0,0,1,1.66-1.66h39.18a1.67,1.67,0,0,1,1.66,1.66h0A1.66,1.66,0,0,1,197.32,298.16Z" transform="translate(-57.03 -64.53)"/><rect class="cls-7" x="146.88" y="230.32" width="85.43" height="3.31" rx="1.57"/><path class="cls-7" d="M276,329.46H256.52a1.65,1.65,0,0,1-1.65-1.65h0a1.66,1.66,0,0,1,1.65-1.66H276a1.66,1.66,0,0,1,1.65,1.66h0A1.65,1.65,0,0,1,276,329.46Z" transform="translate(-57.03 -64.53)"/><path class="cls-6" d="M249.46,329.46H158.14a1.66,1.66,0,0,1-1.66-1.65h0a1.67,1.67,0,0,1,1.66-1.66h91.32a1.67,1.67,0,0,1,1.66,1.66h0A1.66,1.66,0,0,1,249.46,329.46Z" transform="translate(-57.03 -64.53)"/><polygon class="cls-8" points="360.66 338.05 15.42 338.05 82.65 285.69 293.43 285.69 360.66 338.05"/><line class="cls-9" x1="67.46" y1="288.95" x2="76.74" y2="281.96"/><line class="cls-9" x1="34.11" y1="314.08" x2="64.11" y2="291.48"/><path class="cls-9" d="M108,413.92H64.22a6.67,6.67,0,0,1-4-12l9.61-7.24" transform="translate(-57.03 -64.53)"/><line class="cls-9" x1="235.8" y1="349.39" x2="82.65" y2="349.39"/><line class="cls-9" x1="337.49" y1="349.39" x2="263.52" y2="349.39"/><line class="cls-9" x1="334.84" y1="309.71" x2="348.09" y2="319.69"/><line class="cls-9" x1="306.88" y1="288.65" x2="332.22" y2="307.74"/><polygon class="cls-10" points="104.16 290.59 92.69 290.59 96.87 287.31 107.84 287.31 104.16 290.59"/><polygon class="cls-10" points="97.61 296.7 84.9 296.7 89.78 292.87 101.89 292.87 97.61 296.7"/><polygon class="cls-10" points="116.96 296.7 104.26 296.7 108.22 292.87 120.33 292.87 116.96 296.7"/><polygon class="cls-10" points="136.32 296.7 123.62 296.7 126.67 292.87 138.77 292.87 136.32 296.7"/><polygon class="cls-10" points="155.68 296.7 142.97 296.7 145.11 292.87 157.21 292.87 155.68 296.7"/><polygon class="cls-10" points="175.03 296.7 162.33 296.7 163.55 292.87 175.65 292.87 175.03 296.7"/><polygon class="cls-10" points="194.39 296.7 181.69 296.7 181.99 292.87 194.09 292.87 194.39 296.7"/><polygon class="cls-10" points="213.75 296.7 201.04 296.7 200.43 292.87 212.53 292.87 213.75 296.7"/><polygon class="cls-10" points="233.1 296.7 220.4 296.7 218.87 292.87 230.97 292.87 233.1 296.7"/><polygon class="cls-10" points="252.46 296.7 239.76 296.7 237.31 292.87 249.41 292.87 252.46 296.7"/><polygon class="cls-10" points="271.82 296.7 259.12 296.7 255.75 292.87 267.85 292.87 271.82 296.7"/><polygon class="cls-10" points="291.18 296.7 278.47 296.7 274.19 292.87 286.3 292.87 291.18 296.7"/><polygon class="cls-10" points="90.45 303.11 76.74 303.11 82.41 298.66 95.42 298.66 90.45 303.11"/><polygon class="cls-10" points="111.34 303.11 97.63 303.11 102.23 298.66 115.24 298.66 111.34 303.11"/><polygon class="cls-10" points="132.23 303.11 118.52 303.11 122.06 298.66 135.07 298.66 132.23 303.11"/><polygon class="cls-10" points="153.12 303.11 139.41 303.11 141.88 298.66 154.89 298.66 153.12 303.11"/><polygon class="cls-10" points="174 303.11 160.3 303.11 161.71 298.66 174.72 298.66 174 303.11"/><polygon class="cls-10" points="194.89 303.11 181.19 303.11 181.53 298.66 194.54 298.66 194.89 303.11"/><polygon class="cls-10" points="215.78 303.11 202.07 303.11 201.36 298.66 214.37 298.66 215.78 303.11"/><polygon class="cls-10" points="236.67 303.11 222.96 303.11 221.19 298.66 234.2 298.66 236.67 303.11"/><polygon class="cls-10" points="257.56 303.11 243.85 303.11 241.01 298.66 254.02 298.66 257.56 303.11"/><polygon class="cls-10" points="278.45 303.11 264.74 303.11 260.84 298.66 273.85 298.66 278.45 303.11"/><polygon class="cls-10" points="299.34 303.11 285.63 303.11 280.66 298.66 293.68 298.66 299.34 303.11"/><polygon class="cls-10" points="81.62 311.01 66.67 311.01 73.38 305.75 87.5 305.75 81.62 311.01"/><polygon class="cls-10" points="104.4 311.01 89.45 311.01 94.9 305.75 109.02 305.75 104.4 311.01"/><polygon class="cls-10" points="240.72 311.01 112.23 311.01 116.42 305.75 237.81 305.75 240.72 311.01"/><polygon class="cls-10" points="263.85 311.01 248.9 311.01 245.54 305.75 259.66 305.75 263.85 311.01"/><polygon class="cls-10" points="286.63 311.01 271.68 311.01 267.06 305.75 281.18 305.75 286.63 311.01"/><polygon class="cls-10" points="309.41 311.01 294.46 311.01 288.58 305.75 302.7 305.75 309.41 311.01"/><polygon class="cls-10" points="127.39 290.59 115.91 290.59 119.08 287.31 130.05 287.31 127.39 290.59"/><polygon class="cls-10" points="143.78 290.59 132.3 290.59 134.75 287.31 145.72 287.31 143.78 290.59"/><polygon class="cls-10" points="160.17 290.59 148.7 290.59 150.42 287.31 161.4 287.31 160.17 290.59"/><polygon class="cls-10" points="176.56 290.59 165.09 290.59 166.1 287.31 177.07 287.31 176.56 290.59"/><polygon class="cls-10" points="192.96 290.59 181.48 290.59 181.77 287.31 192.74 287.31 192.96 290.59"/><polygon class="cls-10" points="209.35 290.59 197.88 290.59 197.44 287.31 208.41 287.31 209.35 290.59"/><polygon class="cls-10" points="226.29 290.59 214.82 290.59 213.64 287.31 224.61 287.31 226.29 290.59"/><polygon class="cls-10" points="252.25 290.59 240.77 290.59 238.46 287.31 249.43 287.31 252.25 290.59"/><polygon class="cls-10" points="267.82 290.59 256.35 290.59 253.35 287.31 264.32 287.31 267.82 290.59"/><polygon class="cls-10" points="283.39 290.59 271.92 290.59 268.24 287.31 279.21 287.31 283.39 290.59"/><polygon class="cls-11" points="227.4 330.95 148.68 330.95 154.89 316.31 221.19 316.31 227.4 330.95"/><path class="cls-12" d="M15.42,338H360.66a0,0,0,0,1,0,0v.65a5.12,5.12,0,0,1-5.12,5.12h-335a5.12,5.12,0,0,1-5.12-5.12V338A0,0,0,0,1,15.42,338Z"/><g class="cls-13"><rect class="cls-14" x="145.05" y="97.43" width="90.75" height="153.76" rx="2.69"/><rect class="cls-15" x="148.54" y="103.34" width="83.76" height="128.63"/><path class="cls-15" d="M252.57,306.4a5.11,5.11,0,1,1-5.11-5.12A5.11,5.11,0,0,1,252.57,306.4Z" transform="translate(-57.03 -64.53)"/></g><rect class="cls-16" x="34.97" y="122.73" width="59.02" height="59.02" rx="11.43"/><rect class="cls-17" x="31.47" y="119.23" width="66.01" height="66.01" rx="12.78"/><path class="cls-18" d="M100.36,209.28h5.91c3.31,0,6,1.06,6,4.84s-2.54,4.88-5.89,4.88h-2.57v6.21h-3.5Zm3.5,6.75h2.34c1.24,0,2.48-.43,2.48-1.91,0-1.64-1.67-1.87-3-1.87h-1.8Z" transform="translate(-57.03 -64.53)"/><path class="cls-18" d="M114.52,209.28H118v5.94h6.82v-5.94h3.5v15.93h-3.5v-6.89H118v6.89h-3.51Z" transform="translate(-57.03 -64.53)"/><path class="cls-18" d="M131.59,209.28h5.92c3.3,0,6,1.06,6,4.84S141,219,137.66,219H135.1v6.21h-3.51ZM135.1,216h2.34c1.24,0,2.47-.43,2.47-1.91,0-1.64-1.66-1.87-3-1.87h-1.8Z" transform="translate(-57.03 -64.53)"/><rect class="cls-19" x="275.83" y="200.81" width="59.02" height="59.02" rx="11.43"/><rect class="cls-20" x="272.33" y="197.31" width="66.01" height="66.01" rx="12.78"/><path class="cls-18" d="M352.56,288.88a3.92,3.92,0,0,0-3.15-1.36c-2.77,0-4.82,2.25-4.82,5.36s2.05,5.35,4.71,5.35a4,4,0,0,0,3.43-1.78l3,2.28a7.27,7.27,0,0,1-6,2.89c-5.19,0-9-3.41-9-8.74s3.78-8.75,9-8.75a7.15,7.15,0,0,1,5.62,2.45Z" transform="translate(-57.03 -64.53)"/><path class="cls-18" d="M357.48,292.59h4.95v-5h3v5h5v3h-5v5h-3v-5h-4.95Z" transform="translate(-57.03 -64.53)"/><path class="cls-18" d="M373.13,292.59h5v-5h3v5h5v3h-5v5h-3v-5h-5Z" transform="translate(-57.03 -64.53)"/><rect class="cls-21" x="258.21" y="137.13" width="41.84" height="41.84" rx="8.1"/><rect class="cls-22" x="255.73" y="134.66" width="46.8" height="46.8" rx="9.06"/><path class="cls-18" d="M320.66,217.9h1.94v3.27h3.75V217.9h1.93v8.77h-1.93v-3.79H322.6v3.79h-1.94Z" transform="translate(-57.03 -64.53)"/><path class="cls-18" d="M331.76,219.61h-2.5V217.9h6.94v1.71h-2.5v7.06h-1.94Z" transform="translate(-57.03 -64.53)"/><path class="cls-18" d="M337.18,217.9h2.92l2,5.73h0l2-5.73h2.91v8.77h-1.93V220h0l-2.3,6.72h-1.48L339.14,220h0v6.72h-1.93Z" transform="translate(-57.03 -64.53)"/><path class="cls-18" d="M349,217.9h1.93v7h3.58v1.78H349Z" transform="translate(-57.03 -64.53)"/><rect class="cls-23" x="104.43" y="57.03" width="59.02" height="59.02" rx="11.43"/><rect class="cls-24" x="100.93" y="53.54" width="66.01" height="66.01" rx="12.78"/><path class="cls-18" d="M177.25,152.67c0,2.23-.57,4.34-3.84,4.34a3.39,3.39,0,0,1-3.69-2.81l2.43-.59a1.24,1.24,0,0,0,1.19,1c1.24,0,1.26-1.37,1.26-2.28v-7.72h2.65Z" transform="translate(-57.03 -64.53)"/><path class="cls-18" d="M183.49,144.66h2.2l5.23,12h-3l-1-2.55h-4.67l-1,2.55h-2.93Zm1,3.51-1.47,3.74H186Z" transform="translate(-57.03 -64.53)"/><path class="cls-18" d="M189.89,144.66h3l3,7.89h0l3-7.89h2.84l-5,12H194.7Z" transform="translate(-57.03 -64.53)"/><path class="cls-18" d="M206,144.66h2.19l5.24,12h-3l-1-2.55h-4.68l-1,2.55h-2.92Zm1,3.51-1.46,3.74h2.94Z" transform="translate(-57.03 -64.53)"/><rect class="cls-25" x="75.68" y="213.64" width="43.61" height="43.61" rx="8.44"/><rect class="cls-26" x="73.09" y="211.06" width="48.77" height="48.77" rx="9.44"/><path class="cls-18" d="M151.62,301.75c0,3.13-.81,6.08-5.39,6.08-2.67,0-4.63-1.24-5.18-3.93l3.41-.84a1.74,1.74,0,0,0,1.67,1.48c1.75,0,1.77-1.93,1.77-3.2V290.51h3.72Z" transform="translate(-57.03 -64.53)"/><path class="cls-18" d="M163.17,294.64a3.59,3.59,0,0,0-2.7-1.12c-1.05,0-2.5.47-2.5,1.74,0,3.08,7.78,1.1,7.78,7,0,3.78-3,5.56-6.52,5.56a8,8,0,0,1-5.68-2.12l2.65-2.91a4.17,4.17,0,0,0,3.25,1.6c1.21,0,2.58-.57,2.58-1.77,0-3.1-7.93-1.43-7.93-7.06,0-3.61,3.13-5.49,6.44-5.49a7.61,7.61,0,0,1,5.18,1.77Z" transform="translate(-57.03 -64.53)"/><path class="cls-27" d="M397.16,339.23a2.64,2.64,0,1,1-2.64-2.64A2.64,2.64,0,0,1,397.16,339.23Z" transform="translate(-57.03 -64.53)"/><path class="cls-27" d="M359,167.88a2.64,2.64,0,1,1-2.64-2.64A2.64,2.64,0,0,1,359,167.88Z" transform="translate(-57.03 -64.53)"/><path class="cls-23" d="M379.57,232.19a1.72,1.72,0,1,1-1.71-1.71A1.71,1.71,0,0,1,379.57,232.19Z" transform="translate(-57.03 -64.53)"/><circle class="cls-23" cx="59.19" cy="266.68" r="1.71"/><circle class="cls-23" cx="80.54" cy="103.34" r="1.71"/><path class="cls-23" d="M368.15,345.18a1.71,1.71,0,1,1-1.71-1.71A1.71,1.71,0,0,1,368.15,345.18Z" transform="translate(-57.03 -64.53)"/><path class="cls-27" d="M183.93,196.55a2.65,2.65,0,1,1-2.64-2.64A2.64,2.64,0,0,1,183.93,196.55Z" transform="translate(-57.03 -64.53)"/><path class="cls-27" d="M91.15,338.24a2.64,2.64,0,1,1-2.64-2.64A2.64,2.64,0,0,1,91.15,338.24Z" transform="translate(-57.03 -64.53)"/><path class="cls-27" d="M121.51,167.88a2.64,2.64,0,1,1-2.64-2.64A2.64,2.64,0,0,1,121.51,167.88Z" transform="translate(-57.03 -64.53)"/></g></svg>