<svg xmlns="http://www.w3.org/2000/svg" xmlns:xlink="http://www.w3.org/1999/xlink" viewBox="0 0 750 500"><defs><style>.cls-1,.cls-21,.cls-24,.cls-29,.cls-7,.cls-8{fill:none;}.cls-2{isolation:isolate;}.cls-3,.cls-43,.cls-44{fill:#fff;}.cls-15,.cls-4{fill:#ebf8ff;}.cls-4,.cls-9{opacity:0.5;}.cls-5{fill:#c5f4ff;}.cls-6{opacity:0.25;}.cls-24,.cls-7,.cls-8{stroke:#fff;stroke-linejoin:round;}.cls-24,.cls-29,.cls-7,.cls-8{stroke-linecap:round;}.cls-7{stroke-width:1.24px;}.cls-8{stroke-width:1.13px;}.cls-10{fill:#8ae9ff;}.cls-11{fill:#00a4d6;}.cls-11,.cls-43{opacity:0.2;}.cls-11,.cls-33,.cls-45,.cls-53,.cls-54{mix-blend-mode:multiply;}.cls-12{fill:#1a92c1;}.cls-13{fill:#107999;}.cls-14{fill:#46a6d1;}.cls-16{opacity:0.7;}.cls-17{clip-path:url(#clip-path);}.cls-18,.cls-21{opacity:0.3;}.cls-19{fill:#56a4fe;}.cls-20{fill:#aef4ff;}.cls-21{stroke:#56a4fe;stroke-width:1.1px;}.cls-21,.cls-29{stroke-miterlimit:10;}.cls-22{fill:#64f0ff;}.cls-23{fill:#b0e9ff;}.cls-24{stroke-width:1.28px;}.cls-25{fill:#67c2ef;}.cls-26{opacity:0.6;}.cls-27{opacity:0.4;}.cls-28{fill:#def0f9;}.cls-29{stroke:#a8a8a8;stroke-width:0.55px;}.cls-30{fill:#f9dce0;}.cls-31{fill:#e4eff4;}.cls-32{fill:#7bf3ff;}.cls-33,.cls-46,.cls-53{fill:#5fb0e7;}.cls-33,.cls-45,.cls-47{opacity:0.8;}.cls-34{fill:#222b70;}.cls-35{fill:#023d5f;}.cls-36{fill:#2dc1bd;}.cls-37{fill:#f2a181;}.cls-38{fill:#2c1e56;}.cls-39{fill:#ffccb0;}.cls-40{fill:#17a59e;}.cls-41{fill:#e8505c;}.cls-42{fill:#c6324b;}.cls-44{opacity:0.08;}.cls-48{fill:#f4a07a;}.cls-49{fill:#f4b798;}.cls-50{fill:#32ccc4;}.cls-51{fill:#0d2d47;}.cls-52{fill:#ff8594;}.cls-54{opacity:0.47;fill:url(#linear-gradient);}</style><clipPath id="clip-path"><rect class="cls-1" x="214.16" y="155.35" width="320.74" height="166.39"/></clipPath><linearGradient id="linear-gradient" x1="352.85" y1="144.53" x2="355.16" y2="144.53" gradientUnits="userSpaceOnUse"><stop offset="0" stop-color="#f7941e"/><stop offset="1" stop-color="#f7941e" stop-opacity="0"/></linearGradient></defs><g class="cls-2"><g id="BACKGROUND"><rect class="cls-3" width="750" height="500"/></g><g id="OBJECTS"><path class="cls-4" d="M147.17,400.13s-38.56-20.05-34.83-59.88c4.15-44.34,39.13-50.83,43.87-77.87,9.68-55.23-28.41-48.7-27.42-114.34,1-67.74,61.94-133.8,151.41-98.42,79.56,31.45,97.19,63.23,150.93,64.33s94.94-31.15,141,4.4c31.22,24.11,50.16,76.14,13.4,136.49s-8.71,74.65,5.8,101,5.81,44.24,5.81,44.24Z"/><path class="cls-5" d="M337.06,414.37c-68.49.16-164,.26-228.75,0-2.17,0-9,.07,2.79-7.54,10-6.46,41.62-.65,41.62-.65s-7.36-2.95-7.32-6.76,2.92-7.16,6.38-8.74S159.2,389,163,389.21a71.33,71.33,0,0,1,22.59,5.05,6.55,6.55,0,1,1,7.6-10.64c-4.86-6.57-12.37-35.72,10.71-48.57,28.93-16.1,50.89-2.85,55.58,6.84,2.38-9.51,13.29-16.72,20.48-18.5,16.4-4.07,27.08-2.87,42.38,4.28,5.42,2.53,12.67,11.17,16.27,15.94,5.64,7.47,6.52,17.41,6.83,26.76q.35,10.53.09,21.07"/><path class="cls-5" d="M404.25,414.32c71.07.21,168.63.26,235.17,0,2.24,0,9.29.08-2.86-7.75-10.28-6.64-42.8-.67-42.8-.67s7.57-3,7.54-6.95-3-7.36-6.57-9-7.62-1.74-11.53-1.52a73.6,73.6,0,0,0-23.22,5.2,6.74,6.74,0,1,0-7.81-10.94c5-6.76,12.71-36.73-11-49.94-29.74-16.55-52.32-2.93-57.14,7-2.45-9.78-13.67-17.18-21.06-19-16.86-4.18-27.84-2.94-43.57,4.41-5.57,2.6-13,11.48-16.72,16.38-5.8,7.68-6.7,17.9-7,27.51q-.36,10.83-.1,21.67"/><path class="cls-5" d="M200.63,271.91c-2.41-5.05-4.87-10.34-4.74-15.94.13-5.18-.07-10.94,1.28-15.95a42,42,0,0,0,1-15.43c-1.75-16.17-8.58-15.17-11.12-14.23s-3.9,3.38-4.49,7.54c-.46,3.34.19,19.29-4.67,16.42-5.63-3.32-3.69-19.7-4-25.26-.53-8.31-2.95-17.4-8.6-23.74-2.78-3.12-7.1-5.65-11-4.21a9.72,9.72,0,0,0-5.09,5.26c-3.17,6.85-1.49,14.49.6,21.38.88,2.88,9,16.64,1.31,14.58-1.84-.5-16.15-14.36-19-1.86-1,4.4,3.5,9.5,10.81,16.06,4.57,4.1,21.89,15.35,20.45,20.19s-10.76-4.11-10.52,5.2c.13,5.22,6.49,9.63,10.87,12.06,2.09,1.15,4.4,1.89,6.4,3.17,2.38,1.53,5.13,4.91,2.9,7.68-1,1.22-2.66,1.7-3.6,2.94a4.44,4.44,0,0,0-.19,4.5,10.37,10.37,0,0,0,3.15,3.48c8,6.16,18.69,8.15,28.76,7.23s19.72-4.5,29-8.55"/><g class="cls-6"><path class="cls-7" d="M158.22,190.2S162.93,245.06,192,282"/><path class="cls-7" d="M139.6,224.08s16.73,16.14,31.51,19.77"/><path class="cls-7" d="M189.13,217.35c.07,8.56-1.67,32.23-10.87,42.78"/><path class="cls-7" d="M159.33,264.39s6.51,6.94,28.4,11.78"/><path class="cls-7" d="M173.56,289.71s11.23,3.22,22-1.7"/></g><path class="cls-5" d="M534.55,181c2.19-4.6,4.43-9.41,4.3-14.5-.11-4.71.07-9.95-1.16-14.5a38.1,38.1,0,0,1-.94-14c1.6-14.71,7.8-13.8,10.12-13s3.55,3.08,4.08,6.86c.42,3-.18,17.54,4.25,14.93,5.12-3,3.35-17.91,3.67-23,.48-7.57,2.68-15.83,7.82-21.59,2.53-2.85,6.45-5.15,10-3.84a8.8,8.8,0,0,1,4.63,4.79c2.88,6.22,1.35,13.18-.55,19.44-.79,2.62-8.19,15.13-1.19,13.25,1.67-.44,14.69-13.05,17.29-1.68.92,4-3.18,8.64-9.83,14.6-4.16,3.73-19.9,14-18.59,18.36s9.77-3.74,9.56,4.73c-.12,4.74-5.91,8.76-9.89,11-1.89,1.05-4,1.71-5.81,2.88-2.17,1.39-4.67,4.47-2.64,7,.89,1.1,2.42,1.54,3.27,2.67a4,4,0,0,1,.17,4.09,9.2,9.2,0,0,1-2.86,3.16c-7.3,5.61-17,7.42-26.16,6.58s-17.93-4.09-26.37-7.77"/><g class="cls-6"><path class="cls-8" d="M573.11,106.69s-4.29,49.89-30.75,83.5"/><path class="cls-8" d="M590,137.5s-15.21,14.68-28.65,18"/><path class="cls-8" d="M545,131.38c-.06,7.78,1.52,29.31,9.88,38.9"/><path class="cls-8" d="M572.1,174.15s-5.92,6.32-25.82,10.72"/><path class="cls-8" d="M559.16,197.18s-10.21,2.93-20-1.54"/></g><g class="cls-9"><path class="cls-10" d="M455.35,406.55c3-1.12,4.9-2.58,5.07-4.47.32-3.35-7.21-3.36-13-2.75,7.67-4.36,14.36-10,11.83-15.66-5.29-11.82-22.53,1.21-28.36,8.77,0,0,26-32.69,9.82-38.7-14.48-5.37-20.52,29.9-21.09,33.45.53-3.39,5-35.18-11.66-33.67C390.46,355.11,393.31,409,393.31,409s29.1,2.13,49,.14l-20.4,5.44h52.19C477,405.59,464.64,405.47,455.35,406.55Z"/><path class="cls-10" d="M337.17,353.55c-17.82-1.62-13,32.42-12.48,36.05-.61-3.81-7.08-41.57-22.58-35.82-17.36,6.43,10.52,41.44,10.52,41.44-6.26-8.09-22.36-20.06-28-7.39-2.47,5.52,2.83,10.66,9.59,14.7-4.32-1-8.77-1.51-10.2.24-1.75,2.13-1.17,4.42,1.32,6.34-7.42-1.85-28.37-6.14-24.63,5.42h52.19l-5.27-1c3.3-.36,5.19-1.31,6.23-2.47l.31.09,38.76,1.75L347,393S355.93,355.24,337.17,353.55Z"/></g><path class="cls-11" d="M326,409.94s-18.23-7.05-13.84-13.13c2.78-3.83,8.13,2.68,8.13,2.68s-7-9.22-.95-12c6.33-2.91,9.72,7.71,9.72,7.71s-2.35-9.31,2.47-10.62,5.18,9.31,5.18,9.31,6.22-8.38,9.93-1.7c3.36,6.06-6.85,18.14-6.85,18.14"/><path class="cls-11" d="M420,411.17s18.22-7.05,13.83-13.12c-2.77-3.84-8.13,2.68-8.13,2.68s7.05-9.22.95-12c-6.33-2.92-9.72,7.7-9.72,7.7s2.35-9.31-2.46-10.62-5.19,9.31-5.19,9.31-6.22-8.38-9.93-1.7c-3.36,6.06,6.85,18.15,6.85,18.15"/><polygon class="cls-12" points="410.31 405.96 337.72 405.96 345.6 374.96 347.39 367.93 350.86 354.32 397.17 354.32 400.64 367.93 402.42 374.96 410.31 405.96"/><path class="cls-12" d="M544.78,153.72V359.23a8.79,8.79,0,0,1-6.49,8.62,8,8,0,0,1-2,.24H212.73a8.18,8.18,0,0,1-4.54-1.38,8.94,8.94,0,0,1-1.34-1.12,9,9,0,0,1-2.57-6.36V153.72a8.67,8.67,0,0,1,8.45-8.86h323.6A8.67,8.67,0,0,1,544.78,153.72Z"/><polygon class="cls-13" points="402.42 374.96 345.6 374.96 347.39 367.93 400.64 367.93 402.42 374.96"/><path class="cls-13" d="M438.16,414.53H309.86a5.58,5.58,0,0,1-5.58-5.58h0a5.57,5.57,0,0,1,5.58-5.57h128.3a5.57,5.57,0,0,1,5.58,5.57h0A5.58,5.58,0,0,1,438.16,414.53Z"/><path class="cls-14" d="M544.78,153.73V330.91H204.28V153.73a8.66,8.66,0,0,1,8.45-8.86h323.6A8.66,8.66,0,0,1,544.78,153.73Z"/><rect class="cls-15" x="214.16" y="155.35" width="320.74" height="166.39"/><g class="cls-16"><g class="cls-17"><g class="cls-9"><g class="cls-18"><path class="cls-19" d="M185.38,158.15h-1.06a6.65,6.65,0,0,1-2.29.79v.88h2v7.84h-2.47v1.13h6.09v-1.13h-2.23Z"/><path class="cls-19" d="M220.23,158.15h-1.07a6.51,6.51,0,0,1-2.28.79v.88h2v7.84h-2.47v1.13h6.09v-1.13h-2.23Z"/><path class="cls-19" d="M202,158c-2.16,0-3.47,1.92-3.47,5.49S199.84,169,202,169s3.45-2,3.45-5.55S204.15,158,202,158Zm0,9.94c-1.27,0-2.11-1.33-2.11-4.45s.84-4.39,2.11-4.39,2.1,1.27,2.1,4.39S203.25,167.89,202,167.89Z"/><path class="cls-19" d="M256,158c-2.17,0-3.47,1.92-3.47,5.49S253.86,169,256,169s3.44-2,3.44-5.55S258.17,158,256,158Zm0,9.94c-1.27,0-2.12-1.33-2.12-4.45s.85-4.39,2.12-4.39,2.09,1.27,2.09,4.39S257.28,167.89,256,167.89Z"/><path class="cls-19" d="M275.49,158.15h-1.07a6.51,6.51,0,0,1-2.28.79v.88h2v7.84h-2.47v1.13h6.09v-1.13h-2.23Z"/><path class="cls-19" d="M184.4,176.72c-2.16,0-3.47,1.92-3.47,5.49s1.31,5.55,3.47,5.55,3.45-2,3.45-5.55S186.55,176.72,184.4,176.72Zm0,9.94c-1.27,0-2.11-1.34-2.11-4.45s.84-4.39,2.11-4.39,2.1,1.27,2.1,4.39S185.65,186.66,184.4,186.66Z"/><path class="cls-19" d="M220.23,176.92h-1.07a6.33,6.33,0,0,1-2.28.78v.89h2v7.84h-2.47v1.13h6.09v-1.13h-2.23Z"/><path class="cls-19" d="M237.9,176.72c-2.16,0-3.47,1.92-3.47,5.49s1.31,5.55,3.47,5.55,3.45-2,3.45-5.55S240.05,176.72,237.9,176.72Zm0,9.94c-1.27,0-2.11-1.34-2.11-4.45s.84-4.39,2.11-4.39,2.1,1.27,2.1,4.39S239.15,186.66,237.9,186.66Z"/><path class="cls-19" d="M202,176.72c-2.16,0-3.47,1.92-3.47,5.49s1.31,5.55,3.47,5.55,3.45-2,3.45-5.55S204.15,176.72,202,176.72Zm0,9.94c-1.27,0-2.11-1.34-2.11-4.45s.84-4.39,2.11-4.39,2.1,1.27,2.1,4.39S203.25,186.66,202,186.66Z"/><path class="cls-19" d="M185.38,195.69h-1.06a6.66,6.66,0,0,1-2.29.78v.88h2v7.84h-2.47v1.14h6.09v-1.14h-2.23Z"/><path class="cls-19" d="M238.88,195.69h-1.06a6.66,6.66,0,0,1-2.29.78v.88h2v7.84H235v1.14h6.08v-1.14h-2.23Z"/><path class="cls-19" d="M202,195.49c-2.16,0-3.47,1.91-3.47,5.48s1.31,5.56,3.47,5.56,3.45-2,3.45-5.56S204.15,195.49,202,195.49Zm0,9.94c-1.27,0-2.11-1.34-2.11-4.46s.84-4.38,2.11-4.38,2.1,1.26,2.1,4.38S203.25,205.43,202,205.43Z"/><path class="cls-19" d="M184.4,214.25c-2.16,0-3.47,1.92-3.47,5.49s1.31,5.55,3.47,5.55,3.45-2,3.45-5.55S186.55,214.25,184.4,214.25Zm0,9.94c-1.27,0-2.11-1.33-2.11-4.45s.84-4.39,2.11-4.39,2.1,1.27,2.1,4.39S185.65,224.19,184.4,224.19Z"/><path class="cls-19" d="M220.23,214.45h-1.07a6.51,6.51,0,0,1-2.28.79v.88h2V224h-2.47v1.13h6.09V224h-2.23Z"/><path class="cls-19" d="M238.88,214.45h-1.06a6.65,6.65,0,0,1-2.29.79v.88h2V224H235v1.13h6.08V224h-2.23Z"/><path class="cls-19" d="M202,214.25c-2.16,0-3.47,1.92-3.47,5.49s1.31,5.55,3.47,5.55,3.45-2,3.45-5.55S204.15,214.25,202,214.25Zm0,9.94c-1.27,0-2.11-1.33-2.11-4.45s.84-4.39,2.11-4.39,2.1,1.27,2.1,4.39S203.25,224.19,202,224.19Z"/><path class="cls-19" d="M256,214.25c-2.17,0-3.47,1.92-3.47,5.49s1.3,5.55,3.47,5.55,3.44-2,3.44-5.55S258.17,214.25,256,214.25Zm0,9.94c-1.27,0-2.12-1.33-2.12-4.45s.85-4.39,2.12-4.39,2.09,1.27,2.09,4.39S257.28,224.19,256,224.19Z"/><path class="cls-19" d="M274.51,214.25c-2.17,0-3.47,1.92-3.47,5.49s1.3,5.55,3.47,5.55,3.45-2,3.45-5.55S276.66,214.25,274.51,214.25Zm0,9.94c-1.27,0-2.11-1.33-2.11-4.45s.84-4.39,2.11-4.39,2.1,1.27,2.1,4.39S275.76,224.19,274.51,224.19Z"/><path class="cls-19" d="M185.38,233.22h-1.06A6.45,6.45,0,0,1,182,234v.89h2v7.84h-2.47v1.13h6.09v-1.13h-2.23Z"/><path class="cls-19" d="M237.9,233c-2.16,0-3.47,1.92-3.47,5.49s1.31,5.55,3.47,5.55,3.45-2,3.45-5.55S240.05,233,237.9,233Zm0,9.94c-1.27,0-2.11-1.33-2.11-4.45s.84-4.39,2.11-4.39,2.1,1.27,2.1,4.39S239.15,243,237.9,243Z"/><path class="cls-19" d="M202,233c-2.16,0-3.47,1.92-3.47,5.49s1.31,5.55,3.47,5.55,3.45-2,3.45-5.55S204.15,233,202,233Zm0,9.94c-1.27,0-2.11-1.33-2.11-4.45s.84-4.39,2.11-4.39,2.1,1.27,2.1,4.39S203.25,243,202,243Z"/><path class="cls-19" d="M256,233c-2.17,0-3.47,1.92-3.47,5.49s1.3,5.55,3.47,5.55,3.44-2,3.44-5.55S258.17,233,256,233Zm0,9.94c-1.27,0-2.12-1.33-2.12-4.45s.85-4.39,2.12-4.39,2.09,1.27,2.09,4.39S257.28,243,256,243Z"/><path class="cls-19" d="M185.38,251.26h-1.06A6.45,6.45,0,0,1,182,252v.89h2v7.84h-2.47v1.13h6.09v-1.13h-2.23Z"/><path class="cls-19" d="M220.23,251.26h-1.07a6.33,6.33,0,0,1-2.28.78v.89h2v7.84h-2.47v1.13h6.09v-1.13h-2.23Z"/><path class="cls-19" d="M238.88,251.26h-1.06a6.45,6.45,0,0,1-2.29.78v.89h2v7.84H235v1.13h6.08v-1.13h-2.23Z"/><path class="cls-19" d="M202,251.06c-2.16,0-3.47,1.92-3.47,5.49s1.31,5.55,3.47,5.55,3.45-2,3.45-5.55S204.15,251.06,202,251.06Zm0,9.94c-1.27,0-2.11-1.34-2.11-4.45s.84-4.39,2.11-4.39,2.1,1.27,2.1,4.39S203.25,261,202,261Z"/><path class="cls-19" d="M256,251.06c-2.17,0-3.47,1.92-3.47,5.49s1.3,5.55,3.47,5.55,3.44-2,3.44-5.55S258.17,251.06,256,251.06Zm0,9.94c-1.27,0-2.12-1.34-2.12-4.45s.85-4.39,2.12-4.39,2.09,1.27,2.09,4.39S257.28,261,256,261Z"/><path class="cls-19" d="M275.49,251.26h-1.07a6.33,6.33,0,0,1-2.28.78v.89h2v7.84h-2.47v1.13h6.09v-1.13h-2.23Z"/><path class="cls-19" d="M184.4,269.83c-2.16,0-3.47,1.91-3.47,5.48s1.31,5.56,3.47,5.56,3.45-2,3.45-5.56S186.55,269.83,184.4,269.83Zm0,9.94c-1.27,0-2.11-1.34-2.11-4.46s.84-4.38,2.11-4.38,2.1,1.26,2.1,4.38S185.65,279.77,184.4,279.77Z"/><path class="cls-19" d="M220.23,270h-1.07a6.52,6.52,0,0,1-2.28.78v.88h2v7.84h-2.47v1.14h6.09v-1.14h-2.23Z"/><path class="cls-19" d="M237.9,269.83c-2.16,0-3.47,1.91-3.47,5.48s1.31,5.56,3.47,5.56,3.45-2,3.45-5.56S240.05,269.83,237.9,269.83Zm0,9.94c-1.27,0-2.11-1.34-2.11-4.46s.84-4.38,2.11-4.38,2.1,1.26,2.1,4.38S239.15,279.77,237.9,279.77Z"/><path class="cls-19" d="M202,269.83c-2.16,0-3.47,1.91-3.47,5.48s1.31,5.56,3.47,5.56,3.45-2,3.45-5.56S204.15,269.83,202,269.83Zm0,9.94c-1.27,0-2.11-1.34-2.11-4.46s.84-4.38,2.11-4.38,2.1,1.26,2.1,4.38S203.25,279.77,202,279.77Z"/><path class="cls-19" d="M257,270h-1.07a6.52,6.52,0,0,1-2.28.78v.88h2v7.84h-2.47v1.14h6.09v-1.14H257Z"/><path class="cls-19" d="M274.51,269.83c-2.17,0-3.47,1.91-3.47,5.48s1.3,5.56,3.47,5.56,3.45-2,3.45-5.56S276.66,269.83,274.51,269.83Zm0,9.94c-1.27,0-2.11-1.34-2.11-4.46s.84-4.38,2.11-4.38,2.1,1.26,2.1,4.38S275.76,279.77,274.51,279.77Z"/><path class="cls-19" d="M185.38,288.79h-1.06a6.45,6.45,0,0,1-2.29.78v.89h2v7.84h-2.47v1.13h6.09V298.3h-2.23Z"/><path class="cls-19" d="M219.25,288.59c-2.17,0-3.47,1.92-3.47,5.49s1.3,5.55,3.47,5.55,3.44-2,3.44-5.55S221.39,288.59,219.25,288.59Zm0,9.94c-1.27,0-2.12-1.33-2.12-4.45s.85-4.39,2.12-4.39,2.09,1.27,2.09,4.39S220.5,298.53,219.25,298.53Z"/><path class="cls-19" d="M238.88,288.79h-1.06a6.45,6.45,0,0,1-2.29.78v.89h2v7.84H235v1.13h6.08V298.3h-2.23Z"/><path class="cls-19" d="M202,288.59c-2.16,0-3.47,1.92-3.47,5.49s1.31,5.55,3.47,5.55,3.45-2,3.45-5.55S204.15,288.59,202,288.59Zm0,9.94c-1.27,0-2.11-1.33-2.11-4.45s.84-4.39,2.11-4.39,2.1,1.27,2.1,4.39S203.25,298.53,202,298.53Z"/><path class="cls-19" d="M256,288.59c-2.17,0-3.47,1.92-3.47,5.49s1.3,5.55,3.47,5.55,3.44-2,3.44-5.55S258.17,288.59,256,288.59Zm0,9.94c-1.27,0-2.12-1.33-2.12-4.45s.85-4.39,2.12-4.39,2.09,1.27,2.09,4.39S257.28,298.53,256,298.53Z"/><path class="cls-19" d="M275.49,288.79h-1.07a6.33,6.33,0,0,1-2.28.78v.89h2v7.84h-2.47v1.13h6.09V298.3h-2.23Z"/><path class="cls-19" d="M184.4,307.36c-2.16,0-3.47,1.92-3.47,5.48s1.31,5.56,3.47,5.56,3.45-2,3.45-5.56S186.55,307.36,184.4,307.36Zm0,9.94c-1.27,0-2.11-1.34-2.11-4.46s.84-4.38,2.11-4.38,2.1,1.27,2.1,4.38S185.65,317.3,184.4,317.3Z"/><path class="cls-19" d="M220.23,307.56h-1.07a6.33,6.33,0,0,1-2.28.78v.89h2v7.83h-2.47v1.14h6.09v-1.14h-2.23Z"/><path class="cls-19" d="M202,307.36c-2.16,0-3.47,1.92-3.47,5.48s1.31,5.56,3.47,5.56,3.45-2,3.45-5.56S204.15,307.36,202,307.36Zm0,9.94c-1.27,0-2.11-1.34-2.11-4.46s.84-4.38,2.11-4.38,2.1,1.27,2.1,4.38S203.25,317.3,202,317.3Z"/><path class="cls-19" d="M256,307.36c-2.17,0-3.47,1.92-3.47,5.48s1.3,5.56,3.47,5.56,3.44-2,3.44-5.56S258.17,307.36,256,307.36Zm0,9.94c-1.27,0-2.12-1.34-2.12-4.46s.85-4.38,2.12-4.38,2.09,1.27,2.09,4.38S257.28,317.3,256,317.3Z"/><path class="cls-19" d="M274.51,307.36c-2.17,0-3.47,1.92-3.47,5.48s1.3,5.56,3.47,5.56,3.45-2,3.45-5.56S276.66,307.36,274.51,307.36Zm0,9.94c-1.27,0-2.11-1.34-2.11-4.46s.84-4.38,2.11-4.38,2.1,1.27,2.1,4.38S275.76,317.3,274.51,317.3Z"/><path class="cls-19" d="M294.15,158.15h-1.06a6.51,6.51,0,0,1-2.28.79v.88h2v7.84H290.3v1.13h6.09v-1.13h-2.24Z"/><path class="cls-19" d="M329,158.15h-1.07a6.51,6.51,0,0,1-2.28.79v.88h2v7.84h-2.47v1.13h6.09v-1.13H329Z"/><path class="cls-19" d="M347.65,158.15h-1.06a6.51,6.51,0,0,1-2.28.79v.88h2v7.84H343.8v1.13h6.09v-1.13h-2.24Z"/><path class="cls-19" d="M310.77,158c-2.16,0-3.47,1.92-3.47,5.49s1.31,5.55,3.47,5.55,3.45-2,3.45-5.55S312.92,158,310.77,158Zm0,9.94c-1.27,0-2.11-1.33-2.11-4.45s.84-4.39,2.11-4.39,2.1,1.27,2.1,4.39S312,167.89,310.77,167.89Z"/><path class="cls-19" d="M364.8,158c-2.17,0-3.47,1.92-3.47,5.49s1.3,5.55,3.47,5.55,3.44-2,3.44-5.55S366.94,158,364.8,158Zm0,9.94c-1.27,0-2.12-1.33-2.12-4.45s.85-4.39,2.12-4.39,2.09,1.27,2.09,4.39S366.05,167.89,364.8,167.89Z"/><path class="cls-19" d="M329,176.92h-1.07a6.33,6.33,0,0,1-2.28.78v.89h2v7.84h-2.47v1.13h6.09v-1.13H329Z"/><path class="cls-19" d="M346.67,176.72c-2.16,0-3.46,1.92-3.46,5.49s1.3,5.55,3.46,5.55,3.45-2,3.45-5.55S348.82,176.72,346.67,176.72Zm0,9.94c-1.27,0-2.11-1.34-2.11-4.45s.84-4.39,2.11-4.39,2.1,1.27,2.1,4.39S347.92,186.66,346.67,186.66Z"/><path class="cls-19" d="M365.78,176.92h-1.07a6.33,6.33,0,0,1-2.28.78v.89h2v7.84h-2.47v1.13H368v-1.13h-2.23Z"/><path class="cls-19" d="M383.28,176.72c-2.16,0-3.47,1.92-3.47,5.49s1.31,5.55,3.47,5.55,3.45-2,3.45-5.55S385.43,176.72,383.28,176.72Zm0,9.94c-1.27,0-2.11-1.34-2.11-4.45s.84-4.39,2.11-4.39,2.1,1.27,2.1,4.39S384.53,186.66,383.28,186.66Z"/><path class="cls-19" d="M328,195.49c-2.17,0-3.47,1.92-3.47,5.48s1.3,5.56,3.47,5.56,3.45-2,3.45-5.56S330.16,195.49,328,195.49Zm0,9.94c-1.27,0-2.12-1.34-2.12-4.46s.85-4.38,2.12-4.38,2.09,1.27,2.09,4.38S329.27,205.43,328,205.43Z"/><path class="cls-19" d="M347.65,195.69h-1.06a6.52,6.52,0,0,1-2.28.78v.89h2v7.83H343.8v1.14h6.09v-1.14h-2.24Z"/><path class="cls-19" d="M364.8,195.49c-2.17,0-3.47,1.92-3.47,5.48s1.3,5.56,3.47,5.56,3.44-2,3.44-5.56S366.94,195.49,364.8,195.49Zm0,9.94c-1.27,0-2.12-1.34-2.12-4.46s.85-4.38,2.12-4.38,2.09,1.27,2.09,4.38S366.05,205.43,364.8,205.43Z"/><path class="cls-19" d="M384.26,195.69H383.2a6.58,6.58,0,0,1-2.29.78v.89h2v7.83h-2.46v1.14h6.08v-1.14h-2.23Z"/><path class="cls-19" d="M293.17,214.25c-2.16,0-3.46,1.92-3.46,5.49s1.3,5.56,3.46,5.56,3.45-2,3.45-5.56S295.32,214.25,293.17,214.25Zm0,9.94c-1.27,0-2.11-1.33-2.11-4.45s.84-4.38,2.11-4.38,2.1,1.26,2.1,4.38S294.42,224.19,293.17,224.19Z"/><path class="cls-19" d="M329,214.46h-1.07a6.52,6.52,0,0,1-2.28.78v.88h2V224h-2.47v1.14h6.09V224H329Z"/><path class="cls-19" d="M347.65,214.46h-1.06a6.52,6.52,0,0,1-2.28.78v.88h2V224H343.8v1.14h6.09V224h-2.24Z"/><path class="cls-19" d="M310.77,214.25c-2.16,0-3.47,1.92-3.47,5.49s1.31,5.56,3.47,5.56,3.45-2,3.45-5.56S312.92,214.25,310.77,214.25Zm0,9.94c-1.27,0-2.11-1.33-2.11-4.45s.84-4.38,2.11-4.38,2.1,1.26,2.1,4.38S312,224.19,310.77,224.19Z"/><path class="cls-19" d="M383.28,214.25c-2.16,0-3.47,1.92-3.47,5.49s1.31,5.56,3.47,5.56,3.45-2,3.45-5.56S385.43,214.25,383.28,214.25Zm0,9.94c-1.27,0-2.11-1.33-2.11-4.45s.84-4.38,2.11-4.38,2.1,1.26,2.1,4.38S384.53,224.19,383.28,224.19Z"/><path class="cls-19" d="M294.15,251.26h-1.06a6.33,6.33,0,0,1-2.28.78v.89h2v7.84H290.3v1.13h6.09v-1.13h-2.24Z"/><path class="cls-19" d="M329,251.26h-1.07a6.33,6.33,0,0,1-2.28.78v.89h2v7.84h-2.47v1.13h6.09v-1.13H329Z"/><path class="cls-19" d="M347.65,251.26h-1.06a6.33,6.33,0,0,1-2.28.78v.89h2v7.84H343.8v1.13h6.09v-1.13h-2.24Z"/><path class="cls-19" d="M310.77,251.06c-2.16,0-3.47,1.92-3.47,5.49s1.31,5.55,3.47,5.55,3.45-2,3.45-5.55S312.92,251.06,310.77,251.06Zm0,9.94c-1.27,0-2.11-1.33-2.11-4.45s.84-4.39,2.11-4.39,2.1,1.27,2.1,4.39S312,261,310.77,261Z"/><path class="cls-19" d="M364.8,251.06c-2.17,0-3.47,1.92-3.47,5.49s1.3,5.55,3.47,5.55,3.44-2,3.44-5.55S366.94,251.06,364.8,251.06Zm0,9.94c-1.27,0-2.12-1.33-2.12-4.45s.85-4.39,2.12-4.39,2.09,1.27,2.09,4.39S366.05,261,364.8,261Z"/><path class="cls-19" d="M384.26,251.26H383.2a6.38,6.38,0,0,1-2.29.78v.89h2v7.84h-2.46v1.13h6.08v-1.13h-2.23Z"/><path class="cls-19" d="M293.17,269.83c-2.16,0-3.46,1.91-3.46,5.48s1.3,5.56,3.46,5.56,3.45-2,3.45-5.56S295.32,269.83,293.17,269.83Zm0,9.94c-1.27,0-2.11-1.34-2.11-4.46s.84-4.38,2.11-4.38,2.1,1.26,2.1,4.38S294.42,279.77,293.17,279.77Z"/><path class="cls-19" d="M329,270h-1.07a6.52,6.52,0,0,1-2.28.78v.88h2v7.84h-2.47v1.14h6.09v-1.14H329Z"/><path class="cls-19" d="M346.67,269.83c-2.16,0-3.46,1.91-3.46,5.48s1.3,5.56,3.46,5.56,3.45-2,3.45-5.56S348.82,269.83,346.67,269.83Zm0,9.94c-1.27,0-2.11-1.34-2.11-4.46s.84-4.38,2.11-4.38,2.1,1.26,2.1,4.38S347.92,279.77,346.67,279.77Z"/><path class="cls-19" d="M310.77,269.83c-2.16,0-3.47,1.91-3.47,5.48s1.31,5.56,3.47,5.56,3.45-2,3.45-5.56S312.92,269.83,310.77,269.83Zm0,9.94c-1.27,0-2.11-1.34-2.11-4.46s.84-4.38,2.11-4.38,2.1,1.26,2.1,4.38S312,279.77,310.77,279.77Z"/><path class="cls-19" d="M365.78,270h-1.07a6.52,6.52,0,0,1-2.28.78v.88h2v7.84h-2.47v1.14H368v-1.14h-2.23Z"/><path class="cls-19" d="M328,288.59c-2.17,0-3.47,1.92-3.47,5.49s1.3,5.55,3.47,5.55,3.45-2,3.45-5.55S330.16,288.59,328,288.59Zm0,9.94c-1.27,0-2.12-1.33-2.12-4.45s.85-4.39,2.12-4.39,2.09,1.27,2.09,4.39S329.27,298.53,328,298.53Z"/><path class="cls-19" d="M347.65,288.79h-1.06a6.51,6.51,0,0,1-2.28.79v.88h2v7.84H343.8v1.13h6.09V298.3h-2.24Z"/><path class="cls-19" d="M364.8,288.59c-2.17,0-3.47,1.92-3.47,5.49s1.3,5.55,3.47,5.55,3.44-2,3.44-5.55S366.94,288.59,364.8,288.59Zm0,9.94c-1.27,0-2.12-1.33-2.12-4.45s.85-4.39,2.12-4.39,2.09,1.27,2.09,4.39S366.05,298.53,364.8,298.53Z"/><path class="cls-19" d="M384.26,288.79H383.2a6.57,6.57,0,0,1-2.29.79v.88h2v7.84h-2.46v1.13h6.08V298.3h-2.23Z"/><path class="cls-19" d="M293.17,307.36c-2.16,0-3.46,1.92-3.46,5.48s1.3,5.56,3.46,5.56,3.45-2,3.45-5.56S295.32,307.36,293.17,307.36Zm0,9.94c-1.27,0-2.11-1.34-2.11-4.46s.84-4.38,2.11-4.38,2.1,1.27,2.1,4.38S294.42,317.3,293.17,317.3Z"/><path class="cls-19" d="M329,307.56h-1.07a6.33,6.33,0,0,1-2.28.78v.89h2v7.83h-2.47v1.14h6.09v-1.14H329Z"/><path class="cls-19" d="M347.65,307.56h-1.06a6.33,6.33,0,0,1-2.28.78v.89h2v7.83H343.8v1.14h6.09v-1.14h-2.24Z"/><path class="cls-19" d="M310.77,307.36c-2.16,0-3.47,1.92-3.47,5.48s1.31,5.56,3.47,5.56,3.45-2,3.45-5.56S312.92,307.36,310.77,307.36Zm0,9.94c-1.27,0-2.11-1.34-2.11-4.46s.84-4.38,2.11-4.38,2.1,1.27,2.1,4.38S312,317.3,310.77,317.3Z"/><path class="cls-19" d="M364.8,307.36c-2.17,0-3.47,1.92-3.47,5.48s1.3,5.56,3.47,5.56,3.44-2,3.44-5.56S366.94,307.36,364.8,307.36Zm0,9.94c-1.27,0-2.12-1.34-2.12-4.46s.85-4.38,2.12-4.38,2.09,1.27,2.09,4.38S366.05,317.3,364.8,317.3Z"/><path class="cls-19" d="M383.28,307.36c-2.16,0-3.47,1.92-3.47,5.48s1.31,5.56,3.47,5.56,3.45-2,3.45-5.56S385.43,307.36,383.28,307.36Zm0,9.94c-1.27,0-2.11-1.34-2.11-4.46s.84-4.38,2.11-4.38,2.1,1.27,2.1,4.38S384.53,317.3,383.28,317.3Z"/><path class="cls-19" d="M402.92,158.06h-1.06a6.51,6.51,0,0,1-2.28.79v.88h2v7.84h-2.47v1.13h6.09v-1.13h-2.24Z"/><path class="cls-19" d="M437.77,158.06h-1.06a6.57,6.57,0,0,1-2.29.79v.88h2v7.84h-2.47v1.13H440v-1.13h-2.23Z"/><path class="cls-19" d="M419.54,157.86c-2.16,0-3.46,1.92-3.46,5.49s1.3,5.55,3.46,5.55,3.45-2,3.45-5.55S421.69,157.86,419.54,157.86Zm0,9.94c-1.26,0-2.11-1.33-2.11-4.45s.85-4.39,2.11-4.39,2.1,1.27,2.1,4.39S420.8,167.8,419.54,167.8Z"/><path class="cls-19" d="M401.94,176.63c-2.16,0-3.46,1.92-3.46,5.49s1.3,5.55,3.46,5.55,3.45-2,3.45-5.55S404.09,176.63,401.94,176.63Zm0,9.94c-1.27,0-2.11-1.34-2.11-4.45s.84-4.39,2.11-4.39,2.1,1.27,2.1,4.39S403.19,186.57,401.94,186.57Z"/><path class="cls-19" d="M437.77,176.83h-1.06a6.38,6.38,0,0,1-2.29.78v.89h2v7.84h-2.47v1.13H440v-1.13h-2.23Z"/><path class="cls-19" d="M455.44,176.63c-2.16,0-3.46,1.92-3.46,5.49s1.3,5.55,3.46,5.55,3.45-2,3.45-5.55S457.59,176.63,455.44,176.63Zm0,9.94c-1.26,0-2.11-1.34-2.11-4.45s.85-4.39,2.11-4.39,2.1,1.27,2.1,4.39S456.69,186.57,455.44,186.57Z"/><path class="cls-19" d="M419.54,176.63c-2.16,0-3.46,1.92-3.46,5.49s1.3,5.55,3.46,5.55,3.45-2,3.45-5.55S421.69,176.63,419.54,176.63Zm0,9.94c-1.26,0-2.11-1.34-2.11-4.45s.85-4.39,2.11-4.39,2.1,1.27,2.1,4.39S420.8,186.57,419.54,186.57Z"/><path class="cls-19" d="M474.55,176.83h-1.06a6.38,6.38,0,0,1-2.29.78v.89h2v7.84H470.7v1.13h6.08v-1.13h-2.23Z"/><path class="cls-19" d="M492.05,176.63c-2.16,0-3.47,1.92-3.47,5.49s1.31,5.55,3.47,5.55,3.45-2,3.45-5.55S494.2,176.63,492.05,176.63Zm0,9.94c-1.27,0-2.11-1.34-2.11-4.45s.84-4.39,2.11-4.39,2.1,1.27,2.1,4.39S493.3,186.57,492.05,186.57Z"/><path class="cls-19" d="M402.92,195.6h-1.06a6.52,6.52,0,0,1-2.28.78v.89h2v7.83h-2.47v1.14h6.09V205.1h-2.24Z"/><path class="cls-19" d="M436.79,195.4c-2.16,0-3.47,1.91-3.47,5.48s1.31,5.56,3.47,5.56,3.45-2,3.45-5.56S438.94,195.4,436.79,195.4Zm0,9.94c-1.27,0-2.11-1.34-2.11-4.46s.84-4.38,2.11-4.38,2.1,1.27,2.1,4.38S438,205.34,436.79,205.34Z"/><path class="cls-19" d="M456.42,195.6h-1.06a6.52,6.52,0,0,1-2.28.78v.89h2v7.83h-2.47v1.14h6.09V205.1h-2.24Z"/><path class="cls-19" d="M419.54,195.4c-2.16,0-3.46,1.91-3.46,5.48s1.3,5.56,3.46,5.56,3.45-2,3.45-5.56S421.69,195.4,419.54,195.4Zm0,9.94c-1.26,0-2.11-1.34-2.11-4.46s.85-4.38,2.11-4.38,2.1,1.27,2.1,4.38S420.8,205.34,419.54,205.34Z"/><path class="cls-19" d="M473.57,195.4c-2.16,0-3.47,1.91-3.47,5.48s1.31,5.56,3.47,5.56,3.45-2,3.45-5.56S475.72,195.4,473.57,195.4Zm0,9.94c-1.27,0-2.11-1.34-2.11-4.46s.84-4.38,2.11-4.38,2.1,1.27,2.1,4.38S474.82,205.34,473.57,205.34Z"/><path class="cls-19" d="M493,195.6H492a6.58,6.58,0,0,1-2.29.78v.89h2v7.83h-2.47v1.14h6.08V205.1H493Z"/><path class="cls-19" d="M401.94,214.16c-2.16,0-3.46,1.92-3.46,5.49s1.3,5.55,3.46,5.55,3.45-2,3.45-5.55S404.09,214.16,401.94,214.16Zm0,9.94c-1.27,0-2.11-1.33-2.11-4.45s.84-4.38,2.11-4.38,2.1,1.26,2.1,4.38S403.19,224.1,401.94,224.1Z"/><path class="cls-19" d="M437.77,214.36h-1.06a6.57,6.57,0,0,1-2.29.79V216h2v7.84h-2.47V225H440v-1.13h-2.23Z"/><path class="cls-19" d="M456.42,214.36h-1.06a6.51,6.51,0,0,1-2.28.79V216h2v7.84h-2.47V225h6.09v-1.13h-2.24Z"/><path class="cls-19" d="M419.54,214.16c-2.16,0-3.46,1.92-3.46,5.49s1.3,5.55,3.46,5.55,3.45-2,3.45-5.55S421.69,214.16,419.54,214.16Zm0,9.94c-1.26,0-2.11-1.33-2.11-4.45s.85-4.38,2.11-4.38,2.1,1.26,2.1,4.38S420.8,224.1,419.54,224.1Z"/><path class="cls-19" d="M473.57,214.16c-2.16,0-3.47,1.92-3.47,5.49s1.31,5.55,3.47,5.55,3.45-2,3.45-5.55S475.72,214.16,473.57,214.16Zm0,9.94c-1.27,0-2.11-1.33-2.11-4.45s.84-4.38,2.11-4.38,2.1,1.26,2.1,4.38S474.82,224.1,473.57,224.1Z"/><path class="cls-19" d="M492.05,214.16c-2.16,0-3.47,1.92-3.47,5.49s1.31,5.55,3.47,5.55,3.45-2,3.45-5.55S494.2,214.16,492.05,214.16Zm0,9.94c-1.27,0-2.11-1.33-2.11-4.45s.84-4.38,2.11-4.38,2.1,1.26,2.1,4.38S493.3,224.1,492.05,224.1Z"/><path class="cls-19" d="M402.92,251.17h-1.06a6.33,6.33,0,0,1-2.28.78v.89h2v7.84h-2.47v1.13h6.09v-1.13h-2.24Z"/><path class="cls-19" d="M437.77,251.17h-1.06a6.38,6.38,0,0,1-2.29.78v.89h2v7.84h-2.47v1.13H440v-1.13h-2.23Z"/><path class="cls-19" d="M456.42,251.17h-1.06a6.33,6.33,0,0,1-2.28.78v.89h2v7.84h-2.47v1.13h6.09v-1.13h-2.24Z"/><path class="cls-19" d="M419.54,251c-2.16,0-3.46,1.92-3.46,5.49s1.3,5.55,3.46,5.55,3.45-2,3.45-5.55S421.69,251,419.54,251Zm0,9.94c-1.26,0-2.11-1.34-2.11-4.45s.85-4.39,2.11-4.39,2.1,1.27,2.1,4.39S420.8,260.91,419.54,260.91Z"/><path class="cls-19" d="M473.57,251c-2.16,0-3.47,1.92-3.47,5.49s1.31,5.55,3.47,5.55,3.45-2,3.45-5.55S475.72,251,473.57,251Zm0,9.94c-1.27,0-2.11-1.34-2.11-4.45s.84-4.39,2.11-4.39,2.1,1.27,2.1,4.39S474.82,260.91,473.57,260.91Z"/><path class="cls-19" d="M493,251.17H492a6.38,6.38,0,0,1-2.29.78v.89h2v7.84h-2.47v1.13h6.08v-1.13H493Z"/><path class="cls-19" d="M401.94,269.73c-2.16,0-3.46,1.92-3.46,5.49s1.3,5.56,3.46,5.56,3.45-2,3.45-5.56S404.09,269.73,401.94,269.73Zm0,9.95c-1.27,0-2.11-1.34-2.11-4.46s.84-4.38,2.11-4.38,2.1,1.26,2.1,4.38S403.19,279.68,401.94,279.68Z"/><path class="cls-19" d="M455.44,269.73c-2.16,0-3.46,1.92-3.46,5.49s1.3,5.56,3.46,5.56,3.45-2,3.45-5.56S457.59,269.73,455.44,269.73Zm0,9.95c-1.26,0-2.11-1.34-2.11-4.46s.85-4.38,2.11-4.38,2.1,1.26,2.1,4.38S456.69,279.68,455.44,279.68Z"/><path class="cls-19" d="M474.55,269.94h-1.06a6.8,6.8,0,0,1-2.29.78v.88h2v7.84H470.7v1.14h6.08v-1.14h-2.23Z"/><path class="cls-19" d="M492.05,269.73c-2.16,0-3.47,1.92-3.47,5.49s1.31,5.56,3.47,5.56,3.45-2,3.45-5.56S494.2,269.73,492.05,269.73Zm0,9.95c-1.27,0-2.11-1.34-2.11-4.46s.84-4.38,2.11-4.38,2.1,1.26,2.1,4.38S493.3,279.68,492.05,279.68Z"/><path class="cls-19" d="M473.57,288.5c-2.16,0-3.47,1.92-3.47,5.49s1.31,5.55,3.47,5.55,3.45-2,3.45-5.55S475.72,288.5,473.57,288.5Zm0,9.94c-1.27,0-2.11-1.33-2.11-4.45s.84-4.39,2.11-4.39,2.1,1.27,2.1,4.39S474.82,298.44,473.57,298.44Z"/><path class="cls-19" d="M493,288.7H492a6.57,6.57,0,0,1-2.29.79v.88h2v7.84h-2.47v1.13h6.08v-1.13H493Z"/><path class="cls-19" d="M473.57,307.27c-2.16,0-3.47,1.92-3.47,5.48s1.31,5.56,3.47,5.56,3.45-2,3.45-5.56S475.72,307.27,473.57,307.27Zm0,9.94c-1.27,0-2.11-1.34-2.11-4.46s.84-4.38,2.11-4.38,2.1,1.27,2.1,4.38S474.82,317.21,473.57,317.21Z"/><path class="cls-19" d="M492.05,307.27c-2.16,0-3.47,1.92-3.47,5.48s1.31,5.56,3.47,5.56,3.45-2,3.45-5.56S494.2,307.27,492.05,307.27Zm0,9.94c-1.27,0-2.11-1.34-2.11-4.46s.84-4.38,2.11-4.38,2.1,1.27,2.1,4.38S493.3,317.21,492.05,317.21Z"/><path class="cls-19" d="M546.54,158h-1.06a6.5,6.5,0,0,1-2.29.79v.88h2v7.84h-2.47v1.13h6.08v-1.13h-2.23Z"/><path class="cls-19" d="M565.2,158h-1.07a6.51,6.51,0,0,1-2.28.79v.88h2v7.84h-2.47v1.13h6.09v-1.13H565.2Z"/><path class="cls-19" d="M528.31,157.77c-2.16,0-3.46,1.92-3.46,5.49s1.3,5.55,3.46,5.55,3.45-2,3.45-5.55S530.46,157.77,528.31,157.77Zm0,9.94c-1.26,0-2.11-1.33-2.11-4.45s.85-4.39,2.11-4.39,2.1,1.27,2.1,4.39S529.57,167.71,528.31,167.71Z"/><path class="cls-19" d="M582.34,157.77c-2.16,0-3.47,1.92-3.47,5.49s1.31,5.55,3.47,5.55,3.45-2,3.45-5.55S584.49,157.77,582.34,157.77Zm0,9.94c-1.27,0-2.11-1.33-2.11-4.45s.84-4.39,2.11-4.39,2.1,1.27,2.1,4.39S583.59,167.71,582.34,167.71Z"/><path class="cls-19" d="M601.81,158h-1.07a6.51,6.51,0,0,1-2.28.79v.88h2v7.84H598v1.13H604v-1.13h-2.23Z"/><path class="cls-19" d="M510.72,176.54c-2.17,0-3.47,1.92-3.47,5.49s1.3,5.55,3.47,5.55,3.45-2,3.45-5.55S512.86,176.54,510.72,176.54Zm0,9.94c-1.27,0-2.12-1.34-2.12-4.45s.85-4.39,2.12-4.39,2.09,1.27,2.09,4.39S512,186.48,510.72,186.48Z"/><path class="cls-19" d="M546.54,176.74h-1.06a6.31,6.31,0,0,1-2.29.78v.89h2v7.83h-2.47v1.14h6.08v-1.14h-2.23Z"/><path class="cls-19" d="M564.22,176.54c-2.17,0-3.47,1.92-3.47,5.49s1.3,5.55,3.47,5.55,3.45-2,3.45-5.55S566.36,176.54,564.22,176.54Zm0,9.94c-1.27,0-2.12-1.34-2.12-4.45s.85-4.39,2.12-4.39,2.09,1.27,2.09,4.39S565.47,186.48,564.22,186.48Z"/><path class="cls-19" d="M528.31,176.54c-2.16,0-3.46,1.92-3.46,5.49s1.3,5.55,3.46,5.55,3.45-2,3.45-5.55S530.46,176.54,528.31,176.54Zm0,9.94c-1.26,0-2.11-1.34-2.11-4.45s.85-4.39,2.11-4.39,2.1,1.27,2.1,4.39S529.57,186.48,528.31,186.48Z"/><path class="cls-19" d="M583.32,176.74h-1.06a6.38,6.38,0,0,1-2.29.78v.89h2v7.83h-2.47v1.14h6.08v-1.14h-2.23Z"/><path class="cls-19" d="M600.83,176.54c-2.17,0-3.47,1.92-3.47,5.49s1.3,5.55,3.47,5.55,3.44-2,3.44-5.55S603,176.54,600.83,176.54Zm0,9.94c-1.27,0-2.12-1.34-2.12-4.45s.85-4.39,2.12-4.39,2.09,1.27,2.09,4.39S602.08,186.48,600.83,186.48Z"/><path class="cls-19" d="M511.7,195.51h-1.07a6.52,6.52,0,0,1-2.28.78v.88h2V205h-2.47v1.14h6.09V205H511.7Z"/><path class="cls-19" d="M545.56,195.31c-2.16,0-3.46,1.91-3.46,5.48s1.3,5.56,3.46,5.56,3.45-2,3.45-5.56S547.71,195.31,545.56,195.31Zm0,9.94c-1.27,0-2.11-1.34-2.11-4.46s.84-4.38,2.11-4.38,2.1,1.26,2.1,4.38S546.81,205.25,545.56,205.25Z"/><path class="cls-19" d="M565.2,195.51h-1.07a6.52,6.52,0,0,1-2.28.78v.88h2V205h-2.47v1.14h6.09V205H565.2Z"/><path class="cls-19" d="M528.31,195.31c-2.16,0-3.46,1.91-3.46,5.48s1.3,5.56,3.46,5.56,3.45-2,3.45-5.56S530.46,195.31,528.31,195.31Zm0,9.94c-1.26,0-2.11-1.34-2.11-4.46s.85-4.38,2.11-4.38,2.1,1.26,2.1,4.38S529.57,205.25,528.31,205.25Z"/><path class="cls-19" d="M582.34,195.31c-2.16,0-3.47,1.91-3.47,5.48s1.31,5.56,3.47,5.56,3.45-2,3.45-5.56S584.49,195.31,582.34,195.31Zm0,9.94c-1.27,0-2.11-1.34-2.11-4.46s.84-4.38,2.11-4.38,2.1,1.26,2.1,4.38S583.59,205.25,582.34,205.25Z"/><path class="cls-19" d="M601.81,195.51h-1.07a6.52,6.52,0,0,1-2.28.78v.88h2V205H598v1.14H604V205h-2.23Z"/><path class="cls-19" d="M510.72,214.07c-2.17,0-3.47,1.92-3.47,5.49s1.3,5.55,3.47,5.55,3.45-2,3.45-5.55S512.86,214.07,510.72,214.07Zm0,9.94c-1.27,0-2.12-1.33-2.12-4.45s.85-4.39,2.12-4.39,2.09,1.27,2.09,4.39S512,224,510.72,224Z"/><path class="cls-19" d="M546.54,214.27h-1.06a6.5,6.5,0,0,1-2.29.79v.88h2v7.84h-2.47v1.13h6.08v-1.13h-2.23Z"/><path class="cls-19" d="M565.2,214.27h-1.07a6.51,6.51,0,0,1-2.28.79v.88h2v7.84h-2.47v1.13h6.09v-1.13H565.2Z"/><path class="cls-19" d="M528.31,214.07c-2.16,0-3.46,1.92-3.46,5.49s1.3,5.55,3.46,5.55,3.45-2,3.45-5.55S530.46,214.07,528.31,214.07Zm0,9.94c-1.26,0-2.11-1.33-2.11-4.45s.85-4.39,2.11-4.39,2.1,1.27,2.1,4.39S529.57,224,528.31,224Z"/><path class="cls-19" d="M582.34,214.07c-2.16,0-3.47,1.92-3.47,5.49s1.31,5.55,3.47,5.55,3.45-2,3.45-5.55S584.49,214.07,582.34,214.07Zm0,9.94c-1.27,0-2.11-1.33-2.11-4.45s.84-4.39,2.11-4.39,2.1,1.27,2.1,4.39S583.59,224,582.34,224Z"/><path class="cls-19" d="M600.83,214.07c-2.17,0-3.47,1.92-3.47,5.49s1.3,5.55,3.47,5.55,3.44-2,3.44-5.55S603,214.07,600.83,214.07Zm0,9.94c-1.27,0-2.12-1.33-2.12-4.45s.85-4.39,2.12-4.39,2.09,1.27,2.09,4.39S602.08,224,600.83,224Z"/><path class="cls-19" d="M511.7,233h-1.07a6.33,6.33,0,0,1-2.28.78v.89h2v7.84h-2.47v1.13h6.09v-1.13H511.7Z"/><path class="cls-19" d="M546.54,233h-1.06a6.31,6.31,0,0,1-2.29.78v.89h2v7.84h-2.47v1.13h6.08v-1.13h-2.23Z"/><path class="cls-19" d="M564.22,232.84c-2.17,0-3.47,1.92-3.47,5.49s1.3,5.55,3.47,5.55,3.45-2,3.45-5.55S566.36,232.84,564.22,232.84Zm0,9.94c-1.27,0-2.12-1.34-2.12-4.45s.85-4.39,2.12-4.39,2.09,1.27,2.09,4.39S565.47,242.78,564.22,242.78Z"/><path class="cls-19" d="M528.31,232.84c-2.16,0-3.46,1.92-3.46,5.49s1.3,5.55,3.46,5.55,3.45-2,3.45-5.55S530.46,232.84,528.31,232.84Zm0,9.94c-1.26,0-2.11-1.34-2.11-4.45s.85-4.39,2.11-4.39,2.1,1.27,2.1,4.39S529.57,242.78,528.31,242.78Z"/><path class="cls-19" d="M582.34,232.84c-2.16,0-3.47,1.92-3.47,5.49s1.31,5.55,3.47,5.55,3.45-2,3.45-5.55S584.49,232.84,582.34,232.84Zm0,9.94c-1.27,0-2.11-1.34-2.11-4.45s.84-4.39,2.11-4.39,2.1,1.27,2.1,4.39S583.59,242.78,582.34,242.78Z"/><path class="cls-19" d="M601.81,233h-1.07a6.33,6.33,0,0,1-2.28.78v.89h2v7.84H598v1.13H604v-1.13h-2.23Z"/><path class="cls-19" d="M511.7,251.08h-1.07a6.52,6.52,0,0,1-2.28.78v.89h2v7.83h-2.47v1.14h6.09v-1.14H511.7Z"/><path class="cls-19" d="M546.54,251.08h-1.06a6.51,6.51,0,0,1-2.29.78v.89h2v7.83h-2.47v1.14h6.08v-1.14h-2.23Z"/><path class="cls-19" d="M565.2,251.08h-1.07a6.52,6.52,0,0,1-2.28.78v.89h2v7.83h-2.47v1.14h6.09v-1.14H565.2Z"/><path class="cls-19" d="M528.31,250.88c-2.16,0-3.46,1.92-3.46,5.48s1.3,5.56,3.46,5.56,3.45-2,3.45-5.56S530.46,250.88,528.31,250.88Zm0,9.94c-1.26,0-2.11-1.34-2.11-4.46s.85-4.38,2.11-4.38,2.1,1.27,2.1,4.38S529.57,260.82,528.31,260.82Z"/><path class="cls-19" d="M582.34,250.88c-2.16,0-3.47,1.92-3.47,5.48s1.31,5.56,3.47,5.56,3.45-2,3.45-5.56S584.49,250.88,582.34,250.88Zm0,9.94c-1.27,0-2.11-1.34-2.11-4.46s.84-4.38,2.11-4.38,2.1,1.27,2.1,4.38S583.59,260.82,582.34,260.82Z"/><path class="cls-19" d="M601.81,251.08h-1.07a6.52,6.52,0,0,1-2.28.78v.89h2v7.83H598v1.14H604v-1.14h-2.23Z"/><path class="cls-19" d="M510.72,269.65c-2.17,0-3.47,1.91-3.47,5.48s1.3,5.56,3.47,5.56,3.45-2,3.45-5.56S512.86,269.65,510.72,269.65Zm0,9.94c-1.27,0-2.12-1.34-2.12-4.46s.85-4.38,2.12-4.38,2.09,1.26,2.09,4.38S512,279.59,510.72,279.59Z"/><path class="cls-19" d="M546.54,269.85h-1.06a6.51,6.51,0,0,1-2.29.78v.88h2v7.84h-2.47v1.14h6.08v-1.14h-2.23Z"/><path class="cls-19" d="M564.22,269.65c-2.17,0-3.47,1.91-3.47,5.48s1.3,5.56,3.47,5.56,3.45-2,3.45-5.56S566.36,269.65,564.22,269.65Zm0,9.94c-1.27,0-2.12-1.34-2.12-4.46s.85-4.38,2.12-4.38,2.09,1.26,2.09,4.38S565.47,279.59,564.22,279.59Z"/><path class="cls-19" d="M528.31,269.65c-2.16,0-3.46,1.91-3.46,5.48s1.3,5.56,3.46,5.56,3.45-2,3.45-5.56S530.46,269.65,528.31,269.65Zm0,9.94c-1.26,0-2.11-1.34-2.11-4.46s.85-4.38,2.11-4.38,2.1,1.26,2.1,4.38S529.57,279.59,528.31,279.59Z"/><path class="cls-19" d="M583.32,269.85h-1.06a6.58,6.58,0,0,1-2.29.78v.88h2v7.84h-2.47v1.14h6.08v-1.14h-2.23Z"/><path class="cls-19" d="M600.83,269.65c-2.17,0-3.47,1.91-3.47,5.48s1.3,5.56,3.47,5.56,3.44-2,3.44-5.56S603,269.65,600.83,269.65Zm0,9.94c-1.27,0-2.12-1.34-2.12-4.46s.85-4.38,2.12-4.38,2.09,1.26,2.09,4.38S602.08,279.59,600.83,279.59Z"/><path class="cls-19" d="M511.7,288.61h-1.07a6.51,6.51,0,0,1-2.28.79v.88h2v7.84h-2.47v1.13h6.09v-1.13H511.7Z"/><path class="cls-19" d="M545.56,288.41c-2.16,0-3.46,1.92-3.46,5.49s1.3,5.55,3.46,5.55,3.45-2,3.45-5.55S547.71,288.41,545.56,288.41Zm0,9.94c-1.27,0-2.11-1.33-2.11-4.45s.84-4.39,2.11-4.39,2.1,1.27,2.1,4.39S546.81,298.35,545.56,298.35Z"/><path class="cls-19" d="M565.2,288.61h-1.07a6.51,6.51,0,0,1-2.28.79v.88h2v7.84h-2.47v1.13h6.09v-1.13H565.2Z"/><path class="cls-19" d="M528.31,288.41c-2.16,0-3.46,1.92-3.46,5.49s1.3,5.55,3.46,5.55,3.45-2,3.45-5.55S530.46,288.41,528.31,288.41Zm0,9.94c-1.26,0-2.11-1.33-2.11-4.45s.85-4.39,2.11-4.39,2.1,1.27,2.1,4.39S529.57,298.35,528.31,298.35Z"/><path class="cls-19" d="M582.34,288.41c-2.16,0-3.47,1.92-3.47,5.49s1.31,5.55,3.47,5.55,3.45-2,3.45-5.55S584.49,288.41,582.34,288.41Zm0,9.94c-1.27,0-2.11-1.33-2.11-4.45s.84-4.39,2.11-4.39,2.1,1.27,2.1,4.39S583.59,298.35,582.34,298.35Z"/><path class="cls-19" d="M601.81,288.61h-1.07a6.51,6.51,0,0,1-2.28.79v.88h2v7.84H598v1.13H604v-1.13h-2.23Z"/><path class="cls-19" d="M510.72,307.18c-2.17,0-3.47,1.92-3.47,5.48s1.3,5.56,3.47,5.56,3.45-2,3.45-5.56S512.86,307.18,510.72,307.18Zm0,9.94c-1.27,0-2.12-1.34-2.12-4.46s.85-4.38,2.12-4.38,2.09,1.27,2.09,4.38S512,317.12,510.72,317.12Z"/><path class="cls-19" d="M546.54,307.38h-1.06a6.31,6.31,0,0,1-2.29.78v.89h2v7.83h-2.47V318h6.08v-1.14h-2.23Z"/><path class="cls-19" d="M565.2,307.38h-1.07a6.33,6.33,0,0,1-2.28.78v.89h2v7.83h-2.47V318h6.09v-1.14H565.2Z"/><path class="cls-19" d="M528.31,307.18c-2.16,0-3.46,1.92-3.46,5.48s1.3,5.56,3.46,5.56,3.45-2,3.45-5.56S530.46,307.18,528.31,307.18Zm0,9.94c-1.26,0-2.11-1.34-2.11-4.46s.85-4.38,2.11-4.38,2.1,1.27,2.1,4.38S529.57,317.12,528.31,317.12Z"/><path class="cls-19" d="M582.34,307.18c-2.16,0-3.47,1.92-3.47,5.48s1.31,5.56,3.47,5.56,3.45-2,3.45-5.56S584.49,307.18,582.34,307.18Zm0,9.94c-1.27,0-2.11-1.34-2.11-4.46s.84-4.38,2.11-4.38,2.1,1.27,2.1,4.38S583.59,317.12,582.34,317.12Z"/><path class="cls-19" d="M600.83,307.18c-2.17,0-3.47,1.92-3.47,5.48s1.3,5.56,3.47,5.56,3.44-2,3.44-5.56S603,307.18,600.83,307.18Zm0,9.94c-1.27,0-2.12-1.34-2.12-4.46s.85-4.38,2.12-4.38,2.09,1.27,2.09,4.38S602.08,317.12,600.83,317.12Z"/></g><path class="cls-20" d="M313,194.53c0-.22,0-.44,0-.67a11.18,11.18,0,0,0-14.55-10.66.49.49,0,0,0,0-.12,13.84,13.84,0,0,0-26.94-4.44,10.7,10.7,0,0,0-16,11.18,10.71,10.71,0,0,0,1.55,21.31h53.21a8.52,8.52,0,0,0,2.73-16.6Z"/><path class="cls-20" d="M513.66,155.18c0-.23,0-.45,0-.68a11.19,11.19,0,0,0-11.18-11.18,11,11,0,0,0-3.36.52v-.12a13.83,13.83,0,0,0-26.94-4.43A10.71,10.71,0,0,0,456,148.48a10.91,10.91,0,0,0,.18,2,10.71,10.71,0,0,0,1.56,21.31h53.21a8.52,8.52,0,0,0,2.72-16.6Z"/><path class="cls-21" d="M461.63,300.7c0-.24,0-.49,0-.73a12.26,12.26,0,0,0-12.25-12.26,12.44,12.44,0,0,0-3.69.56v-.12a15.16,15.16,0,0,0-29.53-4.86,11.74,11.74,0,0,0-17.78,10.07,11.94,11.94,0,0,0,.21,2.18,11.74,11.74,0,0,0,1.7,23.36h58.34a9.34,9.34,0,0,0,3-18.2Z"/></g></g></g><path class="cls-14" d="M374,356.8h0a8.25,8.25,0,0,1-8.22-8.23h0a8.25,8.25,0,0,1,8.22-8.22h0a8.25,8.25,0,0,1,8.23,8.22h0A8.26,8.26,0,0,1,374,356.8Z"/><rect class="cls-22" x="403.49" y="100.08" width="38.57" height="25.08" transform="translate(-14.73 109.05) rotate(-14.45)"/><polygon class="cls-22" points="438.32 95.66 400.97 105.28 415.69 85.12 438.32 95.66"/><rect class="cls-3" x="406.87" y="98.2" width="30.88" height="26.08" transform="translate(-14.4 108.89) rotate(-14.45)"/><polygon class="cls-20" points="400.97 105.28 407.23 129.57 423 113.47 400.97 105.28"/><polygon class="cls-20" points="438.32 95.66 444.58 119.95 423 113.47 438.32 95.66"/><polygon class="cls-20" points="444.58 119.95 407.23 129.57 421.95 109.4 444.58 119.95"/><path class="cls-22" d="M407.23,129.57c1.09-1.78,2.26-3.5,3.39-5.25s2.33-3.45,3.51-5.16,2.39-3.41,3.59-5.12l3.65-5.06.34-.48.54.25c3.77,1.77,7.53,3.55,11.25,5.41,1.87.93,3.72,1.87,5.57,2.83s3.69,1.93,5.51,3c-1.95-.73-3.87-1.55-5.81-2.32s-3.84-1.61-5.74-2.45c-3.82-1.65-7.61-3.38-11.39-5.12l.89-.23-3.71,5c-1.26,1.65-2.5,3.33-3.78,5s-2.55,3.29-3.85,4.92S408.59,128,407.23,129.57Z"/><path class="cls-23" d="M121.37,256.53a6,6,0,1,1-4.19-7.38A6,6,0,0,1,121.37,256.53Z"/><polyline class="cls-24" points="112.96 254.5 114.63 257.34 118.81 254.07"/><path class="cls-20" d="M505.08,110.26a6,6,0,1,1-7.89-3.15A6,6,0,0,1,505.08,110.26Z"/><polyline class="cls-24" points="497.24 113.92 500.32 115.1 501.54 109.94"/><path class="cls-25" d="M185.91,181.44a2.21,2.21,0,1,1-2.21-2.21A2.2,2.2,0,0,1,185.91,181.44Z"/><path class="cls-25" d="M154.86,355.39a2.21,2.21,0,1,1-2.2-2.21A2.2,2.2,0,0,1,154.86,355.39Z"/><path class="cls-25" d="M591.84,163.41a2.21,2.21,0,1,1-2.21-2.21A2.21,2.21,0,0,1,591.84,163.41Z"/><path class="cls-25" d="M329.25,105.67a2.21,2.21,0,1,1-2.21-2.21A2.21,2.21,0,0,1,329.25,105.67Z"/><path class="cls-25" d="M199,108.86a.71.71,0,0,1-.7-.71v-5a.71.71,0,1,1,1.41,0v5A.71.71,0,0,1,199,108.86Z"/><path class="cls-25" d="M201.51,106.37h-5a.7.7,0,1,1,0-1.4h5a.7.7,0,1,1,0,1.4Z"/><path class="cls-25" d="M147.56,308.79h-1.78V307a.7.7,0,0,0-.7-.7.7.7,0,0,0-.71.7v1.78h-1.78a.71.71,0,0,0,0,1.41h1.78V312a.71.71,0,0,0,.71.71.7.7,0,0,0,.7-.71V310.2h1.78a.71.71,0,1,0,0-1.41Z"/><path class="cls-25" d="M588.43,233.26h-1.78v-1.78a.7.7,0,0,0-.71-.7.7.7,0,0,0-.7.7v1.78h-1.78a.71.71,0,0,0-.71.71.7.7,0,0,0,.71.7h1.78v1.78a.7.7,0,0,0,.7.71.71.71,0,0,0,.71-.71v-1.78h1.78a.7.7,0,0,0,.7-.7A.7.7,0,0,0,588.43,233.26Z"/><g class="cls-26"><g class="cls-27"><path class="cls-20" d="M151.45,162.28a17.42,17.42,0,1,1,17.4-17.43A17.44,17.44,0,0,1,151.45,162.28Zm0-32.14a14.73,14.73,0,1,0,14.74,14.71A14.74,14.74,0,0,0,151.42,130.14Z"/></g><path class="cls-20" d="M162.08,144.86h0A.88.88,0,0,1,163,144h1.51a.89.89,0,0,1,.89.88h0a.89.89,0,0,1-.89.89H163A.89.89,0,0,1,162.08,144.86Z"/><path class="cls-20" d="M137.51,144.88h0a.88.88,0,0,1,.88-.88h1.52a.89.89,0,0,1,.88.89h0a.89.89,0,0,1-.88.88H138.4A.89.89,0,0,1,137.51,144.88Z"/><path class="cls-20" d="M151.44,155.51h0a.89.89,0,0,1,.89.88v1.52a.89.89,0,0,1-.88.88h0a.89.89,0,0,1-.89-.88V156.4A.89.89,0,0,1,151.44,155.51Z"/><path class="cls-20" d="M151.42,131h0a.88.88,0,0,1,.89.88v1.51a.89.89,0,0,1-.88.88h0a.89.89,0,0,1-.89-.88v-1.51A.88.88,0,0,1,151.42,131Z"/><path class="cls-20" d="M143.91,152.4h0a.88.88,0,0,1,0,1.25l-1.06,1.07a.89.89,0,0,1-1.25,0h0a.89.89,0,0,1,0-1.25l1.07-1.07A.88.88,0,0,1,143.91,152.4Z"/><path class="cls-20" d="M161.27,135h0a.89.89,0,0,1,0,1.25l-1.07,1.07a.87.87,0,0,1-1.24,0h0a.87.87,0,0,1,0-1.24L160,135A.88.88,0,0,1,161.27,135Z"/><path class="cls-20" d="M143.9,137.35h0a.89.89,0,0,1-1.25,0l-1.07-1.07a.89.89,0,0,1,0-1.25h0a.89.89,0,0,1,1.25,0l1.07,1.07A.89.89,0,0,1,143.9,137.35Z"/><path class="cls-20" d="M161.29,154.7h0a.88.88,0,0,1-1.25,0L159,153.64a.89.89,0,0,1,0-1.25h0a.88.88,0,0,1,1.25,0l1.07,1.06A.89.89,0,0,1,161.29,154.7Z"/></g><g class="cls-26"><path class="cls-20" d="M152.88,144.87a1.45,1.45,0,1,1-1.45-1.44A1.45,1.45,0,0,1,152.88,144.87Z"/><path class="cls-20" d="M151.43,143.06h0a.28.28,0,0,1-.28-.28v-7.36a.27.27,0,0,1,.28-.28h0a.28.28,0,0,1,.28.28v7.36A.27.27,0,0,1,151.43,143.06Z"/><path class="cls-20" d="M153.42,144.86h0a.29.29,0,0,1,.28-.28h4.86a.28.28,0,0,1,.28.28h0a.28.28,0,0,1-.28.28H153.7A.28.28,0,0,1,153.42,144.86Z"/></g><rect class="cls-28" x="220.04" y="112.79" width="102.32" height="24.04" rx="1.62"/><rect class="cls-20" x="217.5" y="110.29" width="102.32" height="24.04" rx="2.03"/><path class="cls-3" d="M307.66,126.4h-78a4.1,4.1,0,0,1-4.1-4.09h0a4.1,4.1,0,0,1,4.1-4.1h78a4.09,4.09,0,0,1,4.1,4.1h0A4.09,4.09,0,0,1,307.66,126.4Z"/><circle class="cls-3" cx="302.67" cy="122.31" r="9.09" transform="translate(-20.05 73.11) rotate(-13.34)"/><line class="cls-29" x1="230.35" y1="120.42" x2="230.35" y2="124.22"/><path class="cls-30" d="M306.46,125.38l-1.69-1.46a3.37,3.37,0,1,0-2.67,1.31,3.34,3.34,0,0,0,2.06-.71L305.9,126a.44.44,0,0,0,.28.1.46.46,0,0,0,.32-.15A.43.43,0,0,0,306.46,125.38Zm-4.36-1a2.52,2.52,0,1,1,2.53-2.52A2.51,2.51,0,0,1,302.1,124.37Z"/><path class="cls-20" d="M603.93,270.8a5.23,5.23,0,0,0-3.87,1.72l-4.18-2.93a3.48,3.48,0,0,0,.31-1.44,3.53,3.53,0,1,0-1.08,2.54l4.18,2.94a5.15,5.15,0,0,0-.63,2.44,5.26,5.26,0,0,0,1.19,3.3l-2.14,2.24a3.46,3.46,0,0,0-1.91-.57,3.54,3.54,0,1,0,3.53,3.53,3.46,3.46,0,0,0-.65-2l2.14-2.24a5.17,5.17,0,0,0,3.11,1,5.27,5.27,0,1,0,0-10.54Z"/><ellipse class="cls-31" cx="479.09" cy="436.02" rx="45.94" ry="3.63"/><path class="cls-32" d="M494.11,407.2c-2.52-8.7-.64-18.09,2.34-26.64a14.74,14.74,0,0,1,3.08-5.71,3.44,3.44,0,0,1,3-1.21c1.6.32,2.28,2.23,2.46,3.86,1.14,10.26-5.62,19.66-7.33,29.84"/><path class="cls-32" d="M486.92,402.83a27.16,27.16,0,0,0-2.41-7.48,13.27,13.27,0,0,0-5.36-5.64c-1-.54-2.41-.87-3.28-.09s-.65,2.42-.08,3.57c3.1,6.3,11,9.12,14,15.47"/><path class="cls-32" d="M490.58,408a54.78,54.78,0,0,1-5-11.45,21.19,21.19,0,0,1,.05-12.32c.41-1.22,1.46-2.61,2.67-2.19a2.41,2.41,0,0,1,1.07.91c2.26,3,3.13,6.79,3.54,10.51s.42,7.5,1.24,11.15a3.17,3.17,0,0,0,.66,1.52,1.16,1.16,0,0,0,1.5.23,1.59,1.59,0,0,0,.47-.8c.52-1.63,8.59-18.39,15.9-19.56a5.67,5.67,0,0,1,1.79-.07c9.17,1.53-11.49,20.69-11.64,23.54,7.47-6.4,9.06-7.58,12.46-8.2,2.62-.47,7.19,1.86,5.69,5.06-1,2.22-3.64,3.21-6,3.69-2.62.52-5.32.69-7.89,1.42a10.39,10.39,0,0,0-6.42,4.47"/><path class="cls-15" d="M511.22,411.11a12.5,12.5,0,0,0-4,.66,19.39,19.39,0,0,0-38.77.58c0,.49,0,1,.06,1.45a10.73,10.73,0,0,0-20,5.46,10.86,10.86,0,0,0,.28,2.44,7.7,7.7,0,1,0-3.73,14.43h66.12a12.51,12.51,0,0,0,0-25Z"/><ellipse class="cls-31" cx="193.42" cy="421.74" rx="38.38" ry="3.03"/><path class="cls-32" d="M180.86,397.67c2.12-7.28.55-15.12-2-22.27a12.17,12.17,0,0,0-2.57-4.76,2.88,2.88,0,0,0-2.47-1c-1.34.28-1.91,1.87-2.06,3.23-.95,8.57,4.7,16.43,6.13,24.93"/><path class="cls-32" d="M186.88,394a22.46,22.46,0,0,1,2-6.26,11.13,11.13,0,0,1,4.48-4.71,2.51,2.51,0,0,1,2.74-.08c.8.72.54,2,.07,3-2.59,5.26-9.22,7.62-11.75,12.92m-.61-.57a46.31,46.31,0,0,0,4.14-9.57,17.6,17.6,0,0,0,0-10.29c-.35-1-1.22-2.18-2.23-1.83a2,2,0,0,0-.89.76c-1.9,2.49-2.62,5.67-3,8.78a88,88,0,0,1-1,9.32,2.61,2.61,0,0,1-.55,1.26,1,1,0,0,1-1.26.2,1.36,1.36,0,0,1-.38-.67c-.44-1.36-7.18-15.36-13.29-16.35a4.73,4.73,0,0,0-1.5-.05c-7.66,1.27,9.6,17.29,9.73,19.67-6.24-5.35-7.57-6.34-10.41-6.85-2.19-.4-6,1.55-4.75,4.22.87,1.86,3,2.68,5,3.09,2.19.43,4.45.57,6.6,1.18a8.69,8.69,0,0,1,5.36,3.74"/><path class="cls-15" d="M166.57,400.93a10.27,10.27,0,0,1,3.34.56,16.2,16.2,0,0,1,32.39.47c0,.41,0,.82-.05,1.22a9,9,0,0,1,16.69,4.56,9,9,0,0,1-.24,2,6.43,6.43,0,1,1,3.12,12.06H166.57a10.46,10.46,0,0,1,0-20.91Z"/><path class="cls-33" d="M544.72,247.71a11.13,11.13,0,0,0-.09,1.15,7.75,7.75,0,0,0-.62,3,1.46,1.46,0,0,0,.68,1.4c-.46,2-.85,4.62.09,6.44V247.26ZM536,272a6.28,6.28,0,0,0-.6.47l-.15.12-.05.05a22,22,0,0,0-4.48,6.07c-1.73,3.32-3.54,10.15-4.8,15.21l-1.25-1.29L508.3,267.93a50.38,50.38,0,0,0,10.56-67.12A50.37,50.37,0,1,0,500.66,273l2.26,3.41a8.23,8.23,0,0,0-.21,2.21,9.15,9.15,0,0,0-.12,1.41,2.5,2.5,0,0,0,.15,1c.41.75,2.19,1.6,2.83,2.13a7.26,7.26,0,0,1,1.27,1.64c-.14.28-.18.5,0,.63.57.55,7.95,11.09,13.88,17.82l13,19.73,5.78,8.74c-.1,4.29-.19,9.06-.2,12.54-.29,6.91-.7,17.34-1,23.59a8.79,8.79,0,0,0,6.49-8.62V267.94A21.27,21.27,0,0,0,536,272Zm-58.72-3.43a40,40,0,1,1,40-40A40,40,0,0,1,477.24,268.59ZM540,316l-7.81-11.82a121.73,121.73,0,0,0,6.38-10.84,40.55,40.55,0,0,0,1.28,5C540.6,300.37,540.26,311.64,540,316Z"/><ellipse class="cls-31" cx="562.27" cy="431.11" rx="39.7" ry="4.19"/><path class="cls-34" d="M542.29,425.17a10,10,0,0,1-4.14,3.13c-2.21,1-6.9,1.46-4.29,2.32s5.64.35,7.17.1a30.7,30.7,0,0,1,4.85-.29c2.39,0,2.41-.16,2.08-2.86C547.52,423.85,543.37,423.07,542.29,425.17Z"/><path class="cls-34" d="M585.64,423.82c-.14.75.93,3-1,4.68s-6.22,3.42-3.35,3.49a16.71,16.71,0,0,0,7.06-1.32c1.46-.72.3-1.85,2.1-2.42,2.38-.75,1.89-2.5.65-3.58C589.54,421.11,586.06,421.4,585.64,423.82Z"/><path class="cls-35" d="M576.52,348.25s5.7-16.76-10.48-30.57c0,0-8.66,3.45-15.61,3.87a38.15,38.15,0,0,1-8.24-.18s-.46,14.89-.48,22.92Z"/><path class="cls-35" d="M543.92,330.56c-1.27.48-1.7,4.33-1.9,7s-1.18,29.91-1.56,34.85a15.73,15.73,0,0,0,0,2.28,9.51,9.51,0,0,0-.06,1.44c.34,8,2.05,33.35,1.87,48.85a3,3,0,0,0,1.25,1.38,6.48,6.48,0,0,0,4.29-.27c1.08-12.19,9-37.43,4-49.59a2.52,2.52,0,0,1-.1-1.71c2.4-7.67,7.16-22.52,8.15-28.4C561.52,336.48,550.28,328.17,543.92,330.56Z"/><path class="cls-35" d="M578.46,378.49a2.35,2.35,0,0,1-.64-1.5c-.41-8.35-.28-27.24-1.59-33.18-2.16-9.78-13.42-13.83-18.41-9.22-1,.92-1.22,6.1-.41,8.61s7.27,30.39,8.78,35.11a15.72,15.72,0,0,0,.71,1.82,8,8,0,0,0,.36,1.35C569.94,389,581,410,585.39,424.84a1.69,1.69,0,0,0,1.29.66,9.43,9.43,0,0,0,4.73-1.35C588.84,412.12,588.36,389.17,578.46,378.49Z"/><path class="cls-36" d="M533.11,278.73c-2.71,5.22-5.63,19.06-6.3,21.18,0,0,7.1,1.65,5.06,8,3.52-4.21,6.62-9.82,9.79-15.72,1.61-3,3.91-2,3.91-2L538.39,272S535.64,273.86,533.11,278.73Z"/><path class="cls-36" d="M513.66,280.69s-5.26,3.94-4.44,4.74,16.27,23,20.36,23.34c1.68.13,3.87-1.88,4.31-4,.17-.8.3-1.63.41-2.48C532.62,295.87,513.66,280.69,513.66,280.69Z"/><path class="cls-36" d="M533.11,278.73c-2.71,5.22-5.63,19.06-6.3,21.18,0,0,7.1,1.65,5.06,8,3.52-4.21,6.62-9.82,9.79-15.72,1.61-3,3.91-2,3.91-2L538.39,272S535.64,273.86,533.11,278.73Z"/><path class="cls-36" d="M513.66,280.69s-5.26,3.94-4.44,4.74,16.27,23,20.36,23.34c1.68.13,3.87-1.88,4.31-4,.17-.8.3-1.63.41-2.48C532.62,295.87,513.66,280.69,513.66,280.69Z"/><path class="cls-37" d="M505.5,275.8a8.37,8.37,0,0,0-.37,2.79l1.14-1.39Z"/><path class="cls-38" d="M550.87,239.47c-1.42.41-2.18,2.25-2.66,3.51a19.66,19.66,0,0,0-1.07,4.73,6.46,6.46,0,0,0,.24,3.33,6.7,6.7,0,0,0,.92,1.45,3.48,3.48,0,0,0,.67.71,1.07,1.07,0,0,0,.93.16c.45-.18.62-.7.75-1.16a30.19,30.19,0,0,1,3.41-8.61"/><path class="cls-39" d="M549.29,248.94c0-.95-1-1.57-1.9-.59a6.09,6.09,0,0,0-.95,3.51c-.05,1.37,1,1.64,1.89,1.83"/><path class="cls-36" d="M537.63,272.62a21.41,21.41,0,0,1,14.6-5.12c5.14.17,19.13,1,20.69,4.45.8,1.76,1.66,19.75.49,26-.88,4.66-3.13,16.22-3.13,19s1.5,4,.8,4.79c-1.57,1.82-12.28,2.58-17.3,2.58-4.48,0-12.09-1.19-12.48-2.63-.57-2.12.87-2,1.07-4.27s.76-16.71-.06-19.08c-1.48-4.28-2.2-11.26-3.38-14.42C538,281.49,535.58,274.33,537.63,272.62Z"/><path class="cls-40" d="M569.48,287.17c.53,1.1,4.15,6.93,4.15,6.93l.15.7a29,29,0,0,1-.37,3.11c-.88,4.66-3.13,16.22-3.13,19s1.43,3.93.8,4.79c-1.24,1.68-21.43,5.44-20.43.77.09-.42,16.94-13.29,17-13.72.78-3.69,1.46-6.35,1.8-9C570.3,293.24,568.94,286.06,569.48,287.17Z"/><path class="cls-39" d="M550.51,261.36s0,5.86-.29,6.09a8.79,8.79,0,0,1-1.39.79s.83,5.08,2.1,4.71,9.69-4.63,9.69-4.63-1.19-.49-1.19-1,1.13-9.68,1.13-9.68"/><path class="cls-39" d="M556.35,240.1c-1.22.34-4.46-.33-5.35,1s-1.67,4.57-2,5.46c-.66,1.78-1.1,3.67-1.58,5.5-.63,2.39-1.67,6.76.66,8.76a3.12,3.12,0,0,0,1.8.91c1.11.2,2.21.43,3.31.62a11.1,11.1,0,0,0,5.31.12c2.28-.74,3.52-3.86,4.11-6l3.34-12.15Z"/><path class="cls-3" d="M550.3,275.23s-.49,22.84-1.42,36.73l3.36,4.64,2.3-5.81a176.33,176.33,0,0,0-2.18-35.4Z"/><path class="cls-3" d="M549.53,273.22l.07.32a6.56,6.56,0,0,0,.7,1.69h0l2.06.16s1.4-.74,1.59-1.53-2.3-2.08-2.3-2.08l-.31.12a4.5,4.5,0,0,0-1.79,1.29Z"/><path class="cls-40" d="M559.57,265.94a8.45,8.45,0,0,1,2.35,2.38c-1.06,2.42-3.45,6.73-6.09,8.69a11.88,11.88,0,0,0-4.18-5.23S558.83,270.5,559.57,265.94Z"/><path class="cls-40" d="M551.65,271.78a8.82,8.82,0,0,0-4.1,3.9,19.53,19.53,0,0,1,.55-7.23s1.69-2.16,2.28-2.21A11.21,11.21,0,0,0,551.65,271.78Z"/><path class="cls-37" d="M549.63,322.48c-2.56.38-3.5,1.33-4.94,2.75a.52.52,0,0,0-.21.43c0,.2.27.29.47.33,1.19.19,1.38-.57,2.49-1l2.24-1"/><path class="cls-41" d="M561.92,358.27a4.56,4.56,0,0,1-3.82-2l-55.2-83.54a4.57,4.57,0,0,1,7.63-5l55.2,83.54a4.57,4.57,0,0,1-3.81,7.09Z"/><path class="cls-42" d="M565.63,356.36a4.38,4.38,0,0,1-1.19,1.16,4.59,4.59,0,0,1-6.34-1.3l-55.2-83.53a4.58,4.58,0,0,1,1.3-6.34,3.25,3.25,0,0,1,.81-.41,4.53,4.53,0,0,0-.12,5.18l55.2,83.55a4.56,4.56,0,0,0,3.82,2A4.34,4.34,0,0,0,565.63,356.36Z"/><circle class="cls-43" cx="479.29" cy="228.97" r="42.36" transform="translate(-51.41 206.65) rotate(-23.13)"/><path class="cls-44" d="M512.23,212.3A36.92,36.92,0,0,0,454,255.86a36.91,36.91,0,1,1,58.21-43.56Z"/><path class="cls-42" d="M479.32,276.36a47.78,47.78,0,1,1,39.8-74.11h0a47.76,47.76,0,0,1-39.8,74.11Zm-.13-88a40.18,40.18,0,1,0,33.6,18h0A40.2,40.2,0,0,0,479.19,188.4Z"/><path class="cls-41" d="M479.32,279a50.39,50.39,0,1,1,42-78.16h0a50.38,50.38,0,0,1-42,78.16Zm-.14-92.76a42.37,42.37,0,1,0,35.44,19h0A42.42,42.42,0,0,0,479.18,186.21Z"/><path class="cls-39" d="M556.82,320.45c-2,.42-7.26,2-7.81,2.25a23.26,23.26,0,0,0-3.37,2.49c-2,2-1,2.92-1.75,5.62a1.58,1.58,0,0,0,0,.43.45.45,0,0,0,.76.26c.21.35.82.14,1.12-.24,0,.27.37.44,1,.1.33-.18.27-.16,1-.84a8,8,0,0,1,2.15-1.31,14.62,14.62,0,0,0,2.09-1c.81-.52,2.24-.65,2.94-2.94a2.3,2.3,0,0,1,1.1-1.1l3.23-2"/><path class="cls-36" d="M569,283.31c.84,3,4.33,23.74,4.33,23.74L553.65,321.3l1.63,4.31s23.54-7.91,25.4-13.31,1.77-29.81-4.77-38.37c-2.08-2.73-6.25-4.1-6.25-4.1"/><path class="cls-37" d="M548.81,327.92l-.49.46a6.35,6.35,0,0,0-1,1c-.16.21-.34.4-.49.6s-.32.36-.46.51a4.27,4.27,0,0,1-.5.45s.12-.24.33-.58c.11-.17.23-.37.38-.57a5.54,5.54,0,0,1,.49-.62,3.06,3.06,0,0,1,.59-.55c.21-.15.41-.27.58-.38C548.57,328,548.81,327.92,548.81,327.92Z"/><path class="cls-37" d="M547.72,326.62a3.32,3.32,0,0,0-.55.62c-.15.2-.32.44-.48.7l-.27.4a2.35,2.35,0,0,0-.21.42,9.42,9.42,0,0,1-.44.9c-.15.28-.32.53-.46.74a8.18,8.18,0,0,1-.5.68s.11-.32.32-.78c.1-.23.22-.5.36-.78l.41-.89a2.82,2.82,0,0,1,.27-.45,4.1,4.1,0,0,1,.29-.4,8,8,0,0,1,.58-.65,4.18,4.18,0,0,1,.48-.4A1.1,1.1,0,0,1,547.72,326.62Z"/><path class="cls-37" d="M546.48,325.57l-.12.19c-.08.12-.2.28-.35.48a7.79,7.79,0,0,0-.51.65,2.26,2.26,0,0,0-.19.41l-.18.44c-.25.59-.47,1.2-.64,1.65l-.29.77a4.25,4.25,0,0,1,.08-.82,7,7,0,0,1,.55-1.73,4.51,4.51,0,0,1,.48-.86,5,5,0,0,1,.59-.61C546.26,325.81,546.48,325.57,546.48,325.57Z"/><path class="cls-39" d="M507.24,280.57s1-2.6,1.33-3.28.63-1.3.83-1.14.27.41.16.94-.71,2.24-.71,2.24"/><path class="cls-38" d="M563.85,254.39c-.77-.46-1.36-.93-1.86-.19-.27.39-.43.93-.88,1.06a.91.91,0,0,1-1-.73,2.64,2.64,0,0,1,.17-1.38l.93-3a4.46,4.46,0,0,0,.22-3,3.36,3.36,0,0,0-.94-1.21,10,10,0,0,0-4.6-2,49.18,49.18,0,0,1-4.94-1A5.45,5.45,0,0,1,549,242,4.05,4.05,0,0,1,547.7,239a6.25,6.25,0,0,1,1-3.24,5.41,5.41,0,0,0,.5,1.13,4.23,4.23,0,0,1,.9-1.42c.48,2.68,11.75,1.79,14.38,3,1.83.82,3.34,1.35,3.28,4.31a1.1,1.1,0,0,0,.36.47c1.62,1.49,2.32,3.3,2.52,6,.25,3.28-1.66,6.84-3.53,9.55a6.24,6.24,0,0,1-1.4,1.66,3.67,3.67,0,0,1-2.62.59c-.81-.15-2.41-.08-2.43-.91,0-.59,1.26-1.65,1.61-2.13"/><path class="cls-39" d="M560.9,257.49a1,1,0,0,0,1.55,1.17,3.59,3.59,0,0,0,2.25-2.76c.26-1.42-.5-2.84-1.8-2.47a1.92,1.92,0,0,0-1.23,1.87"/><path class="cls-37" d="M550.51,261.86l3.62.67a5.06,5.06,0,0,1-3.67,1.35"/><path class="cls-39" d="M509.27,284.8a7.26,7.26,0,0,0-1.27-1.64c-.64-.53-2.43-1.38-2.83-2.12s0-4.68,1.18-5.05,2.38,2.6,2.92,3.72a4.6,4.6,0,0,1,.12,2.68l.82,1.25S509.63,284.29,509.27,284.8Z"/><path class="cls-39" d="M505.5,277.11s.8-1.92,1.1-2.6.64-1.3.84-1.15a1.11,1.11,0,0,1,.21,1.08c-.11.53-.71,2.24-.71,2.24"/><path class="cls-39" d="M506,278.35s1.22-3.14,1.6-4,.77-1.57,1-1.38.32.5.19,1.14-.85,2.7-.85,2.7"/><path class="cls-39" d="M506.86,279.2s1-2.6,1.33-3.28.63-1.29.83-1.14.27.42.16.94-.71,2.25-.71,2.25"/><g class="cls-45"><path class="cls-46" d="M220,309.24l.29.26Z"/><g class="cls-47"><path class="cls-46" d="M242.75,252.64l-2.17-.61c-2.56-.72-6,3.59-7.69,9.62s-1,11.5,1.58,12.21l-1.25,4.47-.15.13a.59.59,0,0,0-.22,0c-.11,0-.21.24-.29.49a12.76,12.76,0,0,0-2.48,2.84,9.78,9.78,0,0,0-.67,2.8c-1.94,4.34-3.36,8.58-6.41,12.59-.6-1.22-1.24-2.55-1.87-3.88a4.34,4.34,0,0,0,.29-.51c-2.33-6.44-5.77-16.25-10-17a40.51,40.51,0,0,0-4.22-.49,5,5,0,0,1-.73-1.16c.3-1.11,1.07-3.79,1.58-4.25s1.22,1.18,3.58.54c1-.27,1.75-2.29,2.17-4.69l0-.23c.53-.13,1.13-.28,1.26-.34.7-.36.58-.68.33-1.12a12.2,12.2,0,0,1-1.11-2.77,21.49,21.49,0,0,0-.21-5c.06.15.11.31.16.45,1-.68,1.05-2.35.94-3a7.29,7.29,0,0,0-1.17-3.11c-2.72-3.83-4.93-4.22-6.81-4.65a24.68,24.68,0,0,0-2.93-.53V359.23a9,9,0,0,0,2.57,6.36c0-.07,0-.14,0-.21,0-.43,0-.88,0-1.34,0-.21,0-.42,0-.63s0-.35,0-.53l1.28,3.83a8.18,8.18,0,0,0,4.54,1.38h6.5a104.36,104.36,0,0,0-.39-11c.09-.06.2-.12.29-.19.13-6.05-.4-10.82-1.58-19.1-1.77-12.49-3.86-15.3-5.72-20.31l-.11-.39a1.36,1.36,0,0,0,.3-.77c0-.66-.76-2.39-.83-3.05-.39-3.83-.57-7.43.55-9.4a19.83,19.83,0,0,1,1.27-1.94c2.13,1.84,4.31,3.83,6.31,5.21.09.07.17.16.26.22a4.9,4.9,0,0,0,1,.59l.41.23-.27-.18a2.61,2.61,0,0,0,2.12-.11l.28,0a3.26,3.26,0,0,0,3.18-1.64c3.59-6.23,7.6-17.91,8.28-19.91,1-.51,2.65-2.19,2.81-3.37a2,2,0,0,0-.21-1.26c.18-.63.12-2.52-.88-1.67.83-1.33.58-2.67.3-4.16,0-.22-.17-.31-.32-.27l.32-1.17c2.56.72,6-3.59,7.69-9.62S245.31,253.35,242.75,252.64Z"/></g></g><path class="cls-48" d="M218.06,303.76a10.08,10.08,0,0,1,4-3.15c-4.65-4.38-15-11.59-15-11.59l-1.83,8.64c4.1,2,9.62,8.37,13.83,10.51C218.3,307.72,216.56,306.35,218.06,303.76Z"/><path class="cls-15" d="M216.86,309.5l-.29-.26Z"/><path class="cls-48" d="M227.46,284.54c-2.8,6.26-4.5,12.32-11.59,17.76-.29.22-.6.48-.93.75a10,10,0,0,0,2.69,4.31c2.4,1.78,4,.2,4.5-.52.07-.11.15-.22.21-.33a96.66,96.66,0,0,0,7.46-21.25C227.62,285.61,228.36,282.53,227.46,284.54Z"/><path class="cls-48" d="M227.46,284.54a10,10,0,0,1,.66-2.8,16.58,16.58,0,0,1,3.45-3.65l-.81,5.34-1,2.33-1.43.2Z"/><path class="cls-31" d="M170.36,431.19c0,2.05,15.49,3.72,34.61,3.72s34.61-1.67,34.61-3.72-15.49-3.71-34.61-3.71S170.36,429.14,170.36,431.19Z"/><path class="cls-39" d="M204.1,327.9l-13.72-11.26s-6.19,8.65-3.7,16.87c1.23,4.05,2.72,6,3.39,8s5.05,27.21,4.77,29.08-2.4,7.11-3.16,12.6c-.92,6.61-.45,28.09-1.15,33.79s4.57,6.6,4.83,4.67c2.25-16.5,8.42-42.26,9.22-50.5S204.81,347.79,204.1,327.9Z"/><path class="cls-49" d="M204.36,344.12l-5.71,13.62A30.21,30.21,0,0,1,203,371.86c.14,2.61-.06,5.23,0,7.84a2.71,2.71,0,0,0,.09.57c.74-3.88,1.28-7.08,1.48-9.16.57-5.83.45-15.07.08-27Z"/><path class="cls-39" d="M196.2,416.31s-1.18,6-.83,6.75a10.35,10.35,0,0,0,2.87,3.73c1.32.83,4.24,1.78,4.48,2.15a.9.9,0,0,1-.15,1.22,6.08,6.08,0,0,1-4.13,1.11c-3.95-.6-4.38-2.34-6.68-2.59-.4,0-1.13.56-2.23,0a2.59,2.59,0,0,1-1.57-2.51,11.29,11.29,0,0,1,1.68-4.24c.65-1.23,1-6.8,1-6.8"/><path class="cls-34" d="M202.88,430.44c.28-.49.34-1.24.07-1.42a23.45,23.45,0,0,0-2.47-1.44c-.77-.34-2-.64-1.56-.41s-.34,1.1-1.06,1.06c-2.47-.11-4.31-1.73-5.73-2.06-2-.48-2.92-2.87-3-3.26a9.55,9.55,0,0,0-1.42,2.8,4.89,4.89,0,0,0-.28,2.13,4.84,4.84,0,0,1,.26,2,3.7,3.7,0,0,0,1.47.51,5.7,5.7,0,0,0,1.57,0l.16-1.28a6.34,6.34,0,0,1,1.25.11,7,7,0,0,1,1.94.87c.28.33.52.94.89,1.13a7.89,7.89,0,0,0,3.25.76C200.87,432.08,202.4,431.29,202.88,430.44Z"/><path class="cls-39" d="M223,429.37c-.29-.32-3.43-.83-4.91-1.45a8.43,8.43,0,0,1-3.43-3.27c-.33-.8-.26-4.85-.21-6.56.29-11.72,2.46-40.38,2.77-47.25.55-11.92-1-24.24-5.59-43.39l-17.09-13.11s-4.79,8.89-3.19,17.4c.93,4.94,5,5.7,5.72,7.61s11,32.85,11,32.85a58.39,58.39,0,0,0-2.13,14c-.1,6.26,2.74,25.12,3.27,32.31.06,1.4.3,4.76-.11,5.83-.51,1.32-1.8,2.86-1.74,4.51a2.55,2.55,0,0,0,1.94,2.25c1.21.38,1.89-.32,2.3-.34,2.41-.1,3.08,1.56,7.24,1.55a6.63,6.63,0,0,0,4.13-1.71A.89.89,0,0,0,223,429.37Z"/><path class="cls-34" d="M223.33,430.84c.23-.53.2-1.28-.11-1.42a24.38,24.38,0,0,0-2.74-1.05c-.84-.23-2.13-.34-1.66-.18s-.21,1.14-1,1.22c-2.57.25-4.68-1.08-6.18-1.19-2.17-.17-3-2.4-3.12-2.77a9.85,9.85,0,0,0-1.53,3,4.73,4.73,0,0,0,0,2.15,4.66,4.66,0,0,1,.52,2,4.07,4.07,0,0,0,1.58.28,6.33,6.33,0,0,0,1.63-.23v-1.29a5.8,5.8,0,0,1,1.31-.09,4.36,4.36,0,0,1,2.12.75c.35.27.73.72,1.14.82a8.84,8.84,0,0,0,3.38.26C221.45,432.77,222.94,431.75,223.33,430.84Z"/><path class="cls-50" d="M191,315.72c-4.39,4.49-7.19,11-5.61,18.12.42,1.89,2.8,7,3.27,8.88,1.05,4.3,3,10.59,3.34,15.56,6.76,4.07,19.63,2.55,25.18-1.39.13-6.06-.4-10.82-1.58-19.1-1.77-12.5-3.87-15.31-5.72-20.31-.22-.88-.86-2.66-1.06-3.7"/><path class="cls-35" d="M200.7,273.88c1.12.15,1.18,2.74,2.3,2.9.81.11,2.25-.5,3-.23,4.1,1.42,3.91,5.78,5.3,10.88,2.3,3.7,3.38,7.23,2.53,9.68-1.06,3-2.56,4.12-4.06,6.75-1.12,2-.95,5.57-.55,9.4.06.66.87,2.4.83,3.06-.08,1.27-1.85,2-3.9,2.39-4.72,1-12,.44-14.36.3-2-.12-4-.18-4.05-1.39,0-.85.75-1.33.79-3,.08-3.62-1-12.44-1-15.5.05-7.83.07-13.65,1.9-21.2"/><path class="cls-51" d="M214.75,290.08a36.47,36.47,0,0,0-5.31-4.84l-3.71,2.55c2.56,3.3,3.69,7.53,5.28,11.36a9.82,9.82,0,0,0,2.29-.65c.28-.72.19-.37.55-1.39A16.65,16.65,0,0,0,214.75,290.08Z"/><path class="cls-39" d="M212.34,261.19a20.33,20.33,0,0,0-.26-5.36c-.66-3-1.83-7.26-7.15-8.14s-10.63,1.2-11.61,5.09.39,9.28.68,12.24a18.34,18.34,0,0,1-1.21,6.84l11.59,2.67s1.06-4.14,1.7-4.73,1.23,1.19,3.58.55c1-.27,1.76-2.3,2.17-4.69,0-.07,0-.16,0-.24a9.63,9.63,0,0,0,1.26-.34c.7-.36.58-.67.33-1.11A12.33,12.33,0,0,1,212.34,261.19Z"/><path class="cls-41" d="M242.38,264.85c-1.69,6-5.13,10.34-7.69,9.63s-3.26-6.19-1.57-12.22,5.12-10.33,7.68-9.62S244.06,258.83,242.38,264.85Z"/><path class="cls-41" d="M227.41,296.31h0a1.13,1.13,0,0,1-.78-1.4l12-42.88,2.17.61-12,42.88A1.14,1.14,0,0,1,227.41,296.31Z"/><path class="cls-52" d="M240.2,264.25c-1.69,6-5.13,10.33-7.68,9.62s-3.27-6.19-1.58-12.22,5.13-10.33,7.69-9.62S241.89,258.22,240.2,264.25Z"/><path class="cls-15" d="M239.17,264c-1.48,5.28-4.3,9.11-6.3,8.55s-2.42-5.3-.94-10.58,4.3-9.11,6.3-8.55S240.65,258.76,239.17,264Z"/><path class="cls-41" d="M233.33,272.62a1,1,0,0,1-.45,0c-2-.56-2.43-5.29-.95-10.56s4.29-9.11,6.3-8.55a1.16,1.16,0,0,1,.4.2c-1.95,0-4.48,3.69-5.85,8.59S231.68,271.58,233.33,272.62Z"/><path class="cls-39" d="M232.26,286.51a5.85,5.85,0,0,0,3.22-3.5,2,2,0,0,0-.21-1.27c.18-.62.12-2.52-.88-1.67.82-1.32.58-2.66.29-4.16-.09-.5-.68-.4-.82.74a5.62,5.62,0,0,1-2.4,3.85c-.21-.21.09-.44.1-1.07s-.35-1-.66-1-.38.88-.47,1.08c-.36.75-.71,1.5-1.07,2.26a4,4,0,0,0-.49,2.28c0,.16.31,1.63.8,1.18"/><path class="cls-39" d="M219.88,304.31c1-2.4,4.27-1.67,4.27-1.67-1.23-.78-9.5-19.21-9.5-19.21l-6.73,6.6c2.46,3.36,9.36,14.71,10.34,16a14.62,14.62,0,0,0,1.31,1.43A4.52,4.52,0,0,1,219.88,304.31Z"/><path class="cls-39" d="M229.12,284.76c-1.24,5-10.24,17.07-11.06,19.16,0,0-.12,3.33,2.43,3.89l.72.12a3.28,3.28,0,0,0,3.18-1.65c3.93-6.83,8.38-20.21,8.38-20.21A3,3,0,0,0,229.12,284.76Z"/><path class="cls-35" d="M209.46,275.7c-4.37-.81-8.28-.11-12-2.67-2.73,3,6.85,15.87,8.65,15.93s5.26,7.41,6.2,8.42c5.63-1.17,7.14-4.64,7.14-4.64C217.14,286.31,213.7,276.5,209.46,275.7Z"/><path class="cls-38" d="M206.25,276.68c-.47-1-1.43-1.7-1.8-2.76a4.94,4.94,0,0,1,0-3.33,6.08,6.08,0,0,1,1.16-1.57c1.93-2.18,2.44-3.79,1.21-6.3a7.2,7.2,0,0,1-.87-2.6c-.07-.82-.06-1.7.8-2a1,1,0,0,1,1.32.37c.21.33.39,3,1,1.34s1.27-1.78.65-5c-.08-.38-.49-1.9-.29-2.17a6.17,6.17,0,0,1,2.88,3.94c1-.68,1.06-2.36,1-3a7.34,7.34,0,0,0-1.18-3.12c-2.71-3.83-4.92-4.22-6.81-4.64a13.1,13.1,0,0,0-5.55-.45c-1.83.39-4,1.35-4.29,2.82-2.67-.19-3.72,2.3-4.18,3.21a13.13,13.13,0,0,0-1.27,4.16c-.29,2.13-.05,4.3-.19,6.45a9.27,9.27,0,0,1-1.6,5c-1,1.35-2.76,1.77-3.92,3a6.88,6.88,0,0,0-1.55,6.11c.48,2.14,2,4.27,1.07,6.48-.3.72-.8,1.34-1.1,2.07a5,5,0,0,0,1,5.05,9.1,9.1,0,0,0,5.07,2.95,13.28,13.28,0,0,0,4.87-.21c3.07-.73,5.71-1,8.47-4.43,1.57-1.92.22-2.61,1.69-4.62.83-1.12,2.16-1.88,2.66-3.24a4.87,4.87,0,0,0-.14-3.52Z"/><path class="cls-36" d="M393.43,144.87H348.12a5.1,5.1,0,0,1,.44-1.58c1.15-2.72,5.35-8.23,20.48-10.68l7.46-1.54S393.82,131.06,393.43,144.87Z"/><path class="cls-40" d="M378.41,144.87H348.12a5.1,5.1,0,0,1,.44-1.58,6.84,6.84,0,0,1,3.59,0l1.85.48h19.71C377.55,143.74,378.41,144.87,378.41,144.87Z"/><path class="cls-39" d="M370.93,136.24a2.39,2.39,0,0,1-1.66-.53,2.47,2.47,0,0,1-.93-1.41,9.35,9.35,0,0,0-.4-1.31,5.35,5.35,0,0,0-.65-1.26l7.63-8.27s.83,6.18,2.19,8.27C377.11,131.73,377.55,135.87,370.93,136.24Z"/><path class="cls-37" d="M372.87,128.21s-.93,4.72-3.6,7.5a2.47,2.47,0,0,1-.93-1.41,9.35,9.35,0,0,0-.4-1.31A22.17,22.17,0,0,0,372.87,128.21Z"/><path class="cls-38" d="M351.8,112.71s-.28,8.3,3.44,8.18,0-9.16,0-9.16Z"/><path class="cls-39" d="M374,121.87a16.38,16.38,0,0,1,.07,3.15,2.21,2.21,0,0,1-.06.34,2.29,2.29,0,0,1-.07.34c-.9,3.56-5.4,8.58-8.57,9a8.35,8.35,0,0,1-1.22,0c-4.41-.2-7-3.81-8.48-7.65l-.15-.4a35.3,35.3,0,0,1-1.85-8.53c0-.3-.23-3.57.41-4.55s9.41-2.07,9.59-2.09,8.55.59,8.55.59A89.43,89.43,0,0,1,374,121.87Z"/><path class="cls-38" d="M350.08,110.14s.27,6.39,10.76,3.83c2.88-.7,5.42-1.35,6.85-.58,2.14,6.75,2.21,10,3,9.72.95-.34-1.62-5.94,1.66-5.33,2.51.46-.11,6.64-.11,6.64s3.05.4,3.14-1c0-.85.14-12.93-1.93-15.8s-4.56-2.74-4.56-2.74-2.62-2.22-8.81-.41-9.44-.47-9.43-.29A12.44,12.44,0,0,0,350.08,110.14Z"/><path class="cls-53" d="M393.44,144.86s-3.47,23.73-18.89,35.7a139.19,139.19,0,0,0-12.13,11.09l-.22-.19a4.44,4.44,0,0,0-1,1.12c-.41.74-.83,3.48-1.61,3.79a2.87,2.87,0,0,1-.37.09,2.53,2.53,0,0,1-1.14.5,7.29,7.29,0,0,1-2.45-.25,5.22,5.22,0,0,1-1.13.87,24.14,24.14,0,0,1-2.95,1.57c-.88.28-1,0-.83-.55s1.85-1.48,2.45-1.95a9.36,9.36,0,0,0,2-2.62c.37-.81.37-1.26,0-1.26s-1.5.7-2.38.88-1.3-.05-.87-.55a6.85,6.85,0,0,1,3.06-2.37,6,6,0,0,0,2.87-1.15,9,9,0,0,0,1.61-2l-.35-.31s9.52-13.28,16.65-23.54l.47-.64c4-8.13,4.43-14.58,4.41-17.1a2.45,2.45,0,0,0-1.22-1.17Z"/><path class="cls-39" d="M359.39,186.16a16.75,16.75,0,0,1-2.54,3.42,6,6,0,0,1-2.87,1.16,6.88,6.88,0,0,0-3.07,2.35c-.42.51,0,.74.88.56s2-.88,2.38-.88.37.45,0,1.26a9.07,9.07,0,0,1-2,2.62c-.6.46-2.26,1.39-2.45,1.94s0,.83.83.56a24.2,24.2,0,0,0,3-1.57,5.38,5.38,0,0,0,1.12-.87,7.29,7.29,0,0,0,2.45.25,2.74,2.74,0,0,0,1.15-.5c.12,0,.25-.05.36-.09.79-.32,1.2-3.05,1.62-3.78a35.79,35.79,0,0,1,3.44-3.49Z"/><path class="cls-36" d="M393.44,144.86l-5.73-3.9-2.93,1.41c-1.84-.81-5-2-5-2l-1.38,4.49a2.47,2.47,0,0,1,1.21,1.17c0,2.53-.37,9-4.4,17.11-.16.22-.32.41-.48.64-7.12,10.25-16.65,23.53-16.65,23.53l4.08,3.58s6.1-5.48,11.39-10.32c1.78-1.63,7.28-6.93,10.58-13A133.5,133.5,0,0,0,393.44,144.86Z"/><path class="cls-53" d="M355.72,147.57l-.17,0a3.79,3.79,0,0,1,.34.4c.17.18.06.29.06.29-.22.24-.41.21-.69.2a1.22,1.22,0,0,1-.52-.25.78.78,0,0,1-.65.14c-.27,0-.59-.29-1-.72a.22.22,0,0,1,0,.21.82.82,0,0,1-.71.19,2.24,2.24,0,0,1-1.09-.8c-.15-.15-.36-.4-.58-.67l-.56-.38a1.57,1.57,0,0,0-.86-.28h0v0c-2.15,0-3.11-1-5.74-1h11.93l-.07,0a5,5,0,0,1-.73.14l.06,0,.44.52c.48.58,1.11,1.33,1.23,1.45s.06.31.06.31A.75.75,0,0,1,355.72,147.57Z"/><path class="cls-39" d="M355.21,147.57l-.16,0a3.79,3.79,0,0,1,.34.4c.16.18.06.29.06.29-.22.24-.41.21-.7.2a1.25,1.25,0,0,1-.51-.25.79.79,0,0,1-.65.14c-.27,0-.59-.29-1-.72a.22.22,0,0,1,0,.21.82.82,0,0,1-.71.19,2.29,2.29,0,0,1-1.1-.8c-.15-.15-.35-.4-.57-.67s-.4-.28-.57-.38a1.53,1.53,0,0,0-.85-.28h0v0c-2.14,0-3.1-1-5.73-1,0,0,6.15-3,9.86-.86a12.27,12.27,0,0,0,1.56.16c1.08,0,.77.56.43.74a4.52,4.52,0,0,1-.72.14l.06,0,.44.52c.48.58,1.11,1.33,1.23,1.45s.06.31.06.31A.76.76,0,0,1,355.21,147.57Z"/><path class="cls-54" d="M354.84,144.91a4.52,4.52,0,0,1-.72.14,9.94,9.94,0,0,0-1.27-1,12.27,12.27,0,0,0,1.56.16C355.49,144.19,355.18,144.73,354.84,144.91Z"/></g></g></svg>