<?xml version="1.0" encoding="utf-8"?>
<!-- Generator: Adobe Illustrator 24.1.1, SVG Export Plug-In . SVG Version: 6.00 Build 0)  -->
<svg version="1.1" id="Camada_1" xmlns="http://www.w3.org/2000/svg" xmlns:xlink="http://www.w3.org/1999/xlink" x="0px" y="0px"
	 viewBox="0 0 750 500" style="enable-background:new 0 0 750 500;" xml:space="preserve">
<style type="text/css">
	.st0{fill:#FFFFFF;}
	.st1{clip-path:url(#SVGID_2_);}
	.st2{fill:#E3A096;}
	.st3{fill:#DF6F62;}
	.st4{fill:#BD493E;}
	.st5{fill:url(#SVGID_3_);}
	.st6{fill:url(#SVGID_4_);}
	.st7{fill:url(#SVGID_5_);}
	.st8{fill:url(#SVGID_6_);}
	.st9{fill:url(#SVGID_7_);}
	.st10{fill:url(#SVGID_8_);}
	.st11{fill:url(#SVGID_9_);}
	.st12{fill:url(#SVGID_10_);}
	.st13{fill:#2F4D73;}
	.st14{fill:#3A5A88;}
	.st15{fill:url(#SVGID_11_);}
	.st16{fill:url(#SVGID_12_);}
	.st17{fill:url(#SVGID_13_);}
	.st18{fill:url(#SVGID_14_);}
	.st19{fill:url(#SVGID_15_);}
	.st20{fill:url(#SVGID_16_);}
	.st21{fill:url(#SVGID_17_);}
	.st22{fill:#D7D8F4;}
	.st23{fill:#F7F7F9;}
	.st24{opacity:0.67;fill:url(#SVGID_18_);enable-background:new    ;}
</style>
<g>
	<g id="BACKGROUND">
		<rect class="st0" width="750" height="500"/>
	</g>
	<g>
		<g id="OBJECTS_1_">
			<g>
				<defs>
					<path id="SVGID_1_" d="M627.4,96.5v223.6c-72.1,55.3-160.4,85.2-251.2,85c-89.8,0.2-177.1-29-248.8-83.1V96.5H627.4z"/>
				</defs>
				<clipPath id="SVGID_2_">
					<use xlink:href="#SVGID_1_"  style="overflow:visible;"/>
				</clipPath>
				<g class="st1">
					<path class="st2" d="M445.7,274.2c-1.4-3.8-3.2-7.7-2.4-11.7c0.7-4,5.5-7.4,8.8-5.1c2,1.4,2.6,4.3,4.5,5.9
						c2.9,2.5,7.9,0.8,9.7-2.6c1.9-3.4,1.4-7.6,0.1-11.2s-3.1-7.1-3.9-10.9s-0.2-8.1,2.8-10.6s8.5-1.6,9.4,2.1
						c0.4,1.5,0.1,3.2,0.9,4.4c1.4,2,4.9,1.1,6.2-1s1.2-4.8,1.3-7.2c0.6-11.5,7-21.8,17-27.5c3-1.7,6.8-2.9,9.9-1.3
						c4.5,2.3,4.6,8.7,3.2,13.6c-2,7.2-5.8,13.7-10.9,19.1c-2.2,2.3-4.6,4.3-6.4,6.9s-2.9,5.9-2,8.9s4.3,5.4,7.3,4.3
						c3.3-1.1,5-5.7,8.4-5.6c3.7,0.1,4.9,5.2,3.6,8.7c-2,5.4-6.8,9.3-12.4,10.2c-2.8,0.4-5.7,0-8.3,1s-4.9,4-3.6,6.5
						s4.8,2.4,7.4,3.4c5.4,2.1,6.8,10.6,2.3,14.3c-5.8,4.7-14.9,0.3-21.6,3.4c-4.4,2.1-6.8,7-7.9,11.8s-1.2,9.8-2.8,14.4
						c-1.6,4.6-5.3,9-10.1,9.5c-11.7,1.1-9.5-12.4-8.1-19.6C450.1,296.9,449.7,285.2,445.7,274.2z"/>
					<path class="st3" d="M482.7,332.7c16.8-16.1,37.6-28.8,60.6-32.9c6.3-1.1,13.9-1.1,17.7,4c3,4,2.3,10-0.3,14.3
						c-2.6,4.3-6.9,7.4-11,10.3l-26.5,19l-38.1,27.4c-11.5,8.3-24.1,20.9-37.2,26.3c-7.9,3.3-18.5-1.4-14.5-10.7
						c3.3-7.7,12.9-13.6,18.1-19.9C462,357.8,470.7,344.3,482.7,332.7z"/>
					<path class="st3" d="M289.5,282.1c-13.1-30.2-24.1-63.2-18.6-95.6c1.1-6.8,3.1-13.5,7.1-19.1c4-5.5,10.4-9.7,17.3-9.5
						c7,0.1,13.3,4.7,17.4,10.4s6.1,12.6,7.9,19.3c10.3,37.4,16.4,76,16.7,114.8c0.2,19.5-0.7,39.4-4,58.6
						c-3.5,20.3-15.4-10.4-17.6-16.7C308.6,322.9,298.5,302.7,289.5,282.1z"/>
					<path class="st3" d="M308.8,304.6c-11.9-20-28.6-37.8-49.6-47.9c-5.8-2.8-13.1-4.8-18.1-0.9c-4,3.1-4.9,9-3.5,13.8
						c1.4,4.8,4.6,8.9,7.8,12.9l20.4,25.4l29.4,36.6c8.9,11,17.7,26.5,28.8,35.3c6.8,5.3,18.2,3.6,16.9-6.4
						c-1.1-8.3-8.8-16.5-12.2-24C322.1,334.3,317.4,318.9,308.8,304.6z"/>
					<path class="st3" d="M377.3,324.2c1.6-23.3,8.6-46.6,22.8-65c3.9-5,9.5-10.1,15.8-8.9c5,1,8.4,5.8,9.3,10.8
						c0.9,5-0.1,10.1-1.2,15l-6.8,31.9l-9.8,45.9c-3,13.9-3.9,31.7-9.9,44.5c-3.6,7.8-14.6,11.4-17.9,1.9
						c-2.8-7.9,0.5-18.7,0.1-26.9C378.8,356.7,376.1,340.8,377.3,324.2z"/>
					<path class="st3" d="M424.7,324c9.1-21.5,23.1-41.3,42.6-54.2c5.3-3.5,12.3-6.5,17.8-3.3c4.4,2.5,6.1,8.2,5.4,13.2
						s-3.4,9.5-6,13.8c-5.6,9.3-11.2,18.7-16.8,28l-24.1,40.2c-7.3,12.1-13.9,28.7-23.7,38.9c-6,6.2-17.5,6-17.6-4
						c-0.1-8.4,6.5-17.6,8.8-25.5C415.6,355.3,418.2,339.3,424.7,324z"/>
					<path class="st4" d="M289.8,332.5c-17.1-5-33.5-11.9-49.1-20.6c-1.3-0.6-2.5-1.5-3.4-2.7c-0.9-1.2-0.9-2.9,0.1-4
						c0.7-0.7,1.9-0.9,2.6-1.6c1-1.2,1-2.9,0.1-4.1c-1-1.2-2.2-2.1-3.6-2.7c-9.5-4.8-20.4-9.2-24.9-18.9c-1.1-2.5-1.8-5.1-3-7.6
						c-4.4-8.9-25.6-16.1-18.4-23c6.1-5.9,15.7,6.5,21.8,12.4c4,3.8,8.1,8.5,13.5,8.3c2.2-0.1,4.4-1,6.5-0.7c3.9,0.5,6.4,4.4,8,8
						c1.6,3.6,3.5,7.6,7.1,9c2.6,1,5.6,0.4,8.4,0.7c6.5,0.8,11.3,6.4,15.3,11.6l20.2,26.3c3.3,4.3,6.8,9.7,4.9,14.8l-13.8-8.8"/>
					<path class="st3" d="M507.4,316.2c20.7-25.6,40.1-54.4,43.4-87.2c0.7-6.8,0.6-13.9-1.8-20.3c-2.4-6.4-7.5-12.1-14.1-13.8
						c-6.8-1.7-14.1,0.9-19.5,5.4c-5.4,4.5-9.2,10.5-12.8,16.5c-19.9,33.3-36.1,68.9-46.8,106.2c-5.4,18.7-9.9,38.1-11.8,57.5
						c-2,20.5,17.6-5.9,21.4-11.4C478,350.4,493.2,333.7,507.4,316.2z"/>
					<path class="st2" d="M536.4,243.5v-0.1c-0.1-0.2-0.2-0.3-0.5-0.4c-0.3,0-0.6,0.1-0.8,0.3c-0.9,0.7-1.4,2.4-2.3,3.4
						c-2.3,2.3-4.8,4.5-7.5,6.3c-2.3,1.8-4.8,3.4-7.4,4.8c-1.5,0.7-3,1.3-4.6,1.6c-1.1,0.1-2.2,0.2-3.3,0.2
						c4.2-8.4,7.9-17.1,11.2-25.9c3.8-10.2,6.9-20.6,13-29.7c0.2-0.4-0.3-0.7-0.6-0.4c-5.5,7.5-8.6,16.2-11.7,24.8
						c-0.8,2.3-1.7,4.6-2.6,7c-2.3-2.3-3-6.3-3.5-9.4c-0.5-3.2-0.7-6.4-0.4-9.7c0.3,0,0.5-0.2,0.5-0.4c0-0.1,0-0.3-0.1-0.4l-0.5-0.6
						c-0.3-0.4-0.9,0-1,0.4c-0.4,3.9-0.2,7.9,0.6,11.8c0.5,2.6,1.1,7,3.6,8.6c0.1,0.1,0.3,0.1,0.4,0l0.3-0.2
						c-2.5,6.4-5.1,12.8-8.1,19c-4.3,9.1-9.3,17.9-15,26.2c-0.6-1.8-1.6-3.5-2.3-5.3c-0.7-1.8-1.2-3.6-1.6-5.5
						c-0.5-2.1-0.8-4.2-0.9-6.4c0-0.7-0.2-6.9,0.6-6.6c0.3,0.1,0.5-0.3,0.4-0.5s-0.1-0.3-0.2-0.4c-0.1-0.2-0.4-0.3-0.6-0.3
						c-1.5,0.4-1.3,2.1-1.4,3.4c-0.1,2.5,0,5.1,0.4,7.6c0.7,4.7,2,10.8,5.1,14.5c-4.9,7.1-10.2,13.8-16,20.1
						c-7.2,7.8-15.5,15.2-21.3,24.1c-0.2,0.3,0.2,0.6,0.5,0.4c6.7-7.1,13.2-14.4,19.9-21.6c3.1-3.3,6-6.7,8.9-10.1
						c-0.1,0.2,0,0.4,0.2,0.5c0,0,0.1,0,0.1,0c5.2,0.9,10.5,0.7,15.6-0.5c0.3,0,0.5-0.3,0.4-0.6c0-0.3-0.3-0.5-0.6-0.4l0,0
						c-2.5,0-5.1,0.4-7.7,0.5c-2.6,0.1-5.1-0.1-7.7,0c0,0-0.1,0-0.1,0c3-3.6,5.8-7.3,8.4-11.1c4.9-7.1,9.3-14.6,13.2-22.4
						c1.9,0.8,4.3,0.1,6.2-0.5c2.9-1.1,5.6-2.6,8.1-4.4c2.5-1.8,5-3.7,7.3-5.7c1.1-0.9,2.2-2,3.2-3.1c0.7-0.9,1.2-1.9,1.7-2.9
						c0.1,0,0.2,0,0.2-0.1l0.1-0.1C536.4,243.7,536.4,243.6,536.4,243.5z"/>
					<path class="st4" d="M449.1,406.1c17.7-1.8,35.1-5.6,52-11.3c1.4-0.4,2.7-1,3.8-2c1.1-1,1.4-2.7,0.6-4
						c-0.6-0.9-1.7-1.3-2.3-2.1c-0.8-1.4-0.5-3.1,0.7-4.1c1.1-1,2.5-1.7,4-2c10.2-3,21.8-5.3,27.9-14c1.6-2.2,2.7-4.7,4.3-6.9
						c6-7.9,28.1-11.1,22.3-19.2c-4.9-6.9-16.6,3.6-23.7,8.2c-4.6,3-9.5,6.9-14.8,5.7c-2.1-0.5-4.1-1.7-6.3-1.9
						c-3.9-0.2-7.1,3.1-9.3,6.4s-4.8,6.9-8.7,7.6c-2.8,0.5-5.5-0.6-8.4-0.9c-6.5-0.5-12.2,4.2-17.1,8.6l-24.6,22.2
						c-4,3.6-8.5,8.3-7.5,13.6l15.2-6.1"/>
					<path class="st2" d="M557.7,342.1c-14.3,4.6-26.2,13.9-38.4,22.4c-6.2,4.5-12.8,8.5-19.6,11.9c-7.1,3.4-14.4,6-21.7,9
						c1.5-1.7,2.4-4.3,3.7-6.1c0.9-1.3,1.9-2.5,3-3.6c1-1,2.8-3.4,4.3-3.5c0.2,0,0.3-0.2,0.3-0.4c0-0.1-0.1-0.2-0.1-0.3l-0.4-0.3
						c-0.2-0.1-0.4-0.1-0.5,0c-2.7,1.5-5,4.4-6.8,6.8c-1.6,2-4,5-4.3,7.6c-7.4,3.1-15,6.5-21.1,11.9c-0.4,0.3,0.1,1,0.5,0.7
						c6.3-4.4,13.1-8.1,20.2-11c1.6-0.7,3.3-1.3,4.9-2c4.4,1.9,10.1,4.8,14.8,2.5c0.3-0.1,0.1-0.5-0.2-0.5c-2.7,0.4-5.5,0.2-8.1-0.6
						c-1.9-0.6-3.7-1.3-5.6-1.7c4.9-2,9.9-3.8,14.7-6c13.8-6.2,25.4-15.6,37.7-24c7.1-5,14.7-9,22.8-12.1
						C558.4,342.6,558.2,341.9,557.7,342.1z"/>
					<path class="st4" d="M318.8,279c-3.3-4.1-7.2-7.9-12-10.1c-4.8-2.2-10.6-2.5-15.3,0c-7.8,4.3-9.3,15-7.7,23.7
						c5.1,27.9,29.8,47.3,35.5,75.2c1.4,6.9,1,14.1,9.5,14.8c5.3,0.5,9.1-2.5,11-7.1c4.3-10.6-1.1-31-1.9-42.1
						C336.4,314.1,331.2,294.3,318.8,279z"/>
					<path class="st2" d="M325,345c-2.3-7.8-4.9-15.5-7.8-23.1c-0.4-1.1-0.9-2.3-1.3-3.4c3.6-3.2,5.8-9.4,5.8-13.9
						c0-0.5-0.7-0.6-0.8-0.1c-0.4,2.6-1,5.1-1.9,7.6c-1,2-2.1,3.8-3.4,5.6c-2.3-5.9-4.7-11.8-7.2-17.6c-0.3-0.8-0.7-1.6-1-2.4
						c0.1,0,0.1-0.1,0.2-0.1c4.7-3.7,5.4-12.5,5.2-18c0-0.4-0.4-0.6-0.7-0.6c-0.3,0-0.5,0.3-0.6,0.6c-0.7,5.7-0.4,12.4-4.6,16.8
						c-1.1-2.5-2.2-5-3.3-7.5c-1.5-3.5-2.9-7.5-5.4-10.5c-0.2-0.3-0.6,0.1-0.5,0.4c0.9,2,1.8,4,2.8,6.1c-0.5-0.3-1.2-0.4-1.8-0.7
						c-1.2-0.5-2.3-1.3-3.3-2.2c-0.8-0.8-1.4-2-2.3-2.7c-0.3-0.4-0.9-0.4-1.3-0.1c-0.2,0.1-0.3,0.4-0.3,0.6c0.1,0.4,0.2,0.4,0.5,0.5
						c0.2,0,0.3-0.1,0.4-0.2c0-0.1,0-0.1,0-0.2c0.6,1.8,2.5,3.3,4,4.3c1,0.6,3,1.9,4.2,1.4c5.6,12.4,10.8,24.9,15.5,37.6
						c2.7,7.3,5.3,14.7,7.5,22.2c2.3,7.8,3.6,15.8,6,23.5c0.1,0.3,0.5,0.2,0.5-0.1C329.7,360.8,327.2,352.7,325,345z"/>
					<path class="st2" d="M306.5,260c-4.4-2.3-8.4-5.3-11.9-8.8c-3.1-3.3-6-6.9-8.8-10.4c-0.3-0.4-0.8,0.1-0.5,0.5
						c1.3,1.6,2.5,3.6,3.8,5.2c1.7,2.1,3.5,4.1,5.4,6c3.3,3.3,7.4,6.6,11.9,7.9c0.1,0,0.3,0,0.3-0.1
						C306.7,260.2,306.7,260,306.5,260z"/>
					<path class="st4" d="M426.1,364.7c15.4-25.5,27.9-52.6,37.3-80.9c0.8-2.3,1.5-4.8,1.1-7.2c-0.4-2.4-2.2-4.8-4.7-4.9
						c-1.7-0.1-3.4,1-5.1,0.9c-2.5-0.1-4.5-2.6-4.8-5c-0.3-2.5,0.5-5,1.4-7.4c6.3-16.6,14.8-34.5,9.4-51.4
						c-1.4-4.3-3.7-8.3-4.9-12.8c-4.6-16,13.4-48.8-3.3-49.2c-14.1-0.4-12,25.8-12.9,39.9c-0.6,9.1-0.4,19.6-7.3,25.6
						c-2.8,2.4-6.5,3.7-8.9,6.5c-4.3,5-2.9,12.6-0.9,18.9s4.3,13.3,1.4,19.2c-2.1,4.2-6.5,6.8-9.5,10.3c-7.2,8.3-6.7,20.6-5.7,31.6
						c1.6,18.4,3.2,36.8,4.9,55.3c0.8,9.1,2.6,19.6,10.7,23.8c2.4-8.8,4.7-17.7,7.1-26.5"/>
					<path class="st2" d="M451.2,293.1c-2.3,5.9-7.2,10-11.8,14.1c-4.2,3.8-8.8,7.2-13.8,9.9c0.4-3.4,0.8-6.8,1.3-10.2
						c2.1-12.8,5.1-25.4,9.1-37.7c3.8-12,5.5-24,6.1-36.6c0.1-1.9,0.2-3.9,0.3-5.8c0.1,0,0.3-0.1,0.4-0.1c2.7-2.1,5.1-4.7,7.1-7.5
						c1.7-2.4,4-5.6,4.2-8.6c0-0.2-0.2-0.4-0.4-0.4c-0.1,0-0.2,0-0.3,0.1c-1.8,2.3-2.7,5.4-4.4,7.9c-1.9,2.7-4,5.1-6.5,7.2
						c0.4-10.4,0.6-20.7,1.5-31.1c0.6-7.1,1.6-14.2,3.1-21.2c1.5-6.5,4.4-13.1,4.2-19.9c0-0.2-0.4-0.3-0.4-0.1
						c-1,6.2-3.2,12.1-4.6,18.2c-1.4,5.9-2.4,11.8-3.1,17.8c-1.5,12.7-1.6,25.5-2.2,38.3c-0.6,13-1.6,25.7-5.4,38.2
						c-3.7,12.3-7.4,24.4-9.5,37.1c-0.9,5-1.5,10-2.1,15.1l-0.3,0.1c-0.4,0.2-0.2,0.7,0.2,0.8c-0.2,1.7-0.3,3.4-0.5,5.2
						c-0.6,7.4-1.2,14.9-0.7,22.3c0,0.2,0.2,0.4,0.5,0.4c0.2,0,0.4-0.2,0.4-0.4c0.5-6.4,0.5-12.9,0.9-19.4c0.2-2.9,0.5-5.7,0.8-8.6
						c5.7-2.3,10.5-6.5,15-10.6s9.4-8.3,11.8-14.3C452.5,292.8,451.4,292.5,451.2,293.1z"/>
					<path class="st2" d="M439.6,242.4c-6.5-4.1-9.3-10.8-12.2-17.6c-0.3-0.6-1.3-0.4-1,0.3c2.6,6.8,6,14.5,12.7,18.1
						c0.2,0.1,0.5,0,0.6-0.2C439.8,242.7,439.8,242.5,439.6,242.4z"/>
					<path class="st2" d="M426.8,297.8c-2.9-3-4.9-6.7-5.9-10.7c-1-3.6-1.2-7.4-1.8-11c-0.1-0.5-1-0.4-0.9,0.1
						c0.3,7.9,2.2,16.6,8.2,22.1c0.2,0.1,0.4,0.1,0.5,0S427,298,426.8,297.8z"/>
					<path class="st2" d="M513.1,359c-1.9,3.1-2.5,6.7-1.8,10.3c0.1,0.3,0.6,0.2,0.5-0.1c-0.5-3.4,0.2-6.9,1.9-9.9
						c0.1-0.2,0-0.4-0.2-0.4C513.3,358.9,513.2,358.9,513.1,359z"/>
					<path class="st2" d="M304.8,309.8c-1-5.7-7.8-10.5-12.6-7.3c-2.9,2-3.7,6.1-6.4,8.4c-4.1,3.6-11.3,1.1-13.9-3.7
						s-1.9-10.8-0.2-16c1.7-5.2,4.4-10.1,5.5-15.5c1.1-5.4,0.3-11.7-3.9-15.2c-4.2-3.6-12.1-2.3-13.5,3c-0.5,2.1-0.1,4.5-1.3,6.3
						c-2,2.9-7,1.6-8.8-1.4c-1.9-3-1.7-6.8-1.8-10.4c-0.8-16.4-10-31.2-24.3-39.3c-4.4-2.4-9.8-4.1-14.2-1.8
						c-6.4,3.3-6.5,12.5-4.6,19.5c2.9,10.2,8.3,19.6,15.6,27.3c3.1,3.3,6.6,6.2,9.1,9.9c2.6,3.7,4.1,8.4,2.9,12.7
						c-1.3,4.3-6.1,7.7-10.4,6.2c-4.7-1.6-7.1-8.1-12.1-8c-5.2,0.1-7,7.4-5.2,12.4c2.8,7.7,9.6,13.3,17.8,14.6c4,0.6,8.1,0,11.9,1.4
						c3.8,1.4,7,5.7,5.1,9.3s-6.8,3.5-10.5,4.9c-7.8,3-9.8,15.1-3.3,20.4c8.2,6.7,21.3,0.4,30.9,4.9c6.3,2.9,9.8,10,11.3,16.8
						c1.5,6.8,1.8,14,4.1,20.6s7.5,12.9,14.5,13.6c16.7,1.6,13.6-17.8,11.6-28c-3.2-16.4-2.6-33.1,3.2-48.9
						C303.3,321,305.8,315.4,304.8,309.8z"/>
					<path class="st3" d="M276.8,353c0.7-0.5,1.3-1.2,1.7-1.6c3.3-3.1,6.1-6.6,8.3-10.5c4.9-8.6,7-18.2,8.3-27.9
						c0-0.4-0.6-0.5-0.7-0.1c-1.3,7.7-3.2,15.5-6.5,22.6c-1.4,3.1-3.1,6-5.1,8.7c-1.1,1.5-2.2,2.9-3.5,4.2c-0.6,0.6-1.1,1.1-1.7,1.7
						c-0.4,0.4-0.8,0.7-1.2,1.1c-0.1,0.1-0.3,0.2-0.4,0.3c-4.6-10.6-9.8-20.9-14.6-31.4c-3-6.7-5.8-13.5-8.4-20.4
						c4.4-4.3,8.1-9.2,11.1-14.6c2.9-5,5-10.4,4.9-16.3c0-0.2-0.1-0.3-0.3-0.3s-0.3,0.1-0.3,0.3c-0.5,11.8-8.7,21-15.9,29.6
						c-5.3-13.8-10.3-27.7-16.7-41c-5.4-11.2-11.9-22-20.3-31.1c-0.6-0.6-1.5,0.3-0.9,0.9c15,16.9,23.6,37.8,31.5,58.6
						c3,8,6,16,9.3,23.8c-7.6-2-15.3-3.5-22.8-5.7c-3.8-1.1-7.5-2.4-11.1-4c-1.8-0.8-3.6-1.7-5.3-2.7c-1.5-0.9-2.9-2.1-4.6-2.5
						c-0.3-0.1-0.6,0.3-0.4,0.6c1.8,2.6,5.9,4.3,8.7,5.6c3.6,1.6,7.2,3,11,4.2c8.2,2.5,16.6,4.6,25,6.3h0.1c0.6,1.5,1.3,3,1.9,4.5
						c3.5,7.9,7.3,15.7,11,23.5c-2.5,1.1-4.8,2.4-7.6,2.9c-3.3,0.5-6.7,0.7-10.1,0.4c-3.6-0.2-7.3-0.7-10.8-1.6
						c-3.6-0.9-7-2.3-10.6-3.2c-0.2,0-0.4,0.1-0.5,0.3c0,0.2,0,0.3,0.2,0.4c3.1,2,7,3,10.6,3.9c3.8,0.9,7.7,1.5,11.6,1.7
						c5.3,0.3,13.6,0.3,17.9-3.7c1.2,2.5,2.4,5.1,3.6,7.7c0.5,1.2,1,2.3,1.5,3.5h-0.1c-0.2,0.1-0.4,0.2-0.4,0.4
						c-0.2,0.5,0,1.1,0.5,1.3c0,0,0.1,0,0.1,0c0.2,0.1,0.4,0.1,0.6,0c4.7,11,8.3,22.4,10.9,34c0.1,0.6,1.1,0.5,1-0.1
						c-1.4-11.7-5.7-23-10.3-33.7L276.8,353z"/>
					<path class="st2" d="M377.1,249.2c-2.9-3.7-7.9-5.1-12.3-3.4c-2.6,1.1-4.9,3.3-7.8,3.5c-5,0.4-8.4-5.9-7.1-10.7
						s5.6-8.2,9.7-11.1s8.5-5.8,10.7-10.3c2.2-4.5,0.7-11.2-4.1-12.5c-4.4-1.3-8.5,2.3-12,5.2c-3.5,2.9-8.6,5.7-12.3,3
						c-4-2.9-2.6-9.1-0.9-13.8c4-11.8,6.1-24.2,6.1-36.6c0-5.2-0.4-10.5-3.1-14.9c-2.7-4.4-8.3-7.4-13.1-5.6
						c-3.6,1.4-5.9,5.1-6.7,8.9c-0.8,3.8-0.2,7.7,0.3,11.5c1.1,7.9,2.2,15.8,3.3,23.7c0.6,4,0.3,9.4-3.7,10.3
						c-5,1.2-7.4-6.5-12.2-8.5c-5.3-2.3-11,4.1-10.4,9.8c0.4,2.9,1.6,5.7,3.5,7.9c-0.2,0.7-0.3,1.3-0.5,2c-0.5,1.6-1.1,3.2-1.9,4.7
						c-1.4,2.5-3.2,4.8-5.3,6.8c-1.7-7.3-3-14.7-3.6-22.2c-0.6-8.4-0.6-16.8-0.1-25.2c0-0.4-0.6-0.5-0.7-0.1
						c-1.1,8-1.4,16.1-0.7,24.2c-0.3-1.2-1.2-1.8-2.1-2.7c-1.3-1.3-2.5-2.7-3.7-4.2c-2.3-3-4.4-6.2-6.2-9.6c-0.4-0.7-1.4-0.1-1,0.6
						c1.7,3.4,3.8,6.5,6.1,9.5c1.3,1.6,2.6,3.1,4,4.5c0.9,0.9,1.5,1.9,2.9,2l0,0c0.7,8.6,2.1,17.2,4.2,25.6c0.2,0.7,0.3,1.3,0.5,2
						c-1.2-0.4-2.6-0.4-3.8-0.1c-2.9,0.9-4.8,4-4.9,7c0,3.1,1.1,6,3,8.4c3.3,4.7,8,8,12.8,11.2l2.4,8.8c1.1,4,1.7,8.6,3.6,12.4
						c0.1,0.2,0.4,0.3,0.7,0.1c0.1-0.1,0.2-0.2,0.2-0.4c-0.3-3.9-1.8-7.8-2.8-11.5l-2.2-8.2c2.9,1.8,5.8,3.8,8.5,5.9
						c16.4,13.2,22.4,37.8,14,57.1l6.2-10c-3,6.5-6.1,13.6-4.6,20.6s9.9,12.8,16,8.9c4.1-2.6,5.1-8.1,5.6-13l3.6-29.9
						c0.9-7.3,2.1-15.3,7.8-20c4.3-3.5,10.5-4.4,14-8.7C379.8,258.1,379.9,253,377.1,249.2z M314.7,237.3c-4.5,0-7.7-4.2-10.4-7.9
						c-1.5-2.2-3.4-4-5.7-5.4c-0.1-0.6-0.3-1.1-0.4-1.7c-0.1-0.6-0.3-1.4-0.5-2.1c2.4-1.9,4.3-4.3,5.8-7c1.2-2,2.1-4.1,2.7-6.4
						c1.5,1.7,3.1,3.2,4.9,4.6c4.4,3.7,9.2,7.5,10.9,13S320.5,237.3,314.7,237.3z"/>
					<path class="st3" d="M370.3,253.5c-0.9,2.9-3.7,4.6-6.1,6.2c-2.4,1.7-4.9,3.4-7.4,4.9c-4.6,2.7-9.6,4.9-14.7,6.5
						c-0.6-3.4-1.4-6.8-2.3-10.1c0-0.1,0-0.3-0.1-0.4c-0.7-2.7-1.5-5.4-2.3-8.1c-2-6.4-3.6-12.9-4.8-19.5c5.6-0.3,11.8-3.6,16.4-6.5
						c5.2-3.2,9.8-7.4,13.4-12.4c0.2-0.3-0.3-0.7-0.6-0.4c-3.8,4.6-8.3,8.6-13.4,11.8c-2.6,1.6-5.4,3-8.3,4.1
						c-2.5,1-5.2,1.5-7.7,2.4c-0.7-4.2-1-8.5-1-12.7c0-1.4,0.1-2.9,0.2-4.3c0.1-0.2,0.1-0.4,0-0.6c0.6-9.4,2.4-18.7,3.7-28
						c1.7-11.8,2.5-23.6-0.4-35.2c-0.1-0.5-0.9-0.3-0.7,0.2c4.7,20.7-2.4,41.4-3.9,62.1c-3.8-2.2-7.4-4.7-10.8-7.6
						c-3.4-3.1-6.5-6.4-9.5-9.9c-0.2-0.2-0.5-0.1-0.6,0c-0.1,0.1-0.1,0.3-0.1,0.5c4.9,7.8,12.9,14.1,20.9,18.6c0,0.1,0,0.2,0,0.3
						c-0.6,10.8,1.1,21.1,4,31.4c1.2,4.4,2.6,8.8,3.8,13.2c-16.6-5.4-27.4-19.5-42.1-28.2c-0.7-0.4-1.3,0.6-0.6,1.1
						c7.5,5.3,14.4,11.3,21.6,17c6.5,5.1,13.6,9.8,21.6,11.9c0.9,3.3,1.7,6.6,2.3,9.9c-0.3,0.1-0.5,0.5-0.4,0.9
						c0.1,0.3,0.3,0.4,0.6,0.4c0.4,2.3,0.7,4.5,1,6.8c1.3,13-0.2,25.6-3.2,38.3c-0.1,0.3,0.2,0.7,0.5,0.8c0.3,0.1,0.6-0.1,0.7-0.4
						c3.1-10.7,4.4-21.9,3.8-33.1c-0.2-4.3-0.7-8.6-1.4-12.8c5.9-1.7,11.5-4.4,16.6-7.8c2.7-1.8,5.3-3.7,7.8-5.7
						c1.9-1.5,3.4-3,4-5.4c0-0.2-0.1-0.3-0.3-0.3C370.4,253.3,370.3,253.4,370.3,253.5z"/>
					<path class="st2" d="M556.6,308.7c-7.6,1.5-14.5,4.9-21.2,8.6c-1.2,0.7-2.3,1.4-3.5,2c0.5-1.9,1.4-3.6,2.4-5.2
						c1.3-2,3.2-3.2,4.6-5c0.2-0.1,0.2-0.4,0-0.5c-0.1-0.1-0.3-0.2-0.5-0.1c-4.1,1.8-6.9,7.4-7.8,11.5c-4.7,2.8-9.4,5.6-14.1,8.5
						l-0.2-0.1c-0.3-0.2-0.7,0.2-0.5,0.5l-0.8,0.5c-3.1,1.9-6.2,3.8-9.2,5.8c1.5-2.3,2.9-4.8,4.2-7.3c3.9-8,5.2-18.7-1.1-24.9
						c-3.8-3.7-9.5-4.9-14.7-4.1s-10,3.4-14.3,6.5c-16.1,11.5-26.3,29.1-32.8,47.4c-3.7,10.5-14.4,28.7-13.1,40
						c0.6,5,3.4,8.8,8.7,9.8c8.4,1.5,9.9-5.5,13.1-11.8c11.2-21.9,34.3-33.9,48.4-53.2c4.1-2.7,8.3-5.3,12.5-7.9
						c3.6,3.9,10.3,6.2,15.4,6.2c0.6,0,0.8-1,0.1-1.1c-2.9-0.4-5.7-1-8.4-2.1c-2.2-1-4.2-2.3-6.2-3.7c4.8-3,9.6-5.9,14.5-8.8
						c7.8-4.7,15.8-9.1,24.6-11.2C557.1,309.1,556.9,308.6,556.6,308.7z"/>
					<path class="st3" d="M481.7,332v-0.3c1.1-1.4,2.2-2.8,3.3-4.1c5.2-6.3,10.9-13.2,17.8-17.7c0.1-0.1,0.2-0.2,0.1-0.4
						c-0.1-0.1-0.2-0.2-0.4-0.1c-3.8,1.6-6.7,4.8-9.5,7.7c-2.8,2.9-5.6,5.9-8.2,9c-1,1.2-1.9,2.3-2.9,3.5c0.1-2.6,0-5.4,0.2-8
						c0.4-3.9,1.1-7.9,2-11.7c0.1-0.2-0.1-0.4-0.3-0.5s-0.4,0.1-0.5,0.3c-1.2,3.6-1.9,7.3-2.3,11c-0.4,3.3-1,7.2-0.3,10.5
						c-3.3,4.1-6.3,8.3-9.3,12.6h-0.3c-0.3,0-0.6,0.2-0.6,0.6c0,0.2,0.1,0.3,0.2,0.4l-0.6,0.9c-3.4,5-6.7,10.1-9.8,15.3
						c-0.1-0.7-0.1-1.4-0.2-2c-0.2-1.7-0.4-3.5-0.4-5.2c-0.2-3.3,0-6.6,0.1-10c0-0.5-0.8-0.6-0.8-0.1c-0.5,3.6-0.6,7.3-0.4,11
						c0.1,1.9,0.3,3.8,0.5,5.7c0.1,0.7,0.1,1.5,0.3,2.2c-5.3,8.8-10.4,17.8-15.1,26.9c-0.2,0.3-0.1,0.6,0.2,0.8s0.6,0.1,0.8-0.2
						c5-8.6,9.8-17.3,14.8-25.9c0.1,0.1,0.3,0.1,0.5,0.1l0.3-0.1c0.2-0.1,0.3-0.3,0.3-0.5c0,0,0-0.1,0-0.1c-0.1-0.2-0.3-0.4-0.4-0.6
						c3-5.1,6.1-10.2,9.4-15.2l1.9-2.7c4.4,0.2,8.8-0.6,12.9-2.1c4.3-1.7,8-4.4,12.1-6.3c0.4-0.2,0-0.7-0.3-0.5
						c-4.1,1.8-7.9,4.3-12.1,5.8c-3.8,1.4-7.8,2.1-11.9,2c2.7-4,5.6-7.9,8.5-11.6C481.5,332.3,481.6,332.2,481.7,332z"/>
					
						<linearGradient id="SVGID_3_" gradientUnits="userSpaceOnUse" x1="346.3248" y1="123.9934" x2="346.3248" y2="254.5635" gradientTransform="matrix(1 0 0 -1 -61.38 457.07)">
						<stop  offset="0" style="stop-color:#C8421B"/>
						<stop  offset="1" style="stop-color:#FFFFFF;stop-opacity:0"/>
					</linearGradient>
					<path class="st5" d="M378.1,249.2c-2.9-3.7-7.9-5.1-12.3-3.4c-2.6,1.1-4.9,3.3-7.8,3.5c-5,0.4-8.4-5.9-7.1-10.7
						s5.6-8.2,9.7-11.1s8.5-5.8,10.7-10.3c2.2-4.5,0.7-11.2-4.1-12.5c-4.4-1.3-8.5,2.3-12,5.2c-3.5,2.9-8.6,5.7-12.3,3
						c-4-2.9-2.6-9.1-0.9-13.8c4-11.8,6.1-24.2,6.1-36.6c0-5.2-0.4-10.5-3.1-14.9c-2.7-4.4-8.3-7.4-13.1-5.6
						c-3.6,1.4-5.9,5.1-6.7,8.9c-0.8,3.8-0.2,7.7,0.3,11.5c1.1,7.9,2.2,15.8,3.3,23.7c0.6,4,0.3,9.4-3.7,10.3
						c-0.4,0.1-0.8,0.1-1.2,0.1c-0.8-3-1.5-6-2.4-8.9c-1.9-6.8-3.9-13.6-7.9-19.3c-4-5.7-10.3-10.3-17.3-10.4
						c-6.8-0.1-13.3,4-17.3,9.6c-4,5.6-6,12.3-7.1,19.1c-5,29.7,3.6,59.7,15.2,87.7c-0.2,0.3-0.4,0.6-0.5,1
						c-2.7-2.5-5.4-4.9-8.3-7.2c-0.4-2.9-1.9-5.6-4.1-7.6c-2.7-2.1-6.2-2.6-9.4-1.3c-1.5-0.8-3.1-1.6-4.6-2.4
						c-3.6-1.8-7.9-3.2-11.9-3c-2.1-14.7-11-27.6-23.9-35c-4.4-2.4-9.8-4.1-14.2-1.8c-6.4,3.3-6.5,12.5-4.6,19.5
						c2.9,10.2,8.3,19.6,15.6,27.3c1.4,1.4,2.8,2.8,4.2,4.2c-5-0.4-8.9-4.8-12.6-8.3c-6.1-5.8-15.7-18.2-21.8-12.4
						c-7.2,6.9,14,14.1,18.4,23c1.2,2.4,1.8,5.1,3,7.6c3,6.6,9.1,10.8,15.7,14.3c-1.7,0.8-3.6,1-5.3,0.4c-4.7-1.6-7.1-8.1-12.1-8
						c-5.2,0.1-7,7.5-5.2,12.4c2.8,7.7,9.6,13.3,17.7,14.5c4,0.6,8.1,0,11.9,1.4c3.8,1.4,7,5.7,5.1,9.3s-6.8,3.5-10.5,4.9
						c-7.8,3-9.8,15.1-3.3,20.4c8.2,6.7,21.3,0.4,30.9,4.9c6.3,2.9,9.8,10,11.3,16.8c1.5,6.8,1.8,14,4.1,20.6s7.5,12.9,14.5,13.6
						c16.7,1.6,13.6-17.8,11.6-28c-1.9-9.5-2.4-19.3-1.4-28.9c7.6,9.9,15.3,22.6,24.6,31c1.1,2.8,3.1,4.9,7.4,5.2
						c0.7,0.1,1.3,0.1,2,0c5.7,0.8,11.1-2.1,10.2-9.2c-0.1-0.5-0.1-1-0.3-1.5c2.1-11-2.1-28-2.9-38.1c2.6,1.2,5.6,1.1,8.1-0.4
						c4.1-2.6,5.1-8.1,5.6-13l3.6-29.9c0.9-7.3,2.1-15.3,7.8-20c4.3-3.5,10.5-4.4,14-8.7C380.7,258.1,380.8,253,378.1,249.2z"/>
					
						<linearGradient id="SVGID_4_" gradientUnits="userSpaceOnUse" x1="532.584" y1="123.9934" x2="532.584" y2="254.5635" gradientTransform="matrix(1 0 0 -1 -61.38 457.07)">
						<stop  offset="0" style="stop-color:#C8421B"/>
						<stop  offset="1" style="stop-color:#FFFFFF;stop-opacity:0"/>
					</linearGradient>
					<path class="st6" d="M563.5,340.5c-4.9-6.9-16.6,3.6-23.7,8.2c-4.6,3-9.5,6.9-14.8,5.7c-2.1-0.5-4.1-1.7-6.3-1.9
						c-0.5,0-1.1,0-1.6,0.1c2.4-1.7,4.8-3.4,7.2-5.1l26.5-19c4.1-2.9,8.3-6,11-10.3s3.3-10.2,0.3-14.3c-3.8-5.1-11.4-5.1-17.7-4
						c-10.6,2-20.8,5.6-30.3,10.7c-0.1-0.4-0.2-0.7-0.3-1.1c18.6-23.9,35-50.6,38-80.5c0.7-6.8,0.6-13.9-1.8-20.3
						c-2.4-6.4-7.5-12.1-14.1-13.8c-6.8-1.7-14.1,0.9-19.5,5.4c-0.7,0.6-1.3,1.2-2,1.8c-0.5-1.9-1.7-3.5-3.4-4.4
						c-3.1-1.6-6.9-0.4-9.9,1.3c-10,5.6-16.4,16-17,27.5c-0.1,2.5,0,5.1-1.3,7.2s-4.8,3-6.2,1c-0.9-1.3-0.5-3-0.9-4.4
						c-1-3.7-6.5-4.6-9.4-2.1s-3.5,6.9-2.8,10.6s2.6,7.2,3.9,10.9s1.7,7.8-0.1,11.2c-1.9,3.4-6.8,5.1-9.7,2.6
						c-1.8-1.5-2.4-4.1-4.1-5.6c6.2-15.9,13.6-32.8,8.4-48.9c-1.3-4.4-3.6-8.4-4.9-12.8c-4.6-16,13.4-48.8-3.3-49.2
						c-14.1-0.4-12,25.8-12.9,39.9c-0.6,9.1-0.4,19.6-7.3,25.6c-2.8,2.4-6.5,3.7-8.9,6.5c-4.3,5-2.9,12.6-0.9,18.9
						s4.3,13.3,1.4,19.2c0,0.1-0.1,0.1-0.1,0.1c-1.6-3.4-4.4-6.2-8.1-6.9c-6.3-1.2-11.9,3.9-15.8,8.9c-14.2,18.4-21.1,41.8-22.8,65
						c-1.2,16.6,1.5,32.5,2.3,49c0.4,8.2-2.8,19.1-0.1,26.9c3.3,9.5,14.3,5.9,17.9-1.9c6-12.8,6.9-30.6,9.9-44.5
						c1.5-6.9,2.9-13.8,4.4-20.6c0.6,7,1.2,14,1.9,21c0.1,1.6,0.3,3.4,0.6,5.1c-1,4-2,7.9-3.1,11.9c-2.3,7.9-8.8,17.1-8.8,25.5
						c0.1,10,11.6,10.2,17.6,4c9.5-9.8,16-25.6,23-37.6c-3.8,8.5-8.2,18.3-8.8,26.1c-0.2,0.5-0.5,0.9-0.6,1.4
						c-2.8,6.6,1.7,10.8,7.4,11.6c0.7,0.2,1.3,0.4,2,0.5c0.4,0.1,0.7,0.1,1.1,0.1c-1.5,2.1-2.1,4.7-1.7,7.2l10.6-4.3
						c16.5-1.9,32.7-5.6,48.4-10.9c1.4-0.4,2.7-1,3.8-2c1.1-1,1.4-2.7,0.6-4c-0.6-0.9-1.7-1.3-2.3-2.1c-0.8-1.4-0.5-3.1,0.7-4.1
						c1.1-1,2.5-1.7,4-2c10.2-3,21.8-5.3,27.9-14c1.6-2.2,2.7-4.7,4.3-6.9C547.1,351.8,569.2,348.6,563.5,340.5z M500.7,366.4
						c-1,0.1-1.9,0.1-2.9,0l12.7-9.1c-0.4,0.5-0.8,1-1.2,1.5C507.1,362.1,504.5,365.7,500.7,366.4L500.7,366.4z"/>
					
						<linearGradient id="SVGID_5_" gradientUnits="userSpaceOnUse" x1="435.2681" y1="172.0435" x2="435.2681" y2="121.8134" gradientTransform="matrix(1 0 0 -1 -61.38 457.07)">
						<stop  offset="0" style="stop-color:#CFA58B"/>
						<stop  offset="1" style="stop-color:#F2CFB2"/>
					</linearGradient>
					<path class="st7" d="M413.3,333.9c-15.8-6.3-17.5-9.1-18.7-21.2s4.1-24.6,4.1-24.6s-23.8-2.1-24.8-2.1c-1,0-24.8,2.1-24.8,2.1
						s5.3,12.6,4.1,24.6c-1.2,12-2.9,14.9-18.7,21.2c-15.7,6.3-24.2,8.9-24.2,8.9s36.1,29.4,63.6,29.6c27.5-0.2,63.6-29.6,63.6-29.6
						S429,340.2,413.3,333.9z"/>
					
						<linearGradient id="SVGID_6_" gradientUnits="userSpaceOnUse" x1="435.267" y1="238.2534" x2="435.267" y2="166.3634" gradientTransform="matrix(1 0 0 -1 -61.38 457.07)">
						<stop  offset="0" style="stop-color:#CFA58B"/>
						<stop  offset="1" style="stop-color:#F2CFB2"/>
					</linearGradient>
					<path class="st8" d="M413.2,247.9L413.2,247.9c0-0.8,0.1-1.6,0.1-2.4c0-21.7-1.6-45.5-38.2-46.2c-26.8-0.5-40.5,24.5-40.5,46.2
						c0,0.8,0,1.6,0.1,2.4l0,0c-1.7,22.9,18.1,60.9,38.8,60.9h0.5C394.6,308.9,414.9,270.8,413.2,247.9z"/>
					
						<linearGradient id="SVGID_7_" gradientUnits="userSpaceOnUse" x1="433.9694" y1="270.7534" x2="433.9694" y2="247.0634" gradientTransform="matrix(1 0 0 -1 -61.38 457.07)">
						<stop  offset="0" style="stop-color:#9ED1E1"/>
						<stop  offset="1" style="stop-color:#65A3B2"/>
					</linearGradient>
					<path class="st9" d="M376.2,212.1c-12.7-0.8-26.2-10.2-34.5,20.8c-4.1,15.7-4,32.3,0.5,47.9c0,0-5.5-0.1-7.8-7.6
						s-15.6-44.7-4.7-56.8c11.8-13,8.6-22.6,21.6-28.6c9.6-4.4,22.9,2.3,31.3-2.7c11.3-6.8,24.4,1.7,27.8,10.1
						c2.5,6-2.5,17.6,2.7,23.9c5.4,6.5,8.8,27.1,4.2,38.5c-2.8,6.9-6.2,13.6-10.3,19.8c0,0,2.6-23.3,1.9-38.7
						C407.6,203.5,392.4,213.1,376.2,212.1z"/>
					
						<linearGradient id="SVGID_8_" gradientUnits="userSpaceOnUse" x1="435.2681" y1="118.3534" x2="435.2681" y2="46.2235" gradientTransform="matrix(1 0 0 -1 -61.38 457.07)">
						<stop  offset="0" style="stop-color:#9ED1E1"/>
						<stop  offset="1" style="stop-color:#65A3B2"/>
					</linearGradient>
					<path class="st10" d="M444.7,343.8c-9.1-4.1-42.6-15.3-42.6-15.3s-4.9,10-28.2,10s-28.2-10-28.2-10s-33.4,11.1-42.6,15.2
						c-9.1,4.1-17.6,27.4-17.8,40c-0.2,12.6,52.2,30.1,88.6,30.1s88.8-17.6,88.6-30.1S453.8,347.9,444.7,343.8z"/>
					
						<linearGradient id="SVGID_9_" gradientUnits="userSpaceOnUse" x1="453.7241" y1="270.7534" x2="453.7241" y2="247.0634" gradientTransform="matrix(1 0 0 -1 -61.38 457.07)">
						<stop  offset="0" style="stop-color:#9ED1E1"/>
						<stop  offset="1" style="stop-color:#65A3B2"/>
					</linearGradient>
					<path class="st11" d="M395.7,232.8l-12.6,3.4c-0.5,0.2-1.1,0.3-1.7,0.2c-1.5-0.3-2-2.4-1.2-3.7c0.9-1.2,2.1-2.2,3.6-2.6
						c3.6-1.5,7.5-2.5,11.4-2.1s7.7,2.5,9.5,6c0.4,0.6,0.4,1.5,0,2.1c-0.4,0.4-1.1,0.5-1.6,0.2c-0.5-0.3-1-0.6-1.4-1
						c-2.4-1.9-5.5-2.6-8.5-1.9"/>
					
						<linearGradient id="SVGID_10_" gradientUnits="userSpaceOnUse" x1="419.6722" y1="270.7534" x2="419.6722" y2="247.0634" gradientTransform="matrix(1 0 0 -1 -61.38 457.07)">
						<stop  offset="0" style="stop-color:#9ED1E1"/>
						<stop  offset="1" style="stop-color:#65A3B2"/>
					</linearGradient>
					<path class="st12" d="M354.9,232.8l12.6,3.4c0.5,0.2,1.1,0.3,1.7,0.2c1.5-0.3,2-2.4,1.2-3.7c-0.9-1.2-2.1-2.2-3.6-2.6
						c-3.6-1.5-7.5-2.5-11.4-2.1s-7.7,2.5-9.5,6c-0.4,0.6-0.4,1.5,0,2.1c0.4,0.4,1.1,0.5,1.6,0.2c0.5-0.3,1-0.6,1.4-1
						c2.4-1.9,5.5-2.6,8.5-1.9"/>
					<path class="st13" d="M391.4,233c-3,1.5-8.2,7.5-16.3,7.5c-8,0-13.4-5.8-16.3-7.9c-2.7-1.9-6.5,25.1-1.8,24
						c4.8-1.1,12.5-4.5,18.1-4.5s12.8,3.3,17.6,4.5C397.4,257.7,394.3,231.5,391.4,233z"/>
					<path class="st14" d="M365.2,244.5c0,7.2-5.8,13-13,13c-7.2,0-13-5.8-13-13s5.8-13,13-13C359.4,231.5,365.2,237.3,365.2,244.5
						L365.2,244.5z"/>
					
						<linearGradient id="SVGID_11_" gradientUnits="userSpaceOnUse" x1="430.8987" y1="184.536" x2="442.0486" y2="184.536" gradientTransform="matrix(1 0 0 -1 -61.38 457.07)">
						<stop  offset="0" style="stop-color:#D59A74"/>
						<stop  offset="1" style="stop-color:#E6AE8A"/>
					</linearGradient>
					<path class="st15" d="M369.8,270.8c1-0.4,4,1,5,1.1s3.3-1,4.3-1.1s2.8,0.4,0,1.9c-1.1,0.6-3.5,2-4.8,1.5
						S368.2,271.4,369.8,270.8z"/>
					
						<linearGradient id="SVGID_12_" gradientUnits="userSpaceOnUse" x1="649.4372" y1="398.5154" x2="669.0172" y2="398.5154" gradientTransform="matrix(0.98 0.19 0.19 -0.98 -346.72 548.29)">
						<stop  offset="0" style="stop-color:#D59A74"/>
						<stop  offset="1" style="stop-color:#E6AE8A"/>
					</linearGradient>
					<path class="st16" d="M385.8,282.3c-3.9,0.4-7.7,0.6-11.6,0.9c-2.7,0.1-6-0.2-8.6,0.5c3.6,1.2,7.3,1.8,11.1,1.9
						c1.7,0,3.3-0.2,4.9-0.7C382.9,284.4,384.8,282.4,385.8,282.3z"/>
					<path class="st14" d="M360.3,234.2c-0.6-0.3-30.2-34.9-30.2-34.9l-16.4,70.8l43.4-13.5L360.3,234.2z"/>
					
						<linearGradient id="SVGID_13_" gradientUnits="userSpaceOnUse" x1="371.0094" y1="219.1134" x2="371.0094" y2="141.3434" gradientTransform="matrix(1 0 0 -1 -61.38 457.07)">
						<stop  offset="0" style="stop-color:#CFA58B"/>
						<stop  offset="1" style="stop-color:#F2CFB2"/>
					</linearGradient>
					<path class="st17" d="M264.3,220.2c-8.4,8.9,9.4,32.3,15.2,42.2c10.8,18.3,12.4,19,16.4,34.9s-13.4,95-11.6,97.8
						s26.8,12.8,37.6,11.9s3.8-27.8,2-64.7c-2.6-52.2,4.3-57.9,10.7-66.2s17-15.4,21.4-28.4c4.2-12.5-3.4-19.7-6.6-8.6
						s-17.8,26.1-28.7,29c-11.9,3.2-34.8,4.4-46.8-11.6C266,246.1,262.6,233.1,264.3,220.2z"/>
					
						<linearGradient id="SVGID_14_" gradientUnits="userSpaceOnUse" x1="362.5587" y1="271.4835" x2="362.5587" y2="197.2234" gradientTransform="matrix(1 0 0 -1 -61.3929 457.0652)">
						<stop  offset="0" style="stop-color:#9ED1E1"/>
						<stop  offset="1" style="stop-color:#65A3B2"/>
					</linearGradient>
					<circle class="st18" cx="301.2" cy="229.9" r="42.1"/>
					<circle class="st14" cx="301.2" cy="229.9" r="27.6"/>
					<path class="st14" d="M384.4,244.5c0,7.2,5.8,13,13,13s13-5.8,13-13s-5.8-13-13-13S384.4,237.3,384.4,244.5L384.4,244.5z"/>
					<path class="st14" d="M388.5,235c0.6-0.3,31-35.7,31-35.7l16.4,70.8l-43.4-13.5L388.5,235z"/>
					
						<linearGradient id="SVGID_15_" gradientUnits="userSpaceOnUse" x1="501.355" y1="219.1134" x2="501.355" y2="141.3434" gradientTransform="matrix(1 0 0 -1 -61.38 457.07)">
						<stop  offset="0" style="stop-color:#CFA58B"/>
						<stop  offset="1" style="stop-color:#F2CFB2"/>
					</linearGradient>
					<path class="st19" d="M485.3,220.2c8.4,8.9-9.4,32.3-15.2,42.2c-10.8,18.3-12.4,19-16.4,34.9s13.4,95,11.6,97.8
						s-26.8,12.8-37.6,11.9s-3.8-27.8-2-64.7c2.6-52.2-4.3-57.9-10.7-66.2s-17-15.4-21.4-28.4c-4.2-12.5,3.4-19.7,6.6-8.6
						s17.8,26.1,28.7,29c11.9,3.2,34.8,4.4,46.8-11.6C483.6,246.1,487,233.1,485.3,220.2z"/>
					
						<linearGradient id="SVGID_16_" gradientUnits="userSpaceOnUse" x1="509.8231" y1="271.4835" x2="509.8231" y2="197.2234" gradientTransform="matrix(1 0 0 -1 -61.3858 457.0708)">
						<stop  offset="0" style="stop-color:#9ED1E1"/>
						<stop  offset="1" style="stop-color:#65A3B2"/>
					</linearGradient>
					<circle class="st20" cx="448.4" cy="229.9" r="42.1"/>
					<circle class="st14" cx="448.4" cy="229.9" r="27.6"/>
					
						<linearGradient id="SVGID_17_" gradientUnits="userSpaceOnUse" x1="657.2272" y1="390.7905" x2="664.9772" y2="390.7905" gradientTransform="matrix(0.98 0.19 0.19 -0.98 -346.72 548.29)">
						<stop  offset="0" style="stop-color:#D59A74"/>
						<stop  offset="1" style="stop-color:#E6AE8A"/>
					</linearGradient>
					<path class="st21" d="M380.1,290.5c-0.3,0.1-1.2,1.2-1.6,1.4c-0.8,0.4-1.7,0.5-2.6,0.5c-1.3-0.1-4-0.6-3.6-2.4
						C375,290.2,377.4,291,380.1,290.5z"/>
					<path class="st22" d="M473.9,229.9c0,1.4-0.1,2.7-0.3,4.1c-0.5,2.9-1.4,5.6-2.8,8.1c-6.7,12.4-22.2,16.9-34.6,10.2
						c-12.4-6.7-16.9-22.2-10.2-34.6c2.8-5.2,7.3-9.2,12.8-11.4c2.7-1.1,5.5-1.7,8.4-1.9c0.4,0,0.8,0,1.2,0
						C462.5,204.4,473.9,215.8,473.9,229.9z"/>
					<path class="st23" d="M473.6,233.9c-0.5,2.9-1.4,5.6-2.8,8.1l-32-35.8c2.7-1.1,5.5-1.7,8.4-1.9L473.6,233.9z"/>
					<path class="st22" d="M326.7,229.9c0,1.4-0.1,2.7-0.3,4.1c-0.5,2.9-1.4,5.6-2.8,8.1c-6.7,12.4-22.2,16.9-34.6,10.2
						s-16.9-22.2-10.2-34.6c2.8-5.2,7.3-9.2,12.8-11.4c2.7-1.1,5.5-1.7,8.4-1.9c0.4,0,0.8,0,1.2,0
						C315.2,204.4,326.6,215.8,326.7,229.9z"/>
					<path class="st23" d="M326.4,233.9c-0.5,2.9-1.4,5.6-2.8,8.1l-32-35.8c2.7-1.1,5.5-1.7,8.4-1.9L326.4,233.9z"/>
					<path class="st3" d="M447.5,361.5c16.8-16.1,37.6-28.8,60.6-32.9c6.3-1.1,13.8-1.1,17.7,4c3,4,2.3,9.9-0.3,14.3
						c-2.6,4.3-6.8,7.4-11,10.3l-26.5,19l-38.1,27.4c-11.5,8.3-24.1,20.9-37.2,26.3c-7.9,3.3-18.5-1.4-14.5-10.7
						c3.2-7.7,12.9-13.6,18.1-19.9C426.8,386.5,435.5,373,447.5,361.5z"/>
					<path class="st2" d="M520.8,336.3c-8.9-0.8-17,3.6-23.8,8.8c-1.7,1.3-3.4,2.7-5.1,4.1c0-1.8,0.2-3.7,0.6-5.5
						c0.1-0.5,2.3-6.9,3.1-6.4c0.2,0.1,0.4-0.1,0.3-0.3l-0.1-0.2c0-0.1-0.2-0.2-0.3-0.2c-1.8,0-2.6,3.3-3.1,4.6
						c-1,2.8-1.5,5.7-1.3,8.7c-5.5,4.7-10.6,9.9-15.6,15.1c-7.7,7.9-15.1,16.1-22.9,24c0-1.9-0.4-3.9-0.5-5.8c-0.1-2-0.1-4,0-6
						c0.2-4.5,1.3-8.7,2.1-13c0.1-0.2-0.1-0.5-0.3-0.6s-0.5,0.1-0.6,0.3c-1.5,4.1-2.4,8.4-2.5,12.8c-0.3,4.1-0.5,9.1,1,13
						c0,0.1,0,0.1,0.1,0.1c-5.9,6-12.1,11.6-18.7,16.8c-0.6,0.5-1.3,1-1.9,1.5c3.4-5.1,6.9-11.6,5.8-17.7c-0.1-0.4-0.7-0.3-0.7,0.1
						c-0.2,3.6-1.1,7.2-2.5,10.6c-1.4,2.9-3.1,5.5-4.7,8.3c-0.1,0.1-0.1,0.3-0.1,0.4c-3.1,2.3-6.3,4.4-9.7,6.3
						c-4.6,2.7-9.5,4.8-14.4,7.1c-0.5,0.2-0.1,1,0.4,0.9c8.5-2.4,16.7-7.7,23.9-12.9c7.4-5.4,14.3-11.3,20.8-17.8
						c11.9-11.6,22.8-24.3,34.7-35.9c3.9,2,9.1,2.3,13.4,2c3.2-0.2,8-0.3,9.8-3.4c0.2-0.4-0.3-0.8-0.6-0.5c-3,2.5-7.2,2.7-11,2.7
						s-7.3-0.9-11-1.5c2.3-2.2,4.5-4.4,6.9-6.4c8.1-7.2,17.4-13.9,28.6-13.7c0.2,0,0.3-0.1,0.3-0.3
						C521.1,336.5,521,336.3,520.8,336.3z"/>
					<path class="st2" d="M474,347.2c-1.6,3.9-2.8,7.9-3.5,12c-0.5,3.3-1.6,7.7-0.6,10.9c0,0.2,0.2,0.3,0.4,0.2
						c0.1,0,0.2-0.1,0.2-0.2c0.3-1.6,0.4-3.1,0.4-4.7c0.1-2.3,0.4-4.5,0.8-6.8c0.6-3.8,1.5-7.6,2.7-11.3
						C474.3,347.1,474.1,347.1,474,347.2z"/>
					<path class="st4" d="M311.1,366.2c-13.9-13.7-32.7-22.8-55.6-22.3c-6.3,0.1-14.1,1.8-19.1,8.1c-4,5-4.6,11.2-2.7,15.2
						c1.8,4.1,5.5,6.4,9.1,8.7l23.3,14.7l33.5,21.2c10.1,6.4,20.4,17.2,32.8,20.2c7.5,1.8,19.4-5.5,17.3-14.6
						c-1.7-7.5-10.4-11.8-14.5-17.5C327.2,388.7,321.1,376,311.1,366.2z"/>
					<path class="st2" d="M323.1,414.7c-4.1-4.5-8.5-8.8-13-13c1.8-4,2.5-8.5,2.1-12.9c0-0.1-0.1-0.2-0.3-0.2
						c-0.1,0-0.2,0.1-0.2,0.2c-0.2,4.2-0.9,8.3-2.2,12.3c-4.5-4.2-9.1-8.2-13.8-12c2.6-9.2,3.9-20.8-3-28.6
						c-0.4-0.5-1.1,0.2-0.7,0.7c6.4,8.2,4.7,17.9,3.2,27.4c-3.2-2.6-6.4-5.2-9.7-7.6c-3.3-2.5-6.7-5-10.2-7.3
						c0.4-2.9,0.4-5.8,0.2-8.8c0-2.3-0.8-4.4-2.1-6.3l0,0l-0.1-0.1l0,0c-0.2-0.2-0.5-0.1-0.6,0c-0.1,0.1-0.1,0.3-0.1,0.5
						c2.4,4.5,1.7,9.1,1.8,14c-3.2-2.1-6.4-4.2-9.7-6.1c-1-0.5-1.9-1.1-2.9-1.6c0.4-2.9,0.1-5.8-0.8-8.5c-0.8-2.5-2-5.5-4.1-7.1
						c-0.3-0.2-0.7,0.1-0.6,0.4c1,2.4,2.7,4.4,3.5,7c0.7,2.5,1,5.1,0.9,7.7c-2.5-1.4-5-2.7-7.6-3.9c-3.8-1.9-7.9-3.8-12.1-4.5
						c-0.3,0-0.5,0.1-0.6,0.4c0,0.2,0.1,0.5,0.3,0.5c9.5,3.1,18.6,7.4,27,12.8c-1.5,2.2-3.5,4.1-5.8,5.5c-2.2,1.2-4.7,1.2-6.8,2.3
						c-0.2,0.1-0.2,0.3-0.1,0.5c0,0.1,0.1,0.1,0.2,0.1c2.3,0.8,5.6-0.9,7.6-2.1c2.4-1.4,4.4-3.4,5.7-5.9c2,1.2,3.9,2.5,5.8,3.8
						c0,0.2,0.3,0.4,0.5,0.3c3.4,2.3,6.8,4.8,10,7.2c1.5,1.1,3,2.3,4.5,3.5c-2,2.4-3.8,4.4-6.8,5.6c-2.5,0.9-5,1.5-7.6,1.9
						c-0.1-0.1-0.3,0-0.4,0.1l-0.1,0.1c-0.1,0.1-0.1,0.3-0.1,0.4v0.2c0,0.2,0.2,0.4,0.4,0.4c1.3,0.2,2.8-0.3,4-0.6
						c1.9-0.4,3.7-1,5.4-1.8c2.4-1.1,5.1-3.1,6-5.7c6.5,5.3,12.7,10.9,18.9,16.5c0,0.1,0.1,0.2,0.3,0.2c4.4,4.1,8.9,8.2,13.4,12.3
						c0.1,0.1,0.3,0.1,0.5,0C323.3,415,323.2,414.8,323.1,414.7z"/>
					<path class="st3" d="M382.4,390.7c3.2-11.1,11-20.4,21.3-25.7c3.1-1.6,7.4-2.9,11.5-1.1c2.9,1.1,4.9,3.7,5.4,6.7
						c0.2,2.5-1,4.6-2.1,6.7c-2.5,4.5-5,8.9-7.5,13.4c-3.6,6.4-7.2,12.9-10.8,19.3c-3.3,5.8-5.4,13.9-10.7,18.6
						c-3.2,2.9-11,2.5-12.4-2.5c-1.2-4.1,2-8.5,2.4-12.4C380.5,406,380.1,398.2,382.4,390.7z"/>
					<path class="st3" d="M353.2,374.3c-4.5-14.7-14-28-30-36.2c-4.4-2.2-10.4-4-16.2-1.6c-4.6,1.9-7.3,6-7.6,9.5
						c-0.3,3.5,1.4,6.5,3,9.4l10.5,18.9c5.1,9.1,10.1,18.1,15.2,27.2c4.6,8.2,7.7,19.5,15.1,26.2c4.5,4.1,15.4,3.5,17.4-3.6
						c1.7-5.9-2.8-12-3.4-17.5C355.8,395.8,356.4,384.7,353.2,374.3z"/>
					<path class="st2" d="M346.8,413.3c-2.9-6.3-6.3-12.4-9.5-18.5s-5.8-12.2-8.5-18.5c-2.7-6.4-6-12.4-9.8-18.2
						c3.9-1.8,6.8-9.1,5.7-13.1c0-0.2-0.2-0.3-0.4-0.2c-0.1,0-0.2,0.1-0.2,0.2c-0.7,2.4-0.7,4.8-1.8,7.2c-0.9,2-2.6,3.5-3.7,5.4
						c-2.9-4.3-6.1-8.4-9.7-12.1c-0.2-0.2-0.6,0.1-0.4,0.3c3.7,5,7.6,9.7,10.9,15c3.5,5.5,6.5,11.2,9,17.2c1,2.5,2.1,5,3.3,7.5
						c-1.3-0.1-2.6-0.4-3.7-1.1c-1.1-0.6-1.8-1.7-2.8-2.3c-0.1-0.1-0.3,0-0.4,0.1c0,0.1-0.1,0.2,0,0.2c0.3,1.3,1.8,2.3,2.9,3
						c1.4,0.7,2.9,1.1,4.4,1.1h0.1c4.2,9.2,9,18.2,14.2,26.9c0.1,0.1,0.3,0.1,0.4,0C346.7,413.5,346.8,413.4,346.8,413.3z"/>
					<path class="st2" d="M324.1,369.2c-3.8-1.4-7.3-3.7-10.1-6.6c-0.3-0.3-0.8,0.1-0.6,0.5c2.5,3.5,6.3,6,10.5,6.9
						c0.2,0.1,0.5-0.1,0.5-0.3C324.4,369.5,324.3,369.3,324.1,369.2z"/>
					<path class="st2" d="M378.3,391c1.3-2.6,3-5.2,2.8-8s-3.2-5.7-5.8-4.4c-1.6,0.8-2.3,2.8-3.7,3.8c-2.3,1.5-5.7-0.2-6.7-2.7
						c-1-2.6-0.3-5.5,1-8s2.8-4.7,3.7-7.3c0.9-2.6,0.9-5.8-1-7.8c-1.9-2-5.9-1.9-6.9,0.6c-0.4,1-0.3,2.2-1.1,3
						c-1.2,1.3-3.6,0.4-4.3-1.3c-0.7-1.6-0.4-3.5-0.2-5.3c0.7-8.2-2.9-16.1-9.5-21.1c-2-1.5-4.6-2.7-6.9-1.8c-3.4,1.2-4,5.8-3.5,9.4
						c0.8,5.3,2.8,10.3,6,14.5c1.4,1.7,2.7,3.6,3.9,5.5c1.2,2,1.4,4.3,0.6,6.5c-0.9,2.1-3.5,3.4-5.5,2.4c-2.2-1.1-3-4.5-5.5-4.8
						c-2.5-0.3-3.9,3.2-3.4,5.8c0.9,4,3.9,7.2,7.9,8.4c1.9,0.5,4,0.5,5.8,1.5s3.1,3.3,1.9,4.9c-1.2,1.6-3.6,1.3-5.5,1.8
						c-4,1-5.8,6.9-3,9.9c3.6,3.9,10.5,1.6,15,4.4c3,1.9,4.2,5.6,4.5,9.1c0.3,3.5,0,7,0.7,10.5s2.9,6.9,6.3,7.7
						c8.2,1.9,7.9-7.9,7.6-13.1C372.9,406.7,374.5,398.4,378.3,391z"/>
					<path class="st3" d="M359.4,395.1c-1-3.1-1.9-6.3-2.8-9.5c-0.4-1.3-0.7-2.5-1-3.8c4.3-5.5,7.1-12.1,8.1-19
						c0-0.2-0.3-0.3-0.3-0.1c-1.3,6.5-4.1,12.6-8.1,17.8c-1.3-4.9-2.4-9.8-3.4-14.7c-2.1-10.1-2.4-23.3-10.5-30.8
						c-0.2-0.1-0.4-0.1-0.6,0.1c-0.1,0.1-0.1,0.3,0,0.5c4,4.3,5.9,9.7,7.1,15.3c1.2,5.8,2,11.7,3.3,17.5c0.9,4.2,1.9,8.4,3,12.5
						c-0.9-0.6-1.9-1-2.8-1.5c-1.6-0.8-3.1-1.7-4.6-2.6c-3-1.8-5.6-4.3-8.7-5.9c-0.2-0.1-0.4,0-0.5,0.1c-0.1,0.1-0.1,0.3,0.1,0.4
						c2.2,2.7,5.6,4.7,8.4,6.6c2.3,1.4,5.1,3.6,7.8,4.3c-0.2,0.5,0.4,1,0.7,0.6c0.4,1.4,0.8,2.9,1.2,4.3c0.8,2.9,1.7,5.8,2.6,8.7
						c-1.3-0.9-3.3-1.1-4.6-1.5c-2.5-0.8-5.1-1.9-7.6-1c-0.1,0-0.2,0.2-0.2,0.3c0,0.1,0.1,0.2,0.2,0.2c4.1,0.1,8.7,2,12.4,3.7
						c0.1,0,0.2,0,0.3,0c0.7,2.6,1.6,5.2,2.8,7.7c0.3,0.5,1,0.1,0.9-0.4C361.9,401.7,360.4,398.4,359.4,395.1z"/>
					<path class="st3" d="M381.2,381.3c8.3-12.4,19.6-23.3,33.4-29c3.8-1.6,8.5-2.6,11.6,0.1c2.5,2.1,2.8,5.9,1.8,9s-3.3,5.6-5.4,8
						L408.7,385l-20.1,22.4c-6.1,6.8-12.2,16.4-19.7,21.6c-4.5,3.2-11.8,1.7-10.6-4.7c1-5.3,6.2-10.3,8.6-15
						C371.7,399.9,375.3,390.2,381.2,381.3z"/>
					<path class="st2" d="M418.8,360.1c-4,3.1-7.8,6.5-11.2,10.3c0.3-1.5,0.4-3.1,0.7-4.6c0.4-1.9,1.1-3.7,1.6-5.5
						c0-0.1-0.1-0.2-0.2-0.3c-0.1,0-0.2,0-0.2,0.1c-1.8,3-3.3,7.7-2.9,11.3c0,0,0,0.1,0,0.1c-5.6,6.6-10.9,13.5-15.8,20.7l-1.5,2.1
						v-0.5c0,0,0,0,0.1-0.1c1.1-2.4,0.7-5.6,1-8.3c0.4-3.3,1.1-6.6,1.4-9.9c0-0.3-0.5-0.4-0.5-0.1c-1,3.1-1.7,6.2-2,9.4
						c-0.3,2.6-1.3,6.2-0.4,8.7c-0.1,0.4-0.1,0.8,0,1.2c-3.3,4.7-6.7,9.5-10.1,14.1c0.2-1.5,0.2-3,0-4.4c-0.1-1.7-0.2-3.4-0.2-5.1
						c0-0.1-0.2-0.2-0.3-0.2c-0.1,0-0.2,0.1-0.2,0.2c-0.2,3-0.9,6.7,0.1,9.6c0.1,0.2,0.2,0.2,0.4,0.2c0,0,0,0,0,0
						c-0.2,0.3-0.5,0.6-0.7,1c-2.3,3.2-4.9,6.2-7.8,9c-3,2.7-6.3,5.1-9.9,7.2c-0.2,0.1-0.1,0.6,0.2,0.5c6.8-2.6,12-8.1,16.4-13.7
						c2.8-3.5,5.4-7.1,8-10.7c0,0.1,0.1,0.2,0.2,0.2c1.9,0.7,4.5-1,5.9-2c0.2-0.2,0-0.5-0.2-0.4c-1,0.6-2,1-3.1,1.3
						c-0.8,0.1-1.7,0.2-2.5,0.5l4.5-6.4c3.2-4.5,6.4-9,9.7-13.5c3.3,0.4,7.1-1.4,9.7-3.1c0.1,0,0.1-0.2,0.1-0.3s-0.2-0.1-0.3-0.1
						c-1.7,0.8-3.4,1.4-5.1,1.9c-1.2,0.3-2.5,0.4-3.7,0.7c1.1-1.4,2.2-2.8,3.3-4.2c4.8-5.8,10-11.3,15.6-16.4
						C419.2,360.2,419,360,418.8,360.1z"/>
					<path class="st2" d="M423.3,396.5c9.8-12.1,18.9-25.7,20.5-41.1c0.5-3.2,0.2-6.5-0.8-9.6c-1-3.1-3.5-5.5-6.6-6.5
						c-3.2-0.8-6.6,0.4-9.2,2.5c-2.4,2.2-4.5,4.9-6,7.8c-9.5,15.7-16.9,32.5-22,50.1c-2.7,8.9-4.5,17.9-5.5,27.1
						c-1,9.7,8.3-2.8,10.1-5.4C409.5,412.7,416.6,404.8,423.3,396.5z"/>
					<path class="st3" d="M431.7,374.1c-2.2,2.4-4.3,4.9-6.8,7.1c-2.2,2-4.9,3.5-7.1,5.4c1.2-2.1,2.5-4.1,3.7-6.2
						c3.5-5.8,7.3-11.6,10.1-17.7c2.4-5.2,4.4-11.3,3-17.1c0-0.1-0.1-0.2-0.2-0.1c-0.1,0-0.1,0.1-0.1,0.2c0,6.6-1.7,13.1-4.8,18.9
						c-3.1,6-6.8,11.6-10.3,17.4s-7.2,11.8-10.8,17.7c-0.6,0.9-1.1,1.9-1.7,2.8c-0.5-1.5-0.8-3-1-4.5c-0.1-1.6,0-3.3,0.1-4.9
						c0-0.2-0.2-0.3-0.4-0.3c-0.1,0-0.3,0.1-0.3,0.2c-1,3.5-0.7,7.3,0.9,10.6c-3.1,4.6-5.9,9.4-8.5,14.3c-0.1,0.3,0,0.6,0.3,0.8
						c0.2,0.1,0.5,0,0.7-0.2c4.3-5.9,7.8-12.7,11.5-19c2.4-3.9,4.7-7.8,7-11.8c0.1,0.1,0.2,0.1,0.3,0.1c2.9-1.1,5.6-3.6,7.8-5.7
						c2.6-2.3,4.9-4.9,6.9-7.7c0-0.1-0.1-0.3-0.2-0.3C431.9,374,431.8,374.1,431.7,374.1z"/>
					
						<linearGradient id="SVGID_18_" gradientUnits="userSpaceOnUse" x1="441.6348" y1="20.9534" x2="441.6348" y2="121.1334" gradientTransform="matrix(1 0 0 -1 -61.38 457.07)">
						<stop  offset="0" style="stop-color:#FFFFFF;stop-opacity:0"/>
						<stop  offset="1" style="stop-color:#FEA5AB"/>
					</linearGradient>
					<path class="st24" d="M525.8,332.6c-3.8-5.1-11.4-5.1-17.7-4c-23,4.1-43.7,16.8-60.6,32.9c-2.5,2.4-4.8,4.8-7,7.3
						c1.7-4.3,2.7-8.8,3.2-13.3c0.5-3.2,0.2-6.5-0.8-9.6c-1-3.1-3.5-5.5-6.6-6.5c-3.2-0.8-6.6,0.4-9.2,2.5c-2.4,2.2-4.5,4.9-6,7.8
						l-0.6,1.1c-2,0.2-3.9,0.7-5.8,1.5c-13.8,5.8-25.1,16.6-33.4,29c-0.1,0.2-0.3,0.4-0.4,0.6c-0.7-2.5-3.3-4.5-5.6-3.4
						c-1.6,0.8-2.3,2.8-3.7,3.8c-2.3,1.5-5.7-0.2-6.7-2.7c-1-2.6-0.3-5.5,1-8s2.8-4.7,3.7-7.3c0.9-2.6,0.9-5.8-1-7.8
						c-1.9-2-5.9-1.9-6.9,0.6c-0.4,1-0.3,2.2-1.1,3c-1.2,1.3-3.6,0.4-4.3-1.3c-0.7-1.6-0.4-3.5-0.2-5.3c0.7-8.2-2.9-16.1-9.5-21.1
						c-2-1.5-4.6-2.7-6.9-1.8c-3.4,1.2-4,5.8-3.5,9.4c0.5,3.6,1.7,7,3.3,10.3c-4.7-5-10.2-9.2-16.4-12.3c-4.4-2.2-10.4-4-16.2-1.6
						c-4.6,1.9-7.3,6-7.6,9.5c-0.3,3.5,1.4,6.5,3,9.4c1.1,2,2.2,4,3.3,6c-14-11.8-31.9-18-50.2-17.4c-6.3,0.1-14.1,1.8-19.1,8.1
						c-4,5-4.6,11.2-2.8,15.2s5.5,6.4,9.1,8.7l23.3,14.7l33.5,21.2c10.1,6.4,20.5,17.2,32.8,20.2c3.8,0.9,8.8-0.5,12.4-3.4
						c4,2.1,10.3,1.9,13.7-1.4c1.4,3.6,6.8,4.1,10.4,1.5c3.1-2.3,5.9-5,8.4-8c-0.6,1.7-0.6,3.4-0.2,5.1c1.4,5,9.2,5.4,12.4,2.5
						c1.8-1.7,3.3-3.7,4.5-5.8c-0.2,1.3-0.4,2.7-0.5,4c-0.6,5.8,2.5,3.7,5.4,0.5c2.8,3.5,8.8,4.6,13.8,2.5
						c13.1-5.5,25.7-18,37.2-26.3l38.1-27.4l26.5-19c4.1-3,8.3-6,11-10.3S528.8,336.6,525.8,332.6z M356.8,403.3
						c1.3,2,2,4.3,2.1,6.7c0.1,1.1,0.1,2.3,0.2,3.5c-0.9-2.2-1.6-4.5-2-6.8C357,405.5,356.9,404.4,356.8,403.3L356.8,403.3z"/>
				</g>
			</g>
		</g>
	</g>
</g>
</svg>
